<?xml version="1.0" encoding="utf-8"?>
<!-- Generator: Adobe Illustrator 22.0.1, SVG Export Plug-In . SVG Version: 6.00 Build 0)  -->
<svg version="1.1" id="Layer_1" xmlns="http://www.w3.org/2000/svg" xmlns:xlink="http://www.w3.org/1999/xlink" x="0px" y="0px"
	 viewBox="0 0 305.1 260" style="enable-background:new 0 0 305.1 260;" xml:space="preserve">
<style type="text/css">
	.st0{fill:#E25C17;}
	.st1{fill:#F3C324;}
	.st2{fill:#E0E028;}
	.st3{fill:#86849F;}
	.st4{fill:#3A3666;}
	.st5{fill:#B2B0C6;}
</style>
<g>
	<path class="st0" d="M16.3,166.6c34-36.1,73.4-48.2,102.6-64c26.8-14.5,46.7-20.6,67.4-34.2c20.5-13.5,38.8-26.8,56.5-47.2
		c-4,16.2-14.5,32.2-24.3,38.7c14.5-6.2,26.1-19.3,41.8-31.8c14.4-11.5,36.6-17.2,44.9-28.1c-4.2,12.4-24.8,28.5-36.9,42.6
		c-8.9,10.4-13.2,16-22.4,31.1c4.9-5.7,13.4-15.1,21.3-22.4c9-8.4,17.4-14.4,20-15.8c-5.4,11.2-11.7,16.6-18.8,27.7
		c-9.2,14.2-17.7,32.3-27.6,42.9c-16.1,17.3-46.6,30.6-59.2,43.1c6.2-3,25.1-14.6,31.3-17.5c-7.4,8.3-39.9,38.8-60.7,57.3
		c-23.4,20.8-36.3,54.1-79.6,67.7c-26.1,8.2-52.1,0.7-63.5-17.6C-0.3,224.1-8.1,192.5,16.3,166.6L16.3,166.6z"/>
	<path class="st1" d="M71.9,240.8c-20.1,9-41.7,3.3-50.9-10.9c-14.4-22.3-2.1-45.9,2-52c13.5-19.8,31.8-30.3,49.4-37.5
		c-1.9,2.3-11.6,16.2-14.6,23.2c22.3-15,27.4-23.3,46.6-37.6c26-19.3,35.1-22.2,70.9-41.5c-11.5,9.8-28.6,24.2-41.1,32.7
		c12.8-5.4,21.2-6.8,32.6-14.8c8-5.7,31.5-34.3,44.5-40.6c-7.1,7.4-12.1,22.4-16.7,27.7c16.2-11.3,40.5-35,58.7-42.8
		c-19.9,24.4-52.4,64-76.2,80.5c2-0.9,16.3-5.2,28.3-12.8c13-8.3,23.8-20,25.9-20.9c-4.1,19.1-67.5,59.5-90.3,74.8
		c16.1-8.6,22-9.6,26.7-11.7C147.3,180.8,104.1,226.4,71.9,240.8L71.9,240.8z"/>
	<path class="st2" d="M26.8,193.4c10.9-18.9,31-18.5,39.6-22.3c24.8-10.8,67.8-47.3,67.8-47.3s-8.8,16.7-27.1,32.8
		c9.5-5.2,18.5-11.2,26.9-17.9c5.2-4.1,12.2-12.4,19.3-17.4c12.1-8.5,35.7-18.6,53.4-33.7c-9.7,13.8-25.7,22.9-36.6,33.8
		c-10,10-19.8,20.8-28.7,31.4c-15.5,18.5-41.8,37.9-41.8,37.9s7.7-4.3,11.8-5.8c5.8-2.2,22.9-7.5,22.9-7.5S122,191.1,107.3,203
		c-14.8,12-29.3,25.3-35.1,27.6C36.8,244.5,15.7,212.6,26.8,193.4L26.8,193.4z"/>
	<path class="st3" d="M73.7,159.9c-12.7-4.1-27-3-39,5.9c-33.4,24.9-30,53.3-18.3,67.4c11.7,14,23,24.4,45,21.1
		c0,0,18-0.3,32.6-18.4c4.2-5.2,8.1-11.9,11.2-20.5C114.1,190.8,96.4,167.1,73.7,159.9L73.7,159.9z"/>
	<path class="st4" d="M73.7,159.9c0,0,1.9,4.3,6.4,8.9c3.8,3.9,4.8,8.6,6.5,14.1c1.1,3.3,0.2,6.8,0.5,10.5
		c0.7,7.8,1.5,16.1,0.4,22.9c-0.9,5.3-2.4,11.9-6.4,17.7c-7.7,11.1-19.8,20.3-19.8,20.3s4.4-0.1,10.7-2.4
		c6.3-2.3,14.5-6.9,21.9-16.1c4.2-5.2,8.1-11.9,11.2-20.5c7.4-20.5-3.6-40.3-20.5-50.5C81.2,162.8,73.7,159.9,73.7,159.9L73.7,159.9
		z"/>
	<path class="st5" d="M55.6,201.6c1.2,2.7-0.9,9.7-4.8,11.4s-7.4,2.8-8.6,0.1c-1.2-2.7,0.4-8.3,4.3-10
		C50.4,201.4,54.4,198.9,55.6,201.6L55.6,201.6z"/>
	<path class="st5" d="M44,192.5c0.5,1.7-1.1,3.7-3.5,4.3c-2.4,0.7-4.8-0.2-5.2-1.9c-0.5-1.7,1.1-3.7,3.5-4.3
		C41.1,189.9,43.5,190.8,44,192.5L44,192.5z"/>
	<path class="st5" d="M43.1,175.1c0.3,1.2-0.8,2.5-2.4,2.9c-1.7,0.5-3.2-0.1-3.6-1.3s0.8-2.5,2.4-2.9
		C41.2,173.3,42.7,173.9,43.1,175.1L43.1,175.1z"/>
	<path class="st4" d="M31.4,184.3c0.3,1.2-1.4,1.9-3.3,2.4c-1.9,0.5-3.3,0.7-3.6-0.5c-0.3-1.2,1-2.5,2.9-3.1
		C29.2,182.6,31,183.2,31.4,184.3L31.4,184.3z"/>
	<path class="st5" d="M84.6,193.8c1.1,0.4,1.6,2.1,0.9,3.7c-0.6,1.6-2,2.5-3.2,2.1c-1.1-0.4-1.6-2.1-0.9-3.7
		C82,194.4,83.4,193.4,84.6,193.8L84.6,193.8z"/>
	<path class="st3" d="M96.3,203c0.9,0.4,1.1,2.1,0.4,4c-0.7,1.8-2,3-3,2.7c-0.9-0.4-1.1-2.1-0.4-4C94,203.8,95.4,202.6,96.3,203
		L96.3,203z"/>
	<path class="st3" d="M96.2,187.9c0.5-0.5,1.6-0.2,2.4,0.7c0.8,0.9,1.1,1.9,0.5,2.4c-0.5,0.5-1.6,0.2-2.4-0.7
		C95.9,189.5,95.7,188.4,96.2,187.9L96.2,187.9z"/>
	<path class="st3" d="M90.2,229.5c0.8,0.6,1.5,1.8-0.1,3.8c-1.5,2.1-3.8,2.8-4.6,2.2c-0.8-0.6,0.1-1.6,1.6-3.7
		C88.7,229.8,89.4,228.9,90.2,229.5L90.2,229.5z"/>
	<path class="st4" d="M82.7,179.1c0.8-0.9,2.5-0.7,3.8,0.4c1.3,1.1,1.7,2.8,0.9,3.7c-0.8,0.9-2.5,0.7-3.8-0.4
		C82.3,181.6,81.9,180,82.7,179.1L82.7,179.1z"/>
	<path class="st5" d="M65.2,210.9c1.2,0.1,2.1,1.5,2,3.2c-0.1,1.7-1.2,3-2.4,2.9c-1.2-0.1-2.1-1.5-2-3.2
		C62.9,212.1,64,210.8,65.2,210.9L65.2,210.9z"/>
	<path class="st5" d="M69.1,228.3c1.1,0.4,1.5,2.1,0.9,3.7c-0.6,1.6-2,2.5-3.2,2.1c-1.1-0.4-1.5-2.1-0.9-3.7
		C66.6,228.8,68,227.9,69.1,228.3L69.1,228.3z"/>
	<path class="st5" d="M76.3,200.2c0.7,2.5-3,2.2-6.1,3.1c-3.1,0.8-6.1,0.5-6.8-2c-0.7-2.5,1.2-5.2,4.3-6.1
		C70.7,194.3,75.6,197.7,76.3,200.2L76.3,200.2z"/>
	<path class="st5" d="M24.1,230.3c0.9,3.4,4.7,5.2,6.9,4.6c2.2-0.6,1.7-4.5,0.7-7.9c-0.9-3.4-2.4-7.4-4.6-6.8
		C24.9,220.8,23.1,226.9,24.1,230.3L24.1,230.3z"/>
	<path class="st5" d="M25,215.2c1.8,0.3,3.6,0,5.1-1c1.8-1.1,2.8-3.2,3.4-5.2c0.6-2.4,0.2-5.1-0.6-7.4c-0.8-2.4-3.1-4.8-5.4-5.8
		c-2.6-1.2-5.9-1-8.5,1.5c-1.7,1.7-1.9,5.3-1.9,7.7C16.9,210.2,19.8,214.4,25,215.2L25,215.2z"/>
	<path class="st3" d="M19.4,210.8c1.1,1.7,2.9,3,4.8,3.2c1.9,0.1,4.5-0.4,6.1-4.3c1.6-4.2-0.1-9.5-1.7-11.6c-1.7-2-4.4-3.1-6.7-2.2
		c-1.6,0.6-2.7,2.1-3.4,3.8C17.1,203.2,17.3,207.5,19.4,210.8L19.4,210.8z"/>
	<path class="st4" d="M24.5,211.6c3-0.3,3.2-5.9,3.2-7.5c0-3.9-0.2-6.7-4.7-6.3c-3.6,0.3-5.1,5.1-4.8,8.1
		C18.5,209.2,20.6,212,24.5,211.6L24.5,211.6z"/>
	<path class="st5" d="M42.8,241.1c1.3,1.5,3.1,2.6,5.1,2.8c2.3,0.3,4.7-0.7,6.6-2.1c2.3-1.6,3.8-4.3,4.8-6.8c1-2.6,0.7-6.4-0.5-8.8
		c-1.4-2.9-4.4-5.1-8.4-4.8c-2.7,0.2-5.5,3.2-7.2,5.2C39.4,231,38.9,236.7,42.8,241.1L42.8,241.1z"/>
	<path class="st3" d="M41.2,233.4c-0.3,2.3,0.3,4.7,1.8,6.2c1.6,1.5,4.1,3,8.3,0.7c4.4-2.4,6.8-8.2,6.8-11.2c0-2.9-1.6-5.9-4.1-6.7
		c-1.8-0.6-3.9-0.1-5.7,0.9C44.7,225.2,41.8,229,41.2,233.4L41.2,233.4z"/>
	<path class="st4" d="M44.9,237.7c2.8,1.9,7-2.7,8.2-4.1c2.8-3.4,4.6-5.9,0.5-8.8c-3.3-2.3-8,0.8-9.9,3.5
		C41.5,231.3,41.3,235.3,44.9,237.7L44.9,237.7z"/>
	<path class="st5" d="M70,189.1c2-0.9,3.8-2.4,4.7-4.4c1.1-2.4,0.8-5.2,0-7.7c-0.9-2.9-3.2-5.4-5.6-7.3c-2.4-1.9-6.5-2.9-9.5-2.4
		c-3.5,0.5-6.8,3-7.8,7.3c-0.7,2.9,1.6,6.8,3.1,9.3C58.2,189.3,64.1,191.8,70,189.1L70,189.1z"/>
	<path class="st3" d="M61.4,188.3c2.3,1.1,5,1.2,7.1,0.1c2.1-1.1,4.5-3.4,3.4-8.6c-1.1-5.5-6.4-9.9-9.5-10.9c-3.1-1-6.7-0.3-8.4,2.2
		c-1.2,1.7-1.4,4.1-1,6.2C53.8,181.8,56.9,186.2,61.4,188.3L61.4,188.3z"/>
	<path class="st4" d="M67.1,185.7c2.9-2.3-0.5-8.3-1.6-10c-2.7-4-4.7-6.9-9.1-3.4c-3.5,2.7-1.9,8.7,0.4,11.6
		C59.3,187.2,63.4,188.7,67.1,185.7L67.1,185.7z"/>
	<path class="st4" d="M81,226.9c1.6,0.7,3.5,0.9,5.2,0.4c2-0.7,3.5-2.4,4.6-4.2c1.2-2.2,1.4-4.9,1.3-7.4c-0.1-2.5-1.8-5.5-3.8-7
		c-2.3-1.8-5.5-2.4-8.7-0.7c-2.1,1.2-3.2,4.7-3.8,7C74.4,220,76.2,224.9,81,226.9L81,226.9z"/>
	<path class="st3" d="M76.8,221.3c0.6,2,2,3.7,3.8,4.3c1.8,0.6,4.5,0.8,7-2.7c2.7-3.7,2.4-9.3,1.3-11.7c-1.1-2.4-3.5-4.2-5.9-3.9
		c-1.7,0.2-3.2,1.4-4.3,2.9C76.4,213.2,75.6,217.5,76.8,221.3L76.8,221.3z"/>
	<path class="st4" d="M81.4,223.3c3,0.5,4.7-4.9,5.1-6.5c1-3.8,1.5-6.6-3-7.3c-3.6-0.6-6.2,3.7-6.7,6.6
		C76.2,219.5,77.6,222.7,81.4,223.3L81.4,223.3z"/>
</g>
</svg>
