<?xml version="1.0" encoding="UTF-8"?>
<!DOCTYPE svg PUBLIC "-//W3C//DTD SVG 1.1//EN" "http://www.w3.org/Graphics/SVG/1.1/DTD/svg11.dtd">
<!-- Creator: CorelDRAW -->
<svg xmlns="http://www.w3.org/2000/svg" xml:space="preserve" width="512px" height="512px" version="1.1" style="shape-rendering:geometricPrecision; text-rendering:geometricPrecision; image-rendering:optimizeQuality; fill-rule:evenodd; clip-rule:evenodd"
viewBox="0 0 512 512"
 xmlns:xlink="http://www.w3.org/1999/xlink">
 <defs>
  <style type="text/css">
   <![CDATA[
    .fil4 {fill:#3B93A7}
    .fil1 {fill:#49B5CF}
    .fil3 {fill:#A7433B}
    .fil5 {fill:#CB8B12}
    .fil0 {fill:#CE5248}
    .fil2 {fill:#FBAB16}
   ]]>
  </style>
 </defs>
 <g id="Layer_x0020_1">
  <metadata id="CorelCorpID_0Corel-Layer"/>
  <g id="_318461728">
   <path class="fil0" d="M256 233c-1,0 -2,0 -3,0l-208 -115c-2,-1 -4,-4 -4,-6 0,-3 2,-5 4,-6l208 -105c2,-1 4,-1 6,0l208 105c2,1 4,3 4,6 0,2 -2,5 -4,6l-208 115c-1,0 -2,0 -3,0z"/>
   <path class="fil1" d="M256 512l0 -279 201 -121c0,-4 3,-7 7,-7 0,0 0,0 0,0 4,0 7,3 7,7l0 285c0,2 -2,5 -4,6l-208 108c-1,1 -2,1 -3,1z"/>
   <path class="fil2" d="M256 512c-1,0 -2,0 -3,-1l-208 -108c-2,-1 -4,-4 -4,-6l0 -285c0,-4 3,-7 7,-7 0,0 0,0 0,0 4,0 7,3 7,7l201 121 0 279z"/>
  </g>
  <g id="_318460384">
   <path class="fil3" d="M189 198l-14 -8 0 -4c0,-3 2,-5 4,-6l43 -22 -55 -30 -47 24 0 7 -14 -7 0 -5c0,-2 1,-5 3,-6l43 -21 -64 -36 15 -7 64 35 35 -18 -64 -35 16 -8 64 35 41 -21 -64 -35 15 -8 64 36 47 -26 15 8 -47 26 56 30 50 -27 15 8 -50 27 55 30 0 0 0 0 0 1c1,0 1,0 1,0l0 0 0 0 0 0 0 0 0 0 0 0 0 0 0 0 1 0 0 0 0 0c0,1 0,1 0,1l0 0 0 0 1 0 0 0 0 1 0 0 0 0 0 0 0 0 0 0 0 0 0 0 0 0 0 0c1,1 1,2 1,3l0 0 0 0 0 0 0 0 0 0 0 0 0 1 0 0 0 4 -14 7 0 -7 -61 -33 -41 20 59 32 0 0 0 0 0 0 0 0 0 0 0 0 0 0 0 0 0 0 0 0 0 0 1 0 0 0 0 1c0,0 1,0 1,1l0 0 0 0 0 0 0 0 0 0 0 0 0 0 0 0 0 1c1,0 1,1 1,2l0 0 0 0 0 0 0 0 0 1 0 0 0 0 0 0 0 0 0 0 0 0 0 0 0 4 -14 8 0 -8 -63 -34 -36 18 59 32c2,1 3,2 4,4 1,1 1,3 1,4l0 3 -14 8 0 -8 -65 -35 -48 24 0 8zm140 -94l-56 -31 -40 21 55 30 41 -20zm-92 46l36 -18 -56 -30 -35 18 55 30z"/>
   <path class="fil4" d="M256 424l0 -15 46 -24 0 -83 -43 22 0 0 0 0 0 0c-1,1 -2,1 -3,1l0 -15 46 -23 0 -81 14 -9c0,1 0,1 0,1l0 81 35 -18 0 -85 14 -8c0,0 0,1 0,1l0 0 0 0 0 0 0 0 0 1 0 0 0 0 0 0 0 0 0 0 0 0 0 0 0 84 40 -20 0 -89 -1 -1 13 -8 0 0 0 0 0 0 1 0 0 0 0 1 0 0 0 0 0 0 0 0 0 0 0 0 0 0 0 0 0 0c1,1 1,2 1,3l0 0 0 0 0 0 0 0 0 0 0 0 0 1 0 0 0 85 52 -28 0 16 -52 28 0 83 52 -26 0 16 -52 26 0 87 -14 7 0 -87 -40 20 0 88 -14 7 0 -87 -35 18 0 87 -14 8 0 -88 -43 22 0 0 0 0 0 0 0 0 0 0c-1,1 -2,1 -3,1zm60 -46l35 -18 0 -83 -35 18 0 83zm49 -25l40 -21 0 -83 -40 21 0 83z"/>
   <path class="fil5" d="M187 477l-14 -8 1 -86 -56 -28 -1 85 -14 -7 1 -85 -63 -33 0 -16 63 34 1 -83 -64 -31 0 -15 64 31 1 -88c0,-1 0,-3 1,-4l13 8 0 1 -1 90 56 28 0 -84c0,-1 0,-1 0,-1l14 8 -1 84 68 33 0 0 0 15 0 0c-1,0 -2,0 -3,0l-65 -33 0 83 68 34 0 0 0 15 0 0c-1,0 -2,0 -3,-1l-65 -33 -1 87zm-13 -109l0 -83 -55 -28 -1 83 56 28z"/>
  </g>
 </g>
</svg>
