<?xml version="1.0" encoding="UTF-8" standalone="no"?> <svg xmlns="http://www.w3.org/2000/svg" viewBox="0 0 48 48"><defs><style>.cls-1{fill:#ffd188;}.cls-2{fill:#fbaf77;}.cls-3{fill:#009ae0;}.cls-4{fill:#0081bd;}.cls-5{fill:#00cf66;}.cls-6{fill:#00b157;}</style></defs><title>Relationship</title><g id="_11_-_20" data-name="11 - 20"><g id="Relationship"><path class="cls-1" d="M23.13,38.015l1.928,1.76a2.182,2.182,0,0,0,3.1-.146,2.2,2.2,0,0,0-.147-3.091l.7.641a2.191,2.191,0,0,0,3.095-.141h0a2.19,2.19,0,0,0-.14-3.094l1.3,1.185a2.191,2.191,0,0,0,3.095-.14h0a2.191,2.191,0,0,0-.14-3.095,2.735,2.735,0,0,0,2.107-1.042c.96-1.122.547-1.816.547-1.816L37.769,21.1,23.5,14.03l-6.232-.778a8.816,8.816,0,0,0-3.954.416L10.09,14.8,7.238,13.679,2,23.108,4.1,24.815l.021.032,3.426,4.536Z"/><path class="cls-2" d="M42.616,24.145l-4.023,5.06-.017-.169a2.176,2.176,0,0,0-.687-1.278l-9.508-8.187-7.392,3A2.984,2.984,0,0,1,17.282,21.3h0a2.986,2.986,0,0,1,1-4.02l4.68-2.939A8.766,8.766,0,0,1,27.618,13h3.457a8.764,8.764,0,0,1,3.254.627l3.78,1.512,2.653-1.46L46,22.06Z"/><path class="cls-2" d="M13.576,28.985l-2.567,3.059a2.1,2.1,0,0,1-2.954.262l-.146-.126a2.094,2.094,0,0,1-.367-2.8,1.423,1.423,0,0,1,.115-.157l2.567-3.059a2.094,2.094,0,0,1,2.954-.262l.147.126A2.1,2.1,0,0,1,13.576,28.985Z"/><path class="cls-2" d="M17.641,30.954l-.545.66c-.052.063-.105.116-.157.178l-2.577,3.07a2.091,2.091,0,0,1-2.944.251L11.271,35a2.1,2.1,0,0,1-.262-2.954l2.567-3.059.713-.838a2.081,2.081,0,0,1,2.943-.262l.147.126A2.081,2.081,0,0,1,17.641,30.954Z"/><rect class="cls-2" x="13.236" y="32.545" width="8.187" height="4.381" rx="2.095" transform="translate(-20.419 25.683) rotate(-50)"/><rect class="cls-2" x="16.788" y="35.781" width="7.092" height="4.381" rx="2.095" transform="translate(-21.824 29.14) rotate(-50)"/><rect class="cls-3" x="38.506" y="9.975" width="6.493" height="16.671" rx="2" transform="translate(-3.562 23.329) rotate(-30)"/><path class="cls-4" d="M44.841,26.153,47,24.906a2,2,0,0,0,.732-2.732l-1.755-3.04L40.354,22.38l1.755,3.041A2,2,0,0,0,44.841,26.153Z"/><rect class="cls-5" x="-2.088" y="15.064" width="16.671" height="6.493" rx="2" transform="translate(-12.734 14.566) rotate(-60)"/><path class="cls-6" d="M3.159,26.153,1,24.906a2,2,0,0,1-.732-2.732l1.755-3.04L7.646,22.38,5.891,25.421A2,2,0,0,1,3.159,26.153Z"/></g></g></svg>