<?xml version='1.0' encoding='utf-8'?>
<svg xmlns="http://www.w3.org/2000/svg" width="1481px" height="1058px" version="1.1" viewBox="-204 500 1481 1058"> <g fill="#f3c869"> <path d="m-204 499.12c-0.23355 0-0.45755 0.09278-0.6227 0.25793-0.16514 0.16515-0.25793 0.38915-0.25793 0.62271l1e-3 1058c0 0.4863 0.39428 0.8806 0.88064 0.8806l1481 1e-3c0.2335 0 0.4575-0.0928 0.6226-0.258 0.1652-0.1651 0.258-0.3891 0.258-0.6226l-1e-3 -1058c0-0.48637-0.3943-0.88062-0.8806-0.88062l-1481-0.00103z"/> </g> <g fill="#fdb153"> <path d="m305.16 1189.6 42.327-8.0642 29.849-1.1681 37.14-16.994 30.473 24.586 26.749 13.124 8.3938 21.6 26.142 6.8898 13.381 18.253 24.505 0.2586 11.883-20.099 32.696 3.0445 11.554 20.78-114.74 188.95-267.76-134.47 87.412-116.7"/> </g> <g fill="#f29b4b"> <path d="m358.72 1313.7 43.108-7.5978 26.555 15.132 16.886-15.099 49.394 4.0181 22.421-14.714 33.571-5.4288 10.421-18.667 15.594-10.02 1.0475-11.661 14.94-11.016 5.84-26.848 21.514-4.1432 14.632 6.0792 9.0145-10.66 17.483 10.676 8.8688 11.894 11.852-5.2454 20.414 15.216q33.924-18.476 85.408-32.217l43.283 9.5103 42.871 4.966q11.844-9.8834 15.008-6.8284 9.3711 6.0957 3.6492 61.185-3.0525 41.261-29.388 218.24l-577.64 8.2342 73.249-185"/> </g> <g fill="#af5c3e"> <path d="m159.62 917.27q-6.2501 0-12.986 1.8192l-70.139 36.432q-5.5303 3.1053-20.572 6.2491-2.1213 1.0895-7.0866 1.0895-15.248 0-57.316-10.274-2.2307-0.1962-4.3357-0.1962-6.4954 0-11.794 1.8676l-15.278 8.3288q-33.873 32.526-39.447 32.526-0.67029 0-0.93137-0.47037-22.011-7.0933-60.045-7.0933-27.959 0-64.577 3.833l0.00259 566.62c0 0.4863 0.39428 0.8806 0.88064 0.8806l1481 1e-3c0.2335 0 0.4575-0.0928 0.6226-0.258 0.1652-0.1651 0.258-0.3891 0.258-0.6226l-3e-4 -266.82-471.65-14.257q-4.7806 0.197-8.9524 5.7569-26.854 65.319-43.127 76.126-8.3213 6.7317-15.089 6.7317-1.9729 0-3.8138-0.5721-6.7555-0.5273-33.085-18.349-3.5646-1.5006-6.432-1.5006-2.7343 0-4.8346 1.3645-3.3415 0.4496-10.391 15.522l-22.223 59.637q-2.605 6.5866-11.147 17.03-11.255 13.351-33.996 13.351-8.3783 0-18.316-1.8121-38.085-8.4174-57.043-19.652-9.3274-3.2863-58.628-47.288-11.88-9.453-23.555-14.41-5.1616-3.3369-18.174-3.3369-11.336 0-28.629 2.5321-5.2837-0.4181-8.7397-4.6127l-15.117-83.002q-1.1432-8.0528-36.266-18.815-11.113-9.2652-12.726-14.298l-36.537-129.74q-2.2285-16.255-43.795-52.203 2.311-66.103-5.517-68.089-55.587-69.665-68.603-73.544-10.069-6.4822-21.867-6.4822z"/> </g> <g fill="#0b1527"> <path d="m761.13 499.12q-1.7538 48.125 6.162 83.637 0.491 7.1075 13.895 39.368 53.98 99.27 51.188 99.391 10.835 31.769 10.314 38.707 1.8483 6.0792 1.3975 41.764-8.1905 93.052-5.7562 142.43-2.01 24.905 29.891 228.06 4.725 43.591 3.5721 46.94-0.4449 23.584-6.9548 37.633-29.734 45.614-52.755 122.24-22.582 77.576-46.956 179.59l511.87 4e-4c0.2336 0 0.4575-0.0928 0.6228-0.2579 0.165-0.1652 0.2578-0.3892 0.2578-0.6227l-1e-3 -1058c0-0.48637-0.3943-0.88063-0.8806-0.88063l-515.86-3.7e-4z"/> </g> <g fill="#2f3543"> <path d="m-204.88 1140.3 4e-4 417.69c0 0.4864 0.39427 0.8806 0.88063 0.8806l732.17 5e-4q-37.748-29.572-70.959-41.063-18.313-6.1511-40.847-7.1024-1.9514-0.348-8.3826-0.348-16.98 0-65.189 2.4257-0.6512 0.0051-1.2957 0.0051-8.5704 0-15.952-0.8877-16.136-1.9806-23.546-9.6386-3.5234-1.3871-10.483-18.647-9.1182-49.088-19.233-60.506-1.3051-3.7907-18.074-14.012-10.98-5.5324-38.126-15.678-7.3947-3.1096-13.517-7.0237-13.578-10.952-13.62-14.985-2.4212-2.3297-4.6663-21.38 1.4214-56.218-0.01792-61.233 0.53327-4.7955-6.1041-24.865-10.885-29.699-47.65-51.952-21.64-11.483-51.079-11.483-15.376 0-32.879 3.1323-52.661-48.034-92.924-51.522-22.581-6.7283-158.5-11.804z"/> </g> <g fill="#f29b4b"> <path d="m355.97 1313.1 1.6554 1.1748q-0.10854-0.1038-0.25044-0.2194-0.14188-0.1156-0.31711-0.2432l-0.18353-0.1306q-0.38199-0.2669-0.90436-0.5816"/> </g> <g fill="#fdfdfd"> <path d="m541.49 1008.1-0.3035 4.6958q-2.2083 14.194-13.081 22.73-10.948 8.5287-25.82 6.9612-14.194-2.2084-22.73-13.081-2.7349-3.5148-4.5104-7.6633l-1.4943-4.2659q-1.2337-4.4038-1.26-9.1947 0.33246-14.704 10.07-24.492 9.7374-9.7886 24.439-10.198 14.704 0.3324 24.492 10.07 9.7885 9.7374 10.198 24.439"/> </g> <g fill="#0b1527"> <path d="m721.37 500.36c-0.2253 0.1687-0.41575 24.997-0.4419 55.062-0.03727 43.126-0.2164 54.893-0.7235 55.343-0.3944 0.3375-1.4643 0.67443-2.3653 0.78625-1.3512 0.11135-1.802 0.5614-2.4793 2.475-0.7903 2.1952-0.7905 2.4766 0.446 4.9548 0.6744 1.4645 1.855 3.3796 2.6424 4.2813 1.2936 1.5775 1.2934 1.7465 0.7264 6.3626-0.3969 3.2088-0.3993 6.0237-0.0075 8.6139 0.3356 2.5902 0.32894 10.303-0.01963 22.746-0.57892 18.354-1.2215 45.152-2.3344 94.864-1.1135 50.557-2.0392 79.438-2.9518 92.894-0.74105 10.584-0.34603 9.4581-5.5295 13.845-1.3522 1.1811-1.747 1.9691-1.7483 3.4892-1e-3 1.126-0.56555 2.9272-1.1858 4.0526-1.0148 1.6317-1.1282 2.5324-0.84865 4.8411 0.2238 1.5765 0.78487 3.8291 1.2342 5.0118 1.1236 2.816 0.33393 4.5043-2.0307 4.5023-0.90075-8e-4 -1.8013-0.2831-2.0262-0.6211-0.22486-0.3943-2.0264-0.5085-5.5174-0.2301-3.8849 0.2782-5.799 0.1639-7.9378-0.5135-1.5197-0.50805-3.4335-0.90374-4.1091-0.90435-0.73187-6.1e-4 -2.0265-0.45221-2.8141-1.0722-0.844-0.56375-3.2639-1.6918-5.4026-2.5946-3.2644-1.2413-5.0657-1.5808-10.696-1.8109-3.772-0.1722-7.1496-0.5692-7.4872-0.85096-0.50636-0.39459-0.61792-1.577-0.39086-3.7724 0.3404-2.871 0.2282-3.3778-1.1779-5.0117-1.6874-1.9721-1.6862-3.3233 0.00363-4.2789 7.7732-4.3285 11.323-7.7034 10.65-10.181-0.3367-1.2952-3.487-4.2256-4.5566-4.2265-1.0134-9.3e-4 -2.419-2.3104-2.4174-3.9431 7e-4 -0.9008-0.67386-2.1401-1.7426-3.1543-0.95636-0.90166-2.25-2.3103-2.8687-3.2116l-1.1247-1.5212 1.4655-1.7439c2.1416-2.5316 1.3542-3.5458-3.7121-4.3947-2.2517-0.39606-4.6723-0.8485-5.4041-0.9618-0.788-0.1696-1.5756-0.9584-2.0813-2.0849-0.3932-1.0137-1.4617-2.4785-2.3617-3.2675-1.9127-1.8034-7.4835-5.1299-11.029-6.653-1.4632-0.6205-2.6448-1.4098-2.6446-1.6912 2.5e-4 -0.28155 0.62045-1.2944 1.4094-2.1946 1.6344-1.9129 1.862-4.6714 0.51186-5.9674-0.44996-0.50717-0.9563-0.90174-1.0689-0.90187-0.11261-5e-5 -1.2394 0.8435-2.4788 1.9122-1.3522 1.1248-3.7179 2.3614-5.5762 2.8664-1.7459 0.50526-5.2374 1.7409-7.7156 2.8085-2.4782 1.0111-5.8573 2.2468-7.4905 2.7521-3.9419 1.1226-6.1388 2.5282-9.2383 5.8472-3.2121 3.4316-5.1856 6.808-6.9352 11.873-1.129 3.3208-1.3557 5.1222-1.36 10.02 0.05145 5.63 0.61175 8.6145 1.7378 8.6154 0.28149 3e-4 0.84375 0.8451 1.2932 1.9152 0.44954 1.0138 1.4615 2.7038 2.3052 3.6615 2.6434 3.1552 11.59 8.9057 18.231 11.726 6.4159 2.7081 9.5668 4.9065 9.5653 6.5955-3.4e-4 0.5067-1.0151 2.026-2.2549 3.3762-2.5359 2.7566-2.7619 3.6572-1.1304 5.1224 1.6313 1.4651 1.4616 2.4784-1.4149 8.3875-5.5275 11.593-6.7206 24.147-3.4097 36.649 1.964 7.4331 5.8411 16.276 8.7092 19.994 3.3742 4.3381 7.8723 11.267 10.627 16.336 3.485 6.3649 6.4092 10.252 9.8411 13.07 2.0254 1.7472 2.5876 2.6485 3.0924 4.9572 1.1214 5.1805 3.5398 8.2229 8.3234 10.366 2.9264 1.2974 3.2636 2.086 2.1346 5.463-0.5643 1.5759-0.8479 3.9966-0.7371 5.9672 0.1662 3.153 0.22235 3.3219 2.3046 4.2808 2.3637 1.1845 2.5882 2.0855 1.0099 4.2236-1.4094 2.0818-2.2021 7.317-2.5484 17.113-0.23105 6.8121-0.11985 8.3885 0.55515 8.9522 0.6752 0.5635 1.1256 0.4514 2.3651-0.4485 1.5212-1.1243 1.5212-1.1807 1.8101-9.7944l0.2891-8.6701 1.2351 3.942c0.67383 2.1402 2.2455 7.6026 3.5365 12.052 2.8063 9.9676 4.2114 12.727 9.4429 18.024 4.5 4.6204 4.6683 5.2398 2.8631 9.4608-3.0461 6.8659-6.7176 20.544-6.7213 24.823-8e-4 0.8445-0.9029 2.3638-2.199 3.77-2.6486 2.8692-5.6398 11.424-7.3936 21.106-1.0183 5.6292-1.1328 7.8811-0.85987 17.734 0.43677 15.652 0.15627 14.582 4.6583 16.838 6.4717 3.271 15.42 6.9946 18.966 7.8985 4.672 1.1865 17.395 1.704 24.096 1.0344 9.1215-1.0054 13.797-3.76 16.73-9.8379 1.7483-3.5457 1.9748-5.0093 2.8283-15.48 0.51255-6.6992 0.4565-6.9807-0.83584-9.8532-0.78686-1.5772-1.4042-3.8858-1.4031-5.1245 0.00157-1.8579-0.392-2.534-2.6983-4.7879-1.8564-1.8032-3.2058-3.8313-4.3294-6.5344-3.034-7.2654-6.0708-11.266-10.123-13.352-2.5886-1.3533-2.9261-1.6914-3.6557-4.3943-0.6733-2.5906-1.7889-14.584-1.3944-15.202 0.62036-1.0129 2.7017 0.9031 9.1694 8.7344 3.5996 4.3384 8.6614 10.254 11.249 13.128 6.0184 6.8179 8.6052 10.31 11.247 15.098 1.5176 2.8728 2.4738 3.9431 3.4308 4.0566 1.6326 0.2266 4.1668-0.7847 5.4632-2.1909 0.5072-0.5625 1.4084-1.0686 1.9151-1.0681 1.126 1e-3 15.808 14.821 16.988 17.186 1.2928 2.4785 2.0221 5.4067 2.9733 12.389 2.1259 15.541 4.2014 24.156 7.6857 31.704 3.3152 7.3218 12.988 20.448 23.787 32.224 11.643 12.734 20.528 25.409 20.524 29.238-5.3e-4 0.6758-0.62065 1.576-1.353 2.0257-1.5772 1.0686-4.2832 4.9507-4.2842 6.1331-4.6e-4 0.5068-0.9023 1.7446-1.9731 2.8132-1.4651 1.5188-1.9726 2.4756-1.9739 3.9394-0.00133 1.6326 0.44843 2.365 3.1488 4.732 1.6877 1.5214 5.1764 3.9455 7.7086 5.4116 4.5017 2.5935 4.7268 2.6501 8.1051 2.3152l3.4912-0.3345 5.2325 3.7764c8.3836 6.0879 14.462 8.4577 22.963 9.0283 5.2918 0.3987 10.923-1.0603 12.558-3.2544 1.2965-1.7444 2.031-4.8965 2.0907-8.7249l0.0026-2.8713-2.3638-0.9028c-1.351-0.4517-3.3772-1.1289-4.5029-1.4678-1.9137-0.5647-5.5139-4.0022-5.5129-5.1843 2.4e-4 -0.2815-0.3933-0.9014-0.8995-1.4646-0.50627-0.5074-2.1372-2.5918-3.6555-4.6199-2.9805-3.9436-2.9805-3.9436 0.79236-4.7285 1.802-0.3926 1.9718-1.4622 0.45284-2.8145-0.78755-0.7326-1.8572-0.959-3.9967-0.8481-3.716 0.2219-4.2783-0.6231-2.9803-4.169 1.0157-2.7014 0.7356-4.3345-0.67195-4.3357-0.50664-4e-4 -2.3089 0.6736-3.9986 1.5166-1.6897 0.7869-3.0976 1.3487-3.2101 1.2359-0.1125-0.1126-2.6433-3.324-5.6239-7.0987-2.9807-3.7746-6.5797-8.6196-7.9292-10.704-3.036-4.788-9.7243-18.025-10.004-19.883-0.22364-1.6325-0.44887-1.6328 7.883-0.8938 5.6858 0.4554 5.7984 0.4554 7.8829-1.0066 2.704-1.8554 3.3796-1.8547 9.5146 0.1773 10.019 3.2742 16.662 3.5613 25.503 1.0359l4.2236-1.2351 0.11616-4.1099c0.11534-3.209-0.10856-4.6728-0.9516-6.3628-1.2927-2.4783-2.1368-3.042-5.627-3.5517-5.0665-0.7928-9.8498-3.105-15.195-7.3885-2.0256-1.5783-4.2199-3.2693-4.8951-3.7204-1.9695-1.1839-2.0249-2.1975-0.39015-4.5606 1.4656-2.082 1.522-2.1943 0.45295-2.9836-1.4626-1.127-2.7014-1.0154-3.885 0.2781-2.1414 2.3628-3.7165 0.8413-5.2877-5.0713-2.6377-9.7989-3.0736-26.408-1.0877-44.197 0.62451-5.9108 1.3664-17.564 1.6552-25.896 0.46289-14.3 1.3144-22.519 2.838-26.459 1.0157-2.645 1.3026-8.9505 0.63053-13.005-1.6806-9.5725-6.1813-13.574-20.872-18.428-6.9792-2.3145-17.222-6.3206-18.967-7.5044-0.9566-0.62014-1.2937-1.3523-1.2923-2.985 0.00206-2.421-0.61666-3.1534-3.0933-3.7185-0.95691-0.22615-5.1223-1.3558-9.2874-2.5417-4.1652-1.1859-9.006-2.4288-10.695-2.7681-1.6887-0.33926-4.447-0.84836-6.0793-1.1876-1.6325-0.28276-3.9405-0.5663-5.1793-0.56743-1.1822-0.00107-2.3081-0.22717-2.4768-0.45257-0.1687-0.2816 2.426-5.9095 5.7536-12.55 9.3619-18.515 14.215-31.854 17.269-47.221 4.0712-20.265 3.6977-44.024-1.0659-69.251-0.78467-4.1668-1.6811-9.1783-2.0734-11.149l-0.6163-3.4911 2.6484-2.7003c1.5215-1.5752 3.3254-4.2196 4.3972-6.5833 0.959-2.1949 2.1432-4.3896 2.594-4.8958 0.6199-0.67515 0.73324-1.4632 0.45266-2.5332-0.16821-0.84465-0.33546-2.7027-0.27802-4.054 0.0578-1.7452-0.27904-2.8152-1.0665-3.6605-0.6188-0.61974-1.1805-2.084-1.2921-3.1538-0.11127-1.5766-0.5049-2.1398-2.0244-2.8168-1.0693-0.5075-1.9692-1.4091-2.1375-2.2538-0.67334-2.5904-1.9675-3.4924-4.2761-3.1564-1.7456 0.2799-2.1396 0.16695-2.139-0.565 7e-4 -0.7882-0.4496-0.9012-2.7581-0.67796l-2.7026 0.27916-1.1779-5.1244c-0.67306-2.8156-4.6-19.09-8.8078-36.096-4.1515-17.063-9.9862-40.714-12.904-52.652-2.9174-11.938-8.4714-34.632-12.342-50.4-3.871-15.824-8.5836-35.083-10.491-42.854l-3.422-14.134 1.2408-2.5888c0.95875-2.026 1.1851-3.3208 1.0752-6.4174-0.1657-3.6033-0.2218-3.8285-1.5729-3.9986-0.78808-0.11329-1.576-0.39551-1.8011-0.62092-0.2251-0.16918-0.4851-24.885-0.5155-54.837-0.1275-47.687-0.2342-54.556-0.96566-55.007-1.0129-0.62012-2.4767-0.73412-2.9838-0.17152zm9.8275 158.95c3.2539 13.177 10.042 40.883 15.148 61.662 5.049 20.723 11.557 47.246 14.362 58.847 2.8612 11.6 6.7322 27.537 8.696 35.421l3.5343 14.36-1.7481 3.3765c-2.143 3.9955-2.5978 9.1748-1.3641 14.918 0.39233 2.0272 0.67193 4.2232 0.50244 4.8986-0.84857 4.5596-15.328 16.483-26.875 22.159-3.7175 1.8546-9.2937 4.7212-12.392 6.4074-4.2245 2.3048-6.252 3.0912-7.9973 3.0897-1.3514 0.05506-2.4209-0.171-2.4207-0.39624 2.6e-4 -0.28156 1.0145-1.2941 2.1978-2.2501 1.4084-1.1248 2.3667-2.4753 2.5929-3.601 0.22608-1.0132 0.84684-2.7017 1.2981-3.6584 0.84597-1.7446 0.7898-1.9698-0.33476-3.5472-0.67494-0.9014-1.2365-2.4783-1.2355-3.548 8.6e-4 -1.0134-0.27966-2.1396-0.67346-2.5341-0.50624-0.50715-0.50574-1.1264 0.0586-2.646 1.0159-2.8142 0.11626-4.2224-2.6987-4.2249-1.1824-0.00104-2.4206-0.33994-2.7582-0.73434-0.44986-0.5071-0.50363-3.4911-0.10355-10.303 0.62879-10.978 1.502-44.082 2.3268-86.363 0.352-16.27 0.8787-39.466 1.1707-51.514 1.1063-42.337 1.3428-55.23 1.2366-62.605-0.16164-8.4452 0.34996-14.131 1.1366-12.273 0.28096 0.6196 3.1427 11.882 6.3404 25.059zm51.385 214.32c0.6168 2.8155 1.793 10.023 2.6322 16.048 1.3429 9.6287 1.5656 12.613 1.5542 25.562-0.01903 22.07-2.3388 35.186-9.6749 54.772-4.345 11.425-16.301 35.286-17.765 35.285-0.3941-3.6e-4 -1.3503-1.0709-2.081-2.4228-1.9675-3.5486-3.3747-4.0003-6.5854-2.1452-1.5772 0.95573-2.9851 1.4049-3.6605 1.1792-0.5629-0.16937-1.5764-0.00141-2.1961 0.39223-1.7462 1.0682-2.8151 0.1665-5.2323-4.3398-2.2483-4.2808-3.3171-5.3514-7.3689-7.438l-2.7574-1.3535 0.39678-3.0962c0.22699-2.083 0.17176-3.3779-0.27814-3.9414-0.56243-0.61973-0.5622-0.95753 0.0014-1.6327 0.90174-1.0689 1.1296-4.2215 0.39894-5.6297-0.28094-0.61954-2.2492-3.1546-4.3302-5.6338-5.8492-6.9864-6.9174-8.7326-9.839-15.604-1.5171-3.492-3.3153-7.3783-4.0462-8.6175-3.3731-5.7457-3.3174-5.1264-1.0039-11.036 3.3856-8.7236 1.0766-7.8248 19.712-7.8086l16.046 0.0139 1.8602-2.6445c0.95831-1.463 2.8747-3.8821 4.171-5.4575 6.9322-8.2701 8.9614-11.027 15.275-20.536 3.7772-5.6831 6.8782-10.86 6.8788-11.535-0.05579-0.6757-0.39255-1.8019-0.84229-2.5906-0.95566-1.6335-1.0661-4.2798-0.27736-4.7859 0.28164-0.16858 2.0854-2.5879 4.0019-5.3451 1.9166-2.8134 3.6076-4.9512 3.7201-4.8948 0.1125 0.11275 0.6734 2.4778 1.2904 5.2372zm-76.389 52.687c0.9566 0.6764 0.95645 0.84534 0.0537 3.0966-0.5642 1.2944-1.1844 2.3636-1.4096 2.3634-0.6193-5e-4 -2.3603-4.9564-1.9656-5.6318 0.5073-0.78775 2.14-0.7301 3.3215 0.17175zm99.254 134.81c1.6885 0.5645 3.5454 1.6921 4.1078 2.4807 1.0121 1.4085 1.012 1.521-0.90766 7.8814-2.5975 8.8366-3.39 13.79-3.3966 21.391-0.00703 8.1072 1.1697 14.583 4.4825 24.889 3.4813 10.756 4.3792 14.192 6.7337 25.792 2.4666 12.276 2.852 22.354 1.1018 27.87-0.56455 1.8574-1.1862 4.6155-1.3003 6.1919-0.45459 4.7851-2.0309 4.7275-3.7721-0.1724-0.56154-1.4641-1.5726-4.0547-2.3032-5.7446-0.73045-1.6895-1.7416-4.3928-2.3032-5.9136-0.5054-1.5766-2.9216-6.8711-5.4508-11.828-2.4729-4.9566-4.8331-10.026-5.2824-11.265-0.5055-1.4079-1.0083-6.0815-1.2841-12.556-0.44196-9.7403-0.88989-12.612-2.4072-15.879-0.33716-0.7884-3.4293-5.7454-6.8591-10.984-9.8394-15.153-10.964-16.956-10.963-17.576 2e-4 -0.2814 0.62037-1.238 1.4093-2.0817 0.7889-0.8438 1.4089-1.6878 1.4092-1.9693 2e-4 -0.2253-1.3499-1.5776-2.9813-2.9865-2.8129-2.4234-11.249-12.846-11.979-14.761-0.56166-1.5205 1.071-1.519 5.6865-0.051 2.4765 0.7903 4.8968 1.4116 5.3473 1.4121 0.50673 3e-4 1.8025-1.1245 2.986-2.4748 1.1272-1.4065 2.6484-2.6439 3.3241-2.7559 0.732-0.1682 5.8555-0.22 11.429-0.159 8.3888 0.1202 10.64 0.3472 13.173 1.2503zm-118.29 5.5271c1.8568 1.2966 2.25 2.3103 3.2016 8.7292 0.44756 3.2095 1.1192 7.7142 1.5115 9.9666 0.72753 5.0115 0.61486 5.1802-4.4522 5.1758-1.9143-0.0017-4.7295 0.2773-6.3063 0.6701-1.5766 0.3365-3.0406 0.4478-3.2656 0.2786-0.5625-0.5635 0.96544-9.6828 2.3771-14.523 1.3551-4.4466 4.5137-11.2 5.2457-11.199 0.22514 3e-4 1.013 0.3948 1.6882 0.9024zm10.467 5.4138c0.50535 1.5769 0.83395 12.274 0.38349 12.274-0.2815-2e-4 -0.6742-1.6895-0.84119-3.8291-0.22339-2.0833-0.50245-4.9548-0.66998-6.4748-0.22367-1.7457-0.11027-2.6463 0.28383-2.646 0.394 2e-4 0.73155 0.3383 0.84385 0.6762zm2.5736 18.807c-3.6e-4 0.4504-0.3948 0.7878-0.8452 0.7873-0.563-5e-4 -0.844-0.5637-0.8432-1.4646 1e-3 -1.2385 0.1138-1.4072 0.84514-0.7873 0.45006 0.3945 0.84363 1.0705 0.84326 1.4646z"/> </g> </svg>