<?xml version='1.0' encoding='utf-8'?>
<svg xmlns="http://www.w3.org/2000/svg" width="100mm" height="100mm" clip-rule="evenodd" fill-rule="evenodd" image-rendering="optimizeQuality" shape-rendering="geometricPrecision" text-rendering="geometricPrecision" version="1.1" viewBox="0 0 1e4 1e4"> <defs> <style type="text/css">.fil5 {fill:#262E3F} .fil3 {fill:#3D4B66} .fil6 {fill:#475377} .fil8 {fill:#475776} .fil7 {fill:#53638D} .fil1 {fill:#56698F} .fil4 {fill:#5F73A3} .fil2 {fill:#7587AE} .fil0 {fill:url(#a)}</style> <linearGradient id="a" x2=".04" y1="1e4" gradientUnits="userSpaceOnUse"> <stop stop-color="#7587AE" offset="0"/> <stop stop-color="#262E3F" offset="1"/> </linearGradient> </defs> <rect class="fil0" width="1e4" height="1e4"/> <path class="fil1" d="m1e4 1e4v-4643.3c-599.65-18.02-1104.2 241.69-1789.2-38.12-362.87 164.97-845.57-227.05-1124-234.97-156.69 198.16-312.17 255.07-390.53 430.38-397.52 20.05-1145.5-155.5-1179.5-269.4-414.13-97.21-791.43-796.35-1041.1-845.78-120.18 184.98-215.32 181.31-296.03 283.69-230.07-184.94-230.93-316.33-444.86-407.52-62.46-301.84-422.54-620.25-608.59-620.25-171.42 301.67-940.09 611.45-1092.3 815-346.72 463.68-1444.4 1029.4-1497.7 1287.1-88.89 18.38-316.31 67.3-536.1 92.87v4150.4h1e4z"/> <path class="fil2" d="m-0 6374.6c73.42-90.04 139.01-166.25 155.53-177.84 301.75-211.56 87.11-360.38 299.74-423.21-111.54 22.78-285.68 56.4-455.27 76.13v524.92z"/> <path class="fil2" d="m3016.5 5655.6c204.79 63.62 379.19 34.61 605.15 137.35 172.8 78.57 258.85-90.77 50.01 148.17-178.27 203.97 490.43-17.18 243.95 328.89-130.35 183.05 567.29 103.98 194.48 306.42-196.76 106.86 256.71 88.12 274.69 311.71 12.26 152.43 354.05 154.28 224.65 345.04-9.01 13.27 302.83 35.66 313.29 80.98 48.11 12.37 204.68 231.53 277.87 166.78 29.83-10.31 112.6-145.82 112.74-146.59 57.42-339.1 534.73-720.41 535.55-723.98 104.65-453.45 470.36-404.25 608.07-703.86 159.91-347.92 69.85-118.72 239.21-392.52-397.52 20.05-1145.5-155.5-1179.5-269.4-414.13-97.21-791.43-796.35-1041.1-845.78-120.18 184.98-215.32 181.31-296.03 283.69-230.07-184.94-230.93-316.33-444.86-407.52-62.46-301.84-422.54-620.25-608.59-620.25 218.75 593.3-96.88 147.45-1.62 519.86 19.91 77.77 43.41 294.36 111.94 307.22 0 112.23-504.02 67.43 106.65 251.64 25.14 7.58 281.42 134.27 256.14 153.46-200.53 152.24 242.99 76.8-11.66 232.34-244.59 149.39 452.15 85.94 57.17 231.53-106.94 39.42-572.58 317.65-628.17 304.82z"/> <path class="fil2" d="m7086.7 5083.6c397.48 234.83 2.67 221.15 309.46 320.22 140.38 45.34-261.3 203.76 297.94 203.76 107.13 0 305.43 22.77 165.14 135.74-533.47 429.57 612.35 4.76 233.1 293.96-243.54 185.74 143.8 49.29 136.55 218.59-7.69 179.8 239.78 16.32 318.05 280.21 76.74 258.7 284.03 17.76 561.76 418.88 2.06 2.98 779.21 385.47 815.8 392.92 23.12 4.73 4.37 28.59 75.48 28.59v-2019.8c-599.65-18.02-1104.2 241.69-1789.2-38.12-362.87 164.97-845.57-227.05-1124-234.97z"/> <path class="fil3" d="m1e4 5368c-5.76 0.76-11.41 1.81-16.91 3.23-266.35 209.14-599.65 479.89-917.6 533.7-820.33 138.82-329.81 1010.7-2182.5 583.22-49.99-241.67-1039.7-462.48-1299.8-515.47-545.23-111.12-768.21-365.75-966.36-447.69-14.42-22.93-322.96 77.34-376.16 76.56-71.18-1.04-139.8-10.22-195.5 1.26-33.44 6.89-113.91 127.95-110.23 144.96 31.8 77.57-57.73 274.06-80.59 309.39-16.5 25.51-235.84 97.67-286.03 155.79-160.39 185.72-523.8 238.85-839.41 291.69-260.39 43.59-463.38 108.7-711.57 57.59-515.45 450.89-858.26 450.89-2017.4 450.89v2986.8h1e4v-4632z"/> <path class="fil4" d="m1e4 6335.3c-13.15 14.34-29.7 33.78-50.54 60.54-23.09 29.66 21.59 40.73 50.54 63.48v-124.02zm0 211.98c-6.48 8.38-14.55 17.45-24.52 27.33-17.06 16.91-5.39 29.54 24.52 42.35v-69.68zm0-1179.2c-5.76 0.76-11.41 1.81-16.91 3.23 6.51 6.42 12.1 12.89 16.91 19.4v-22.63zm0 178.68c-19.76 36.54-44.3 63.73-44.3 72.39 0 95.31 37.28 18.61-24.76 138.93-57.17 110.89 195.19-30.05-167.09 247.66-332.53 254.9 172.38-73.57 168.68 20.89-2.47 63.58-87.83 65.49-8.86 139.25 30.74 28.69 56.61 28.42 76.33 23.98v-643.1z"/> <path class="fil4" d="m7731.5 6809.2c412.44-160.06 492.77-239 556.01-343.91-218.3 145.82-578.52 213.48-1404.5 22.91-49.99-241.67-1039.7-462.48-1299.8-515.47-545.23-111.12-768.21-365.75-966.36-447.69-10.56 106.77 94.61 63.63-2.69 317.02-63.46 165.29 353.22 188.52 308.62 300.49-8.33 20.93-139.21 44.99-176.8 73.64-31.46 23.97-63.86 79.91-104.85 110.64-131.54 98.61 397.61-137.96 636.8-77.39 741.87 187.86-971.97 266.23-830.06 300.12 147.09 35.13 171.57 121.57 514.6 179.53 56.24 9.5-216.81 84.76-154.08 112.61 76.3 33.88 389.89 58.47 569.64 73.07 76.5 6.21-106.76 127.16-29.93 154.47 53.64 19.07 271.58-10.85 327 7.17 678.63 220.72 1295.2 408.86 1386.4 408.86 6.26 60.4 205.81-47.32 231.53-46.31 93.63 3.68 430.91-593.7 438.37-629.76z"/> <path class="fil4" d="m2017.4 6562.3c40.66 100.33-43.27 119.96-29.04 154.42 10.31 24.96 61.6 53.11 27.45 110.67-0.06 0.1-115.39 32.24-125.26 54.05-6.65 14.67 69.5 15.57 73.39 31.33 10.52 42.52-27.12 96.62-17.4 89.22 175.14-133.26 303.99-277.82 304.95-326.91 1.27-64.97 423.81-149.69 477.48-170.37-278.71 51.65-496.9 70.5-711.57 57.59z"/> <path class="fil5" d="m1e4 1e4v-2869.6c-285.52-8.58-525.74 115.08-851.94-18.15-172.78 78.55-402.62-108.11-535.21-111.88-74.61 94.35-148.64 121.45-185.95 204.92-189.28 9.55-545.43-74.04-561.61-128.27-197.19-46.29-376.84-379.18-495.74-402.72-57.22 88.08-102.52 86.33-140.95 135.08-109.55-88.06-109.96-150.62-211.82-194.04-29.74-143.72-201.19-295.33-289.78-295.33-81.62 143.64-447.62 291.14-520.09 388.06-165.09 220.78-687.75 490.17-713.12 612.83-87.9 18.18-460.31 99.09-493.79 12.8-34.84-89.8-169.02-211.88-246.58-191.84-126.82 99.58-285.52 228.5-436.91 254.12-390.6 66.1-157.04 481.25-1039.2 277.7-23.8-115.07-495.04-220.21-618.87-245.44-259.61-52.91-365.78-174.15-460.13-213.17-28.88 16.66-174.63 30.39-324.68 106.08-17.63 158.96-601.39 451.99-913.06 387.8-245.43 214.69-408.66 214.69-960.59 214.69v2076.4h1e4z"/> <path class="fil6" d="m4781.9 7542.8c0 64.51 18.17 6.43-44.45 86.86-21.08 27.07 76.46 21.63 12.39 85.12-36.97 36.64 209.16 31.07 269.84 183.7 23.63-102.37 92.23-51.91 102.57-127.12 2.48-18.02 170.56-227.13 190.37-241.03 143.68-100.73 41.48-171.59 142.72-201.51-127.22 25.98-425.5 81.63-455.3 4.83-34.84-89.8-169.02-211.88-246.58-191.84 51.02 50.32-13.04 108.35-13.04 118.01 0 45.38 17.75 8.86-11.79 66.15-27.22 52.8 92.94-14.31-79.56 117.92-158.33 121.37 82.08-35.03 80.32 9.95-1.18 30.27-41.82 31.18-4.22 66.3 34.94 32.62 56.73-13.35 56.73 22.66z"/> <path class="fil6" d="m3754.8 7826.5c196.38-76.21 161.14-113.8 191.25-163.75-103.94 69.43-275.46 101.65-668.73 10.91-23.8-115.07-495.04-220.21-618.87-245.44-259.61-52.91-365.78-174.15-460.13-213.17-5.03 50.84 45.05 30.29-1.28 150.95-29.18 75.98 91.06-10.05 53.66 124.98-14.68 53 204.18-18.96-40.82 105.84-69.76 35.54 80.13 23.31 194.03 52.16 353.25 89.46 194.78 28.68 194.78 98.15 0 35.98 108.97-23.22 57.71 60.6-33.92 55.46 183.7-44.6 57.71 58.08-29.3 23.88 97.75 31.08 135.19 44.1 139.31 48.48 237.38 25.13 258.03 30.86 34.4 9.55-142.22 32.5-13.61 48.51 55.24 6.88-174.16 91.26 144.39 93.37 95.51 0.63-126.85 65.76 124.23 65.76 2.98 28.76 97.99-22.53 110.24-22.05 46.85 1.85 233.94-227.99 234.1-229.3 8.58-69.75 44.41-52.63 48.12-70.56z"/> <path class="fil6" d="m6674.8 7272.7c97.51 30.29 180.55 16.48 288.14 65.4 82.28 37.41 123.25-43.22 23.81 70.55-84.88 97.12 233.52-8.18 116.16 156.6-62.07 87.16 270.11 49.51 92.6 145.9-93.69 50.88 122.23 41.96 130.79 148.42 5.84 72.58 168.58 73.46 106.97 164.29-4.29 6.32 144.19 16.98 149.17 38.56 22.91 5.89 97.46 110.24 132.31 79.41 14.2-4.91 53.61-69.43 53.68-69.8 27.34-161.46 254.61-343.02 255-344.72 49.83-215.91 223.96-192.48 289.53-335.14 76.14-165.66 33.26-56.53 113.9-186.9-189.28 9.55-545.43-74.04-561.61-128.27-197.19-46.29-376.84-379.18-495.74-402.72-57.22 88.08-102.52 86.33-140.95 135.08-109.55-88.06-109.96-150.62-211.82-194.04-29.74-143.72-201.19-295.33-289.78-295.33 104.16 282.5-46.13 70.21-0.77 247.53 9.48 37.03 20.67 140.16 53.3 146.28 0 53.44-239.99 32.11 50.78 119.82 11.97 3.61 134 63.93 121.96 73.07-95.48 72.49 115.7 36.57-5.55 110.63-116.46 71.13 215.29 40.92 27.22 110.24-50.92 18.77-272.63 151.25-299.1 145.14z"/> <path class="fil6" d="m960.59 7708.9c-20.02 75.14 14.88 89.37-23.85 154.62-0.12 0.2-19.73 60.13-9.89 54.74 41.04-22.5 83.56-57.68 131.16-66.53 46.17-8.59 43.66-104 174.37-150.5 8.09-2.87 54.78-9.42 67.02-19.75-122.4 33.23-243.37 47.08-338.81 27.42z"/> <path class="fil6" d="m8612.8 7000.4c189.26 111.81 1.27 105.3 147.35 152.47 66.84 21.59-124.42 97.02 141.86 97.02 51.01 0 145.43 10.84 78.63 64.63-254.01 204.54 291.57 2.27 110.99 139.97-115.96 88.44 68.47 23.47 65.02 104.08-3.66 85.61 114.17 7.77 151.44 133.42 36.54 123.18 135.24 8.46 267.48 199.45 0.98 1.42 371.02 183.54 388.44 187.09 11.01 2.25 2.08 13.61 35.94 13.61v-961.71c-285.52-8.58-525.74 115.08-851.94-18.15-172.78 78.55-402.62-108.11-535.21-111.88z"/> <path class="fil4" d="m7494.5 1170.9c-537.92 0.02-974.3 130.17-974.7 290.73-0.06 24.31 9.94 47.9 28.72 70.47h1890.2c18.9-22.57 29.02-46.18 29.07-70.49 0.4-160.54-435.38-290.71-973.33-290.71z"/> <path class="fil4" d="m7639 890.22c-156.92-14.49-299.5 76.88-318.45 204.14-18.98 127.26 92.89 242.17 249.82 256.69 156.95 14.5 299.55-76.89 318.48-204.14 18.95-127.27-92.92-242.19-249.85-256.69z"/> <path class="fil4" d="m7084.2 717.14c307.37 39.67 541.11 216.53 522.08 394.99-19.02 178.48-283.62 290.98-590.98 251.29-307.35-39.69-541.11-216.53-522.08-395.01 19.03-178.47 283.63-290.98 590.98-251.27z"/> <path class="fil4" d="m6058.8 1065.1c-510.08 0-923.91 154.92-924.35 346.04-0.08 42.56 20.41 83.33 57.84 120.98h1731c37.61-37.67 58.25-78.42 58.35-120.98 0.39-191.14-412.78-346.04-922.84-346.04z"/> <path class="fil4" d="m6465.2 867.49c-140.9-23.84-262.38 45.39-271.28 154.61-8.89 109.23 98.18 217.1 239.1 240.92 140.92 23.84 262.38-45.38 271.27-154.59 8.9-109.23-98.15-217.11-239.09-240.94z"/> <path class="fil4" d="m5140 1373.5c-643.21 0-1165.1 71-1165.7 158.59h2329.4v-0.01c0.53-87.59-520.5-158.58-1163.7-158.58z"/> <path class="fil4" d="m8418 1369c-794.48-15.29-1494.7 50.96-1564.1 147.97-3.64 5.09-5.36 10.15-5.46 15.18h2874.2c-91-80.8-621.37-150-1304.6-163.15z"/> <path class="fil7" d="m3113.7 2398.6c-705.5 0.02-1277.8 106.43-1278.3 237.71-0.08 19.88 13.03 39.16 37.66 57.62h2479.1c24.79-18.46 38.06-37.76 38.14-57.63 0.52-131.27-571.02-237.7-1276.5-237.7z"/> <path class="fil7" d="m3384.1 2296c-205.82-6.98-392.81 37.06-417.66 98.39-24.89 61.34 121.83 116.72 327.64 123.71 205.85 6.99 392.87-37.05 417.69-98.38 24.86-61.34-121.86-116.73-327.67-123.72z"/> <path class="fil7" d="m2611.9 1696.4c403.11 55.27 709.67 301.66 684.71 550.29-24.94 248.65-371.96 405.38-775.08 350.08-403.09-55.29-709.67-301.66-684.71-550.31 24.97-248.63 371.99-405.38 775.08-350.06z"/> <path class="fil7" d="m2087.7 2312c-668.97 0-1211.7 126.67-1212.3 282.93-0.11 34.8 26.77 68.13 75.85 98.92h2270.2c49.33-30.8 76.4-64.12 76.53-98.92 0.51-156.27-541.37-282.93-1210.3-282.93z"/> <path class="fil7" d="m1746.6 2150.5c-184.8-19.49-344.12 37.12-355.79 126.41-11.66 89.31 128.76 177.51 313.58 196.99 184.82 19.49 344.12-37.1 355.77-126.4 11.68-89.31-128.72-177.51-313.56-197z"/> <path class="fil7" d="m1771.8 2564.2c-843.58 0-1528.1 58.06-1528.8 129.67h3055v-0.01c0.69-71.62-682.64-129.66-1526.2-129.66z"/> <path class="fil7" d="m3823.7 2560.5c-1042-12.51-1960.4 41.66-2051.3 120.98-4.78 4.16-7.04 8.3-7.16 12.41h3769.5c-119.35-66.07-814.94-122.64-1711-133.39z"/> <path class="fil8" d="m7303.1 3523.9c425.85 0.01 771.32 90.18 771.63 201.42 0.05 16.85-7.86 33.19-22.73 48.83h-1496.4c-14.96-15.64-22.97-32-23.01-48.84-0.32-111.23 344.68-201.41 770.55-201.41z"/> <path class="fil8" d="m6819.6 3178.4c124.24-6.77 237.11 35.87 252.12 95.26 15.02 59.39-73.54 113.01-197.78 119.79-124.25 6.76-237.14-35.88-252.13-95.27-15-59.39 73.56-113.02 197.79-119.78z"/> <path class="fil8" d="m7258.5 2808.4c-193.43 53.52-340.52 292.08-328.55 532.82 11.97 240.76 178.48 392.51 371.91 338.97 193.42-53.54 340.52-292.09 328.54-532.85-11.97-240.73-178.48-392.5-371.9-338.94z"/> <path class="fil8" d="m7736.4 3309.4c403.81 0 731.43 154.16 731.78 344.34 0.06 42.35-16.16 82.92-45.79 120.39h-1370.4c-29.78-37.49-46.12-78.04-46.19-120.39-0.32-190.2 326.78-344.34 730.57-344.34z"/> <path class="fil8" d="m7712.8 3021.5c111.55-31.86 207.72 60.68 214.77 206.67 7.03 146.02-77.73 290.22-189.29 322.06-111.57 31.86-207.72-60.66-214.76-206.66-7.04-146.01 77.71-290.21 189.28-322.07z"/> <path class="fil8" d="m8505.6 3648.6c509.2 0 922.38 56.21 922.81 125.55h-1844.1v-0.01c-0.42-69.35 412.06-125.54 921.27-125.54z"/> <path class="fil8" d="m6373 3709.6c628.95-6.06 1183.3 20.17 1238.2 58.57 2.88 2.01 4.24 4.02 4.32 6.01h-2275.4c72.04-31.99 491.92-59.38 1032.8-64.58z"/> <path class="fil8" d="m6949.8 3074.7c90.75-4.94 173.21 26.21 184.17 69.6 10.97 43.38-53.73 82.55-144.48 87.5-90.77 4.94-173.24-26.21-184.19-69.59-10.96-43.39 53.74-82.56 144.5-87.51z"/> <path class="fil8" d="m6492.5 3579.5c90.76-4.94 173.22 26.21 184.18 69.6 10.97 43.38-53.73 82.55-144.48 87.5-90.77 4.95-173.24-26.21-184.19-69.59-10.96-43.39 53.74-82.56 144.49-87.51z"/> </svg>