<?xml version='1.0' encoding='utf-8'?>
<svg xmlns="http://www.w3.org/2000/svg" width="2500" height="3500" version="1.1" viewBox="0 0 661.46 926.04"> <defs> <linearGradient id="e" x1="335.26" x2="335.26" y1="-101.12" y2="-629.04" gradientTransform="translate(2.0345e-5 2.8023e-5)" gradientUnits="userSpaceOnUse"> <stop stop-color="#a168e0" offset="0"/> <stop stop-color="#473f7b" offset="1"/> </linearGradient> <linearGradient id="d" x1="335.26" x2="335.26" y1="-93.641" y2="-304.26" gradientTransform="translate(-2.8828e-5 1.9195e-5)" gradientUnits="userSpaceOnUse"> <stop stop-color="#bc79ff" offset="0"/> <stop stop-color="#64668a" stop-opacity="0" offset="1"/> </linearGradient> <linearGradient id="c" x1="332.27" x2="332.27" y1="-51.733" y2="297" gradientUnits="userSpaceOnUse"> <stop stop-color="#5b3a7b" offset="0"/> <stop stop-color="#120c25" offset="1"/> </linearGradient> <radialGradient id="b" cx="59.868" cy="-87.829" r="330.73" gradientTransform="matrix(0 .20365 -7.7223 0 -618.37 -61.69)" gradientUnits="userSpaceOnUse"> <stop stop-color="#6866a1" offset="0"/> <stop stop-color="#1b1738" stop-opacity="0" offset="1"/> </radialGradient> <filter id="a" x="-.7704" y="-.7704" width="2.5408" height="2.5408" color-interpolation-filters="sRGB"> <feGaussianBlur stdDeviation="7.627044"/> </filter> <filter id="f" x="-.9894" y="-.90868" width="2.9788" height="2.8174" color-interpolation-filters="sRGB"> <feGaussianBlur stdDeviation="9.5014339"/> </filter> </defs> <g transform="translate(0 629.04)" fill-rule="evenodd"> <rect x="2.0345e-5" y="-629.04" width="661.46" height="926.04" fill="url(#e)" style="paint-order:normal"/> <rect x="-2.2888e-5" y="-629.04" width="661.46" height="926.04" fill="url(#d)" style="paint-order:normal"/> <path d="m0-51.494 97.518-42.489 24.946-8.2237 46.113-11.65 23.435-2.7412 29.482-12.336 16.631-4.1119 5.2917-7.5384 34.018-17.133 6.0476-8.2237 27.214-12.336 9.0714-10.965 23.435-17.818 9.8274 4.1119 12.095 9.5943 5.2917 4.7972 9.0714 2.7412 10.583 6.1678 5.2917 9.5943 8.3155 8.2237 15.875 4.1118 9.8274 8.909 15.119 4.1118 12.851 7.5384 20.411 10.965 9.8274 10.28 19.655 9.5943 46.869 10.965 107.35 43.86z" fill="#351d45"/> <path d="m0-150.41 15.119-1.9653 17.387-0.65509 15.875 5.8959 21.923-1.3102 10.583-3.2755 18.899-3.9306 22.679 3.9306 12.095 5.8959 18.899 0.65509 22.679 5.2408 32.506 7.8612 7.5595 7.8611 20.411 2.6204 13.607 7.8612 36.286 7.206 12.851 6.551 25.702 1.3102h32.506l18.143 5.8958 27.97 10.482 257.78 30.79h-661.46z" fill="#2e1a40"/> <path d="m0-98.89 29.482 0.59246 15.875 1.1849 26.458 4.1471 25.702 4.7396 30.994 3.5547 30.238 4.1471 35.53-1.1849 30.994 2.3698h38.554l29.482-3.5547h55.185l34.018 5.332 21.167-1.7774 32.506-4.7396 31.75-2.9622 32.506-5.332 21.923 0.59244 27.214-4.1471 36.286-1.7773 25.702-4.1471h49.893v50.358h-661.46z" fill="#281739"/> <path transform="matrix(.26458 0 0 .26458 0 -629.04)" d="m1297.1 1594.9-88.57 67.344-34.287 41.443-102.86 46.621-22.855 31.082-5.7149 31.473 21.428 12.857 16.43-40.715 25.713-13.572 37.145-21.428 5.7129-15 17.142-4.2852 22.145-0.7148v14.285l25.713-60.713 7.9218-5.377-0.207 0.8047 3.9434 2.6816-2.3711 3.3184-8.5723 32.857 15.715-30 1.7813-1.7187 2.0039 1.3613 25.5 4 17.5-10 3.6191-0.623-8.2617 16.98-45.715 25-35.715 31.428-22.855 12.142-8.5723-12.855-7.1426 22.855-21.43 4.2871-14.285 12.858-12.143 2.8554-22.143 30.715 15.715-1.4278 18.57-12.857 27.143-2.8574 35.715-28.572-15.715 34.287 25.715 7.1426 18.572-27.143 1.4277 28.57-30 41.43 38.572 8.5704 20-31.428 17.142 11.428 24.285-45.713 21.428-22.858-14.285 37.143 4.2851 24.285 20 42.857 5.7149-42.857 14.285 48.572 15.715 10 18.572-1.4296-5.7148-21.428-14.285-22.857 14.285-24.285 4.2852-37.142-20.713-36.43-31.43-40.715-6.4278-18.57 4.2852-29.285-0.541-4.0567 14.041 9.9844 6-20.5-0.457-4.502 2.3847 2.6446 13.572 30-0.7148 13.572-16.428-12.857 12.857 24.285 10.955 12.324 18.33 5.5332 48.572 37.143 12.855 33.572-7.8554-11.43-4.2871 4.2871-28.57-20.715-16.43-5.7148-12.281-20.312 0.8535 3.1699 0.7149 20 12.142 12.857 27.858 12.857 20.713 10.713 11.43 12.145-0.7148 15 16.428 25 2.8575-32.858 20-5.7148-2.8575-27.143 21.43 38.57 54.285 27.145 15.715-17.145 55.715 18.572 5.7129-15.715 18.572-4.2852-20-24.943-37.143-33.672-60-15.541-31.43-31.082-20-36.262-40-23.31-34.285-10.361-20-18.131-45.715-36.262-37.143-15.541zm125.79 112.54 55.396 27.166 6.2168 23.606 28.115 20.088-8.2129 24.293-13.924-4.2851-21.49-28.748-31.039-12.486-8.3399-31 39.701 19.109-46.424-37.742z" fill="#7960a3"/> <rect y="-51.494" width="661.46" height="348.49" fill="url(#c)" style="paint-order:normal"/> <g transform="matrix(.11065 0 0 -.098009 482.87 129.15)"> <circle transform="matrix(1.355 0 0 1.355 -117.37 107.06)" cx="330.6" cy="-301.57" r="11.88" fill="#95a1ff" filter="url(#a)" style="paint-order:normal"/> <circle cx="330.6" cy="-301.57" r="8.1384" fill="#e6e5ff" style="paint-order:normal"/> </g> <g transform="matrix(.11065 0 0 -.098009 386.45 163.87)"> <circle transform="matrix(1.355 0 0 1.355 -117.37 107.06)" cx="330.6" cy="-301.57" r="11.88" fill="#95a1ff" filter="url(#a)" style="paint-order:normal"/> <circle cx="330.6" cy="-301.57" r="8.1384" fill="#e6e5ff" style="paint-order:normal"/> </g> <g transform="matrix(.11065 0 0 -.098009 436.65 219.62)"> <circle transform="matrix(1.355 0 0 1.355 -117.37 107.06)" cx="330.6" cy="-301.57" r="11.88" fill="#95a1ff" filter="url(#a)" style="paint-order:normal"/> <circle cx="330.6" cy="-301.57" r="8.1384" fill="#e6e5ff" style="paint-order:normal"/> </g> <g transform="matrix(.11065 0 0 -.098009 310.78 233.56)"> <circle transform="matrix(1.355 0 0 1.355 -117.37 107.06)" cx="330.6" cy="-301.57" r="11.88" fill="#95a1ff" filter="url(#a)" style="paint-order:normal"/> <circle cx="330.6" cy="-301.57" r="8.1384" fill="#e6e5ff" style="paint-order:normal"/> </g> <g transform="matrix(.11065 0 0 -.098009 249.35 156.57)"> <circle transform="matrix(1.355 0 0 1.355 -117.37 107.06)" cx="330.6" cy="-301.57" r="11.88" fill="#95a1ff" filter="url(#a)" style="paint-order:normal"/> <circle cx="330.6" cy="-301.57" r="8.1384" fill="#e6e5ff" style="paint-order:normal"/> </g> <g transform="matrix(.11065 0 0 -.098009 8.1047 173.17)"> <circle transform="matrix(1.355 0 0 1.355 -117.37 107.06)" cx="330.6" cy="-301.57" r="11.88" fill="#95a1ff" filter="url(#a)" style="paint-order:normal"/> <circle cx="330.6" cy="-301.57" r="8.1384" fill="#e6e5ff" style="paint-order:normal"/> </g> <g transform="matrix(.11065 0 0 -.098009 117.49 189.76)"> <circle transform="matrix(1.355 0 0 1.355 -117.37 107.06)" cx="330.6" cy="-301.57" r="11.88" fill="#95a1ff" filter="url(#a)" style="paint-order:normal"/> <circle cx="330.6" cy="-301.57" r="8.1384" fill="#e6e5ff" style="paint-order:normal"/> </g> <g transform="matrix(.11065 0 0 -.098009 71.038 88.221)"> <circle transform="matrix(1.355 0 0 1.355 -117.37 107.06)" cx="330.6" cy="-301.57" r="11.88" fill="#95a1ff" filter="url(#a)" style="paint-order:normal"/> <circle cx="330.6" cy="-301.57" r="8.1384" fill="#e6e5ff" style="paint-order:normal"/> </g> <g transform="matrix(.11065 0 0 -.098009 23.089 142.64)"> <circle transform="matrix(1.355 0 0 1.355 -117.37 107.06)" cx="330.6" cy="-301.57" r="11.88" fill="#95a1ff" filter="url(#a)" style="paint-order:normal"/> <circle cx="330.6" cy="-301.57" r="8.1384" fill="#e6e5ff" style="paint-order:normal"/> </g> <g transform="matrix(.11065 0 0 -.098009 -3.1334 74.949)"> <circle transform="matrix(1.355 0 0 1.355 -117.37 107.06)" cx="330.6" cy="-301.57" r="11.88" fill="#95a1ff" filter="url(#a)" style="paint-order:normal"/> <circle cx="330.6" cy="-301.57" r="8.1384" fill="#e6e5ff" style="paint-order:normal"/> </g> <g transform="matrix(.11065 0 0 -.098009 61.298 162.55)"> <circle transform="matrix(1.355 0 0 1.355 -117.37 107.06)" cx="330.6" cy="-301.57" r="11.88" fill="#95a1ff" filter="url(#a)" style="paint-order:normal"/> <circle cx="330.6" cy="-301.57" r="8.1384" fill="#e6e5ff" style="paint-order:normal"/> </g> <g transform="matrix(.11065 0 0 -.098009 7.3555 257.45)"> <circle transform="matrix(1.355 0 0 1.355 -117.37 107.06)" cx="330.6" cy="-301.57" r="11.88" fill="#95a1ff" filter="url(#a)" style="paint-order:normal"/> <circle cx="330.6" cy="-301.57" r="8.1384" fill="#e6e5ff" style="paint-order:normal"/> </g> <g transform="matrix(.11065 0 0 -.098009 606.72 193.07)"> <circle transform="matrix(1.355 0 0 1.355 -117.37 107.06)" cx="330.6" cy="-301.57" r="11.88" fill="#95a1ff" filter="url(#a)" style="paint-order:normal"/> <circle cx="330.6" cy="-301.57" r="8.1384" fill="#e6e5ff" style="paint-order:normal"/> </g> <g transform="matrix(.11065 0 0 -.098009 593.23 250.15)"> <circle transform="matrix(1.355 0 0 1.355 -117.37 107.06)" cx="330.6" cy="-301.57" r="11.88" fill="#95a1ff" filter="url(#a)" style="paint-order:normal"/> <circle cx="330.6" cy="-301.57" r="8.1384" fill="#e6e5ff" style="paint-order:normal"/> </g> <g transform="matrix(.11065 0 0 -.098009 565.51 62.34)"> <circle transform="matrix(1.355 0 0 1.355 -117.37 107.06)" cx="330.6" cy="-301.57" r="11.88" fill="#95a1ff" filter="url(#a)" style="paint-order:normal"/> <circle cx="330.6" cy="-301.57" r="8.1384" fill="#e6e5ff" style="paint-order:normal"/> </g> <g transform="matrix(.11065 0 0 -.098009 496.59 39.113)"> <circle transform="matrix(1.355 0 0 1.355 -117.37 107.06)" cx="330.6" cy="-301.57" r="11.88" fill="#95a1ff" filter="url(#a)" style="paint-order:normal"/> <circle cx="330.6" cy="-301.57" r="8.1384" fill="#e6e5ff" style="paint-order:normal"/> </g> <g transform="matrix(.11065 0 0 -.098009 404.43 95.521)"> <circle transform="matrix(1.355 0 0 1.355 -117.37 107.06)" cx="330.6" cy="-301.57" r="11.88" fill="#95a1ff" filter="url(#a)" style="paint-order:normal"/> <circle cx="330.6" cy="-301.57" r="8.1384" fill="#e6e5ff" style="paint-order:normal"/> </g> <g transform="matrix(.11065 0 0 -.098009 363.23 50.394)"> <circle transform="matrix(1.355 0 0 1.355 -117.37 107.06)" cx="330.6" cy="-301.57" r="11.88" fill="#95a1ff" filter="url(#a)" style="paint-order:normal"/> <circle cx="330.6" cy="-301.57" r="8.1384" fill="#e6e5ff" style="paint-order:normal"/> </g> <g transform="matrix(.11065 0 0 -.098009 216.38 98.839)"> <circle transform="matrix(1.355 0 0 1.355 -117.37 107.06)" cx="330.6" cy="-301.57" r="11.88" fill="#95a1ff" filter="url(#a)" style="paint-order:normal"/> <circle cx="330.6" cy="-301.57" r="8.1384" fill="#e6e5ff" style="paint-order:normal"/> </g> <g transform="matrix(.11065 0 0 -.098009 197.65 19.867)"> <circle transform="matrix(1.355 0 0 1.355 -117.37 107.06)" cx="330.6" cy="-301.57" r="11.88" fill="#95a1ff" filter="url(#a)" style="paint-order:normal"/> <circle cx="330.6" cy="-301.57" r="8.1384" fill="#e6e5ff" style="paint-order:normal"/> </g> <g transform="matrix(.11065 0 0 -.098009 124.98 102.82)"> <circle transform="matrix(1.355 0 0 1.355 -117.37 107.06)" cx="330.6" cy="-301.57" r="11.88" fill="#95a1ff" filter="url(#a)" style="paint-order:normal"/> <circle cx="330.6" cy="-301.57" r="8.1384" fill="#e6e5ff" style="paint-order:normal"/> </g> <g transform="matrix(.11065 0 0 -.098009 104 62.34)"> <circle transform="matrix(1.355 0 0 1.355 -117.37 107.06)" cx="330.6" cy="-301.57" r="11.88" fill="#95a1ff" filter="url(#a)" style="paint-order:normal"/> <circle cx="330.6" cy="-301.57" r="8.1384" fill="#e6e5ff" style="paint-order:normal"/> </g> <g transform="matrix(.11065 0 0 -.098009 188.66 184.45)"> <circle transform="matrix(1.355 0 0 1.355 -117.37 107.06)" cx="330.6" cy="-301.57" r="11.88" fill="#95a1ff" filter="url(#a)" style="paint-order:normal"/> <circle cx="330.6" cy="-301.57" r="8.1384" fill="#e6e5ff" style="paint-order:normal"/> </g> <g transform="matrix(.11065 0 0 -.098009 498.83 195.73)"> <circle transform="matrix(1.355 0 0 1.355 -117.37 107.06)" cx="330.6" cy="-301.57" r="11.88" fill="#95a1ff" filter="url(#a)" style="paint-order:normal"/> <circle cx="330.6" cy="-301.57" r="8.1384" fill="#e6e5ff" style="paint-order:normal"/> </g> <g transform="matrix(.22722 0 0 -.20127 369.24 218.14)"> <circle transform="matrix(1.355 0 0 1.355 -117.37 107.06)" cx="330.6" cy="-301.57" r="11.88" fill="#95a1ff" filter="url(#a)" style="paint-order:normal"/> <circle cx="330.6" cy="-301.57" r="8.1384" fill="#e6e5ff" style="paint-order:normal"/> </g> <g transform="matrix(.22722 0 0 -.20127 142.98 82.759)"> <circle transform="matrix(1.355 0 0 1.355 -117.37 107.06)" cx="330.6" cy="-301.57" r="11.88" fill="#95a1ff" filter="url(#a)" style="paint-order:normal"/> <circle cx="330.6" cy="-301.57" r="8.1384" fill="#e6e5ff" style="paint-order:normal"/> </g> <g transform="matrix(.22722 0 0 -.20127 115.26 205.53)"> <circle transform="matrix(1.355 0 0 1.355 -117.37 107.06)" cx="330.6" cy="-301.57" r="11.88" fill="#95a1ff" filter="url(#a)" style="paint-order:normal"/> <circle cx="330.6" cy="-301.57" r="8.1384" fill="#e6e5ff" style="paint-order:normal"/> </g> <g transform="matrix(.22722 0 0 -.20127 35.845 192.26)"> <circle transform="matrix(1.355 0 0 1.355 -117.37 107.06)" cx="330.6" cy="-301.57" r="11.88" fill="#95a1ff" filter="url(#a)" style="paint-order:normal"/> <circle cx="330.6" cy="-301.57" r="8.1384" fill="#e6e5ff" style="paint-order:normal"/> </g> <g transform="matrix(.11065 0 0 -.098009 555.77 221.61)"> <circle transform="matrix(1.355 0 0 1.355 -117.37 107.06)" cx="330.6" cy="-301.57" r="11.88" fill="#95a1ff" filter="url(#a)" style="paint-order:normal"/> <circle cx="330.6" cy="-301.57" r="8.1384" fill="#e6e5ff" style="paint-order:normal"/> </g> <g transform="matrix(.11065 0 0 -.098009 558.02 140.65)"> <circle transform="matrix(1.355 0 0 1.355 -117.37 107.06)" cx="330.6" cy="-301.57" r="11.88" fill="#95a1ff" filter="url(#a)" style="paint-order:normal"/> <circle cx="330.6" cy="-301.57" r="8.1384" fill="#e6e5ff" style="paint-order:normal"/> </g> <g transform="matrix(.11065 0 0 -.098009 450.13 155.91)"> <circle transform="matrix(1.355 0 0 1.355 -117.37 107.06)" cx="330.6" cy="-301.57" r="11.88" fill="#95a1ff" filter="url(#a)" style="paint-order:normal"/> <circle cx="330.6" cy="-301.57" r="8.1384" fill="#e6e5ff" style="paint-order:normal"/> </g> <g transform="matrix(.11065 0 0 -.098009 329.51 209.67)"> <circle transform="matrix(1.355 0 0 1.355 -117.37 107.06)" cx="330.6" cy="-301.57" r="11.88" fill="#95a1ff" filter="url(#a)" style="paint-order:normal"/> <circle cx="330.6" cy="-301.57" r="8.1384" fill="#e6e5ff" style="paint-order:normal"/> </g> <g transform="matrix(.11065 0 0 -.098009 286.81 204.36)"> <circle transform="matrix(1.355 0 0 1.355 -117.37 107.06)" cx="330.6" cy="-301.57" r="11.88" fill="#95a1ff" filter="url(#a)" style="paint-order:normal"/> <circle cx="330.6" cy="-301.57" r="8.1384" fill="#e6e5ff" style="paint-order:normal"/> </g> <g transform="matrix(.11065 0 0 -.098009 241.11 199.71)"> <circle transform="matrix(1.355 0 0 1.355 -117.37 107.06)" cx="330.6" cy="-301.57" r="11.88" fill="#95a1ff" filter="url(#a)" style="paint-order:normal"/> <circle cx="330.6" cy="-301.57" r="8.1384" fill="#e6e5ff" style="paint-order:normal"/> </g> <g transform="matrix(.11065 0 0 -.098009 299.54 90.212)"> <circle transform="matrix(1.355 0 0 1.355 -117.37 107.06)" cx="330.6" cy="-301.57" r="11.88" fill="#95a1ff" filter="url(#a)" style="paint-order:normal"/> <circle cx="330.6" cy="-301.57" r="8.1384" fill="#e6e5ff" style="paint-order:normal"/> </g> <g transform="matrix(.11065 0 0 -.098009 292.05 194.4)"> <circle transform="matrix(1.355 0 0 1.355 -117.37 107.06)" cx="330.6" cy="-301.57" r="11.88" fill="#95a1ff" filter="url(#a)" style="paint-order:normal"/> <circle cx="330.6" cy="-301.57" r="8.1384" fill="#e6e5ff" style="paint-order:normal"/> </g> <g transform="matrix(.11065 0 0 -.098009 303.29 216.97)"> <circle transform="matrix(1.355 0 0 1.355 -117.37 107.06)" cx="330.6" cy="-301.57" r="11.88" fill="#95a1ff" filter="url(#a)" style="paint-order:normal"/> <circle cx="330.6" cy="-301.57" r="8.1384" fill="#e6e5ff" style="paint-order:normal"/> </g> <g transform="matrix(.11065 0 0 -.098009 321.27 195.07)"> <circle transform="matrix(1.355 0 0 1.355 -117.37 107.06)" cx="330.6" cy="-301.57" r="11.88" fill="#95a1ff" filter="url(#a)" style="paint-order:normal"/> <circle cx="330.6" cy="-301.57" r="8.1384" fill="#e6e5ff" style="paint-order:normal"/> </g> <g transform="matrix(.11065 0 0 -.098009 117.49 201.04)"> <circle transform="matrix(1.355 0 0 1.355 -117.37 107.06)" cx="330.6" cy="-301.57" r="11.88" fill="#95a1ff" filter="url(#a)" style="paint-order:normal"/> <circle cx="330.6" cy="-301.57" r="8.1384" fill="#e6e5ff" style="paint-order:normal"/> </g> <g transform="matrix(.11065 0 0 -.098009 92.765 214.97)"> <circle transform="matrix(1.355 0 0 1.355 -117.37 107.06)" cx="330.6" cy="-301.57" r="11.88" fill="#95a1ff" filter="url(#a)" style="paint-order:normal"/> <circle cx="330.6" cy="-301.57" r="8.1384" fill="#e6e5ff" style="paint-order:normal"/> </g> <g transform="matrix(.11065 0 0 -.098009 105.5 195.73)"> <circle transform="matrix(1.355 0 0 1.355 -117.37 107.06)" cx="330.6" cy="-301.57" r="11.88" fill="#95a1ff" filter="url(#a)" style="paint-order:normal"/> <circle cx="330.6" cy="-301.57" r="8.1384" fill="#e6e5ff" style="paint-order:normal"/> </g> <g transform="matrix(.11065 0 0 -.098009 89.019 254.79)"> <circle transform="matrix(1.355 0 0 1.355 -117.37 107.06)" cx="330.6" cy="-301.57" r="11.88" fill="#95a1ff" filter="url(#a)" style="paint-order:normal"/> <circle cx="330.6" cy="-301.57" r="8.1384" fill="#e6e5ff" style="paint-order:normal"/> </g> <g transform="matrix(1 0 0 -.85687 0 -95.618)" opacity=".747"> <path d="m0-51.494 97.518-42.489 24.946-8.2237 46.113-11.65 23.435-2.7412 29.482-12.336 16.631-4.1119 5.2917-7.5384 34.018-17.133 6.0476-8.2237 27.214-12.336 9.0714-10.965 23.435-17.818 9.8274 4.1119 12.095 9.5943 5.2917 4.7972 9.0714 2.7412 10.583 6.1678 5.2917 9.5943 8.3155 8.2237 15.875 4.1118 9.8274 8.909 15.119 4.1118 12.851 7.5384 20.411 10.965 9.8274 10.28 19.655 9.5943 46.869 10.965 107.35 43.86z" fill="#351d45"/> <path d="m0-150.41 15.119-1.9653 17.387-0.65509 15.875 5.8959 21.923-1.3102 10.583-3.2755 18.899-3.9306 22.679 3.9306 12.095 5.8959 18.899 0.65509 22.679 5.2408 32.506 7.8612 7.5595 7.8611 20.411 2.6204 13.607 7.8612 36.286 7.206 12.851 6.551 25.702 1.3102h32.506l18.143 5.8958 27.97 10.482 257.78 30.79h-661.46z" fill="#2e1a40"/> <path d="m0-98.89 29.482 0.59246 15.875 1.1849 26.458 4.1471 25.702 4.7396 30.994 3.5547 30.238 4.1471 35.53-1.1849 30.994 2.3698h38.554l29.482-3.5547h55.185l34.018 5.332 21.167-1.7774 32.506-4.7396 31.75-2.9622 32.506-5.332 21.923 0.59244 27.214-4.1471 36.286-1.7773 25.702-4.1471h49.893v50.358h-661.46z" fill="#281739"/> <path transform="matrix(.26458 0 0 .26458 0 -629.04)" d="m1297.1 1594.9-88.57 67.344-34.287 41.443-102.86 46.621-22.855 31.082-5.7149 31.473 21.428 12.857 16.43-40.715 25.713-13.572 37.145-21.428 5.7129-15 17.142-4.2852 22.145-0.7148v14.285l25.713-60.713 7.9218-5.377-0.207 0.8047 3.9434 2.6816-2.3711 3.3184-8.5723 32.857 15.715-30 1.7813-1.7187 2.0039 1.3613 25.5 4 17.5-10 3.6191-0.623-8.2617 16.98-45.715 25-35.715 31.428-22.855 12.142-8.5723-12.855-7.1426 22.855-21.43 4.2871-14.285 12.858-12.143 2.8554-22.143 30.715 15.715-1.4278 18.57-12.857 27.143-2.8574 35.715-28.572-15.715 34.287 25.715 7.1426 18.572-27.143 1.4277 28.57-30 41.43 38.572 8.5704 20-31.428 17.142 11.428 24.285-45.713 21.428-22.858-14.285 37.143 4.2851 24.285 20 42.857 5.7149-42.857 14.285 48.572 15.715 10 18.572-1.4296-5.7148-21.428-14.285-22.857 14.285-24.285 4.2852-37.142-20.713-36.43-31.43-40.715-6.4278-18.57 4.2852-29.285-0.541-4.0567 14.041 9.9844 6-20.5-0.457-4.502 2.3847 2.6446 13.572 30-0.7148 13.572-16.428-12.857 12.857 24.285 10.955 12.324 18.33 5.5332 48.572 37.143 12.855 33.572-7.8554-11.43-4.2871 4.2871-28.57-20.715-16.43-5.7148-12.281-20.312 0.8535 3.1699 0.7149 20 12.142 12.857 27.858 12.857 20.713 10.713 11.43 12.145-0.7148 15 16.428 25 2.8575-32.858 20-5.7148-2.8575-27.143 21.43 38.57 54.285 27.145 15.715-17.145 55.715 18.572 5.7129-15.715 18.572-4.2852-20-24.943-37.143-33.672-60-15.541-31.43-31.082-20-36.262-40-23.31-34.285-10.361-20-18.131-45.715-36.262zm125.79 112.54 55.396 27.166 6.2168 23.606 28.115 20.088-8.2129 24.293-13.924-4.2851-21.49-28.748-31.039-12.486-8.3399-31 39.701 19.109z" fill="#7960a3"/> </g> <rect y="-122.84" width="661.46" height="165.82" fill="url(#b)" opacity=".544" style="paint-order:normal"/> <circle transform="matrix(2.6987 1.144 -.71552 2.206 -568.46 -209.23)" cx="330.6" cy="-301.57" r="11.88" fill="#95a1ff" filter="url(#f)" opacity=".368" style="paint-order:normal"/> <g transform="matrix(.22696 0 0 .22696 527.69 -501.81)"> <circle transform="matrix(1.355 0 0 1.355 -117.37 107.06)" cx="330.6" cy="-301.57" r="11.88" fill="#95a1ff" filter="url(#a)" style="paint-order:normal"/> <circle cx="330.6" cy="-301.57" r="8.1384" fill="#e6e5ff" style="paint-order:normal"/> </g> <g transform="matrix(.11052 0 0 .11052 465.12 -522.64)"> <circle transform="matrix(1.355 0 0 1.355 -117.37 107.06)" cx="330.6" cy="-301.57" r="11.88" fill="#95a1ff" filter="url(#a)" style="paint-order:normal"/> <circle cx="330.6" cy="-301.57" r="8.1384" fill="#e6e5ff" style="paint-order:normal"/> </g> <g transform="matrix(.11052 0 0 .11052 395.27 -549.09)"> <circle transform="matrix(1.355 0 0 1.355 -117.37 107.06)" cx="330.6" cy="-301.57" r="11.88" fill="#95a1ff" filter="url(#a)" style="paint-order:normal"/> <circle cx="330.6" cy="-301.57" r="8.1384" fill="#e6e5ff" style="paint-order:normal"/> </g> <g transform="matrix(.11052 0 0 .11052 383.63 -482.42)"> <circle transform="matrix(1.355 0 0 1.355 -117.37 107.06)" cx="330.6" cy="-301.57" r="11.88" fill="#95a1ff" filter="url(#a)" style="paint-order:normal"/> <circle cx="330.6" cy="-301.57" r="8.1384" fill="#e6e5ff" style="paint-order:normal"/> </g> <g transform="matrix(.11052 0 0 .11052 275.68 -440.09)"> <circle transform="matrix(1.355 0 0 1.355 -117.37 107.06)" cx="330.6" cy="-301.57" r="11.88" fill="#95a1ff" filter="url(#a)" style="paint-order:normal"/> <circle cx="330.6" cy="-301.57" r="8.1384" fill="#e6e5ff" style="paint-order:normal"/> </g> <g transform="matrix(.11052 0 0 .11052 486.28 -274.99)"> <circle transform="matrix(1.355 0 0 1.355 -117.37 107.06)" cx="330.6" cy="-301.57" r="11.88" fill="#95a1ff" filter="url(#a)" style="paint-order:normal"/> <circle cx="330.6" cy="-301.57" r="8.1384" fill="#e6e5ff" style="paint-order:normal"/> </g> <g transform="matrix(.11052 0 0 .11052 389.98 -314.14)"> <circle transform="matrix(1.355 0 0 1.355 -117.37 107.06)" cx="330.6" cy="-301.57" r="11.88" fill="#95a1ff" filter="url(#a)" style="paint-order:normal"/> <circle cx="330.6" cy="-301.57" r="8.1384" fill="#e6e5ff" style="paint-order:normal"/> </g> <g transform="matrix(.11052 0 0 .11052 440.12 -377.01)"> <circle transform="matrix(1.355 0 0 1.355 -117.37 107.06)" cx="330.6" cy="-301.57" r="11.88" fill="#95a1ff" filter="url(#a)" style="paint-order:normal"/> <circle cx="330.6" cy="-301.57" r="8.1384" fill="#e6e5ff" style="paint-order:normal"/> </g> <g transform="matrix(.11052 0 0 .11052 314.39 -392.72)"> <circle transform="matrix(1.355 0 0 1.355 -117.37 107.06)" cx="330.6" cy="-301.57" r="11.88" fill="#95a1ff" filter="url(#a)" style="paint-order:normal"/> <circle cx="330.6" cy="-301.57" r="8.1384" fill="#e6e5ff" style="paint-order:normal"/> </g> <g transform="matrix(.11052 0 0 .11052 253.03 -305.91)"> <circle transform="matrix(1.355 0 0 1.355 -117.37 107.06)" cx="330.6" cy="-301.57" r="11.88" fill="#95a1ff" filter="url(#a)" style="paint-order:normal"/> <circle cx="330.6" cy="-301.57" r="8.1384" fill="#e6e5ff" style="paint-order:normal"/> </g> <g transform="matrix(.11052 0 0 .11052 156.49 -439.87)"> <circle transform="matrix(1.355 0 0 1.355 -117.37 107.06)" cx="330.6" cy="-301.57" r="11.88" fill="#95a1ff" filter="url(#a)" style="paint-order:normal"/> <circle cx="330.6" cy="-301.57" r="8.1384" fill="#e6e5ff" style="paint-order:normal"/> </g> <g transform="matrix(.11052 0 0 .11052 265 -509.46)"> <circle transform="matrix(1.355 0 0 1.355 -117.37 107.06)" cx="330.6" cy="-301.57" r="11.88" fill="#95a1ff" filter="url(#a)" style="paint-order:normal"/> <circle cx="330.6" cy="-301.57" r="8.1384" fill="#e6e5ff" style="paint-order:normal"/> </g> <g transform="matrix(.11052 0 0 .11052 154.24 -526.68)"> <circle transform="matrix(1.355 0 0 1.355 -117.37 107.06)" cx="330.6" cy="-301.57" r="11.88" fill="#95a1ff" filter="url(#a)" style="paint-order:normal"/> <circle cx="330.6" cy="-301.57" r="8.1384" fill="#e6e5ff" style="paint-order:normal"/> </g> <g transform="matrix(.11052 0 0 .11052 100.36 -433.13)"> <circle transform="matrix(1.355 0 0 1.355 -117.37 107.06)" cx="330.6" cy="-301.57" r="11.88" fill="#95a1ff" filter="url(#a)" style="paint-order:normal"/> <circle cx="330.6" cy="-301.57" r="8.1384" fill="#e6e5ff" style="paint-order:normal"/> </g> <g transform="matrix(.11052 0 0 .11052 8.3147 -490.76)"> <circle transform="matrix(1.355 0 0 1.355 -117.37 107.06)" cx="330.6" cy="-301.57" r="11.88" fill="#95a1ff" filter="url(#a)" style="paint-order:normal"/> <circle cx="330.6" cy="-301.57" r="8.1384" fill="#e6e5ff" style="paint-order:normal"/> </g> <g transform="matrix(.11052 0 0 .11052 65.938 -524.43)"> <circle transform="matrix(1.355 0 0 1.355 -117.37 107.06)" cx="330.6" cy="-301.57" r="11.88" fill="#95a1ff" filter="url(#a)" style="paint-order:normal"/> <circle cx="330.6" cy="-301.57" r="8.1384" fill="#e6e5ff" style="paint-order:normal"/> </g> <g transform="matrix(.11052 0 0 .11052 53.964 -480.28)"> <circle transform="matrix(1.355 0 0 1.355 -117.37 107.06)" cx="330.6" cy="-301.57" r="11.88" fill="#95a1ff" filter="url(#a)" style="paint-order:normal"/> <circle cx="330.6" cy="-301.57" r="8.1384" fill="#e6e5ff" style="paint-order:normal"/> </g> <g transform="matrix(.11052 0 0 .11052 12.056 -324.62)"> <circle transform="matrix(1.355 0 0 1.355 -117.37 107.06)" cx="330.6" cy="-301.57" r="11.88" fill="#95a1ff" filter="url(#a)" style="paint-order:normal"/> <circle cx="330.6" cy="-301.57" r="8.1384" fill="#e6e5ff" style="paint-order:normal"/> </g> <g transform="matrix(.11052 0 0 .11052 121.32 -343.33)"> <circle transform="matrix(1.355 0 0 1.355 -117.37 107.06)" cx="330.6" cy="-301.57" r="11.88" fill="#95a1ff" filter="url(#a)" style="paint-order:normal"/> <circle cx="330.6" cy="-301.57" r="8.1384" fill="#e6e5ff" style="paint-order:normal"/> </g> <g transform="matrix(.11052 0 0 .11052 74.918 -228.83)"> <circle transform="matrix(1.355 0 0 1.355 -117.37 107.06)" cx="330.6" cy="-301.57" r="11.88" fill="#95a1ff" filter="url(#a)" style="paint-order:normal"/> <circle cx="330.6" cy="-301.57" r="8.1384" fill="#e6e5ff" style="paint-order:normal"/> </g> <g transform="matrix(.11052 0 0 .11052 27.024 -290.2)"> <circle transform="matrix(1.355 0 0 1.355 -117.37 107.06)" cx="330.6" cy="-301.57" r="11.88" fill="#95a1ff" filter="url(#a)" style="paint-order:normal"/> <circle cx="330.6" cy="-301.57" r="8.1384" fill="#e6e5ff" style="paint-order:normal"/> </g> <g transform="matrix(.11052 0 0 .11052 .83117 -213.86)"> <circle transform="matrix(1.355 0 0 1.355 -117.37 107.06)" cx="330.6" cy="-301.57" r="11.88" fill="#95a1ff" filter="url(#a)" style="paint-order:normal"/> <circle cx="330.6" cy="-301.57" r="8.1384" fill="#e6e5ff" style="paint-order:normal"/> </g> <g transform="matrix(.11052 0 0 .11052 65.19 -312.65)"> <circle transform="matrix(1.355 0 0 1.355 -117.37 107.06)" cx="330.6" cy="-301.57" r="11.88" fill="#95a1ff" filter="url(#a)" style="paint-order:normal"/> <circle cx="330.6" cy="-301.57" r="8.1384" fill="#e6e5ff" style="paint-order:normal"/> </g> <g transform="matrix(.11052 0 0 .11052 11.308 -419.66)"> <circle transform="matrix(1.355 0 0 1.355 -117.37 107.06)" cx="330.6" cy="-301.57" r="11.88" fill="#95a1ff" filter="url(#a)" style="paint-order:normal"/> <circle cx="330.6" cy="-301.57" r="8.1384" fill="#e6e5ff" style="paint-order:normal"/> </g> <g transform="matrix(.11052 0 0 .11052 -2.1623 -588.79)"> <circle transform="matrix(1.355 0 0 1.355 -117.37 107.06)" cx="330.6" cy="-301.57" r="11.88" fill="#95a1ff" filter="url(#a)" style="paint-order:normal"/> <circle cx="330.6" cy="-301.57" r="8.1384" fill="#e6e5ff" style="paint-order:normal"/> </g> <g transform="matrix(.11052 0 0 .11052 108.59 -543.89)"> <circle transform="matrix(1.355 0 0 1.355 -117.37 107.06)" cx="330.6" cy="-301.57" r="11.88" fill="#95a1ff" filter="url(#a)" style="paint-order:normal"/> <circle cx="330.6" cy="-301.57" r="8.1384" fill="#e6e5ff" style="paint-order:normal"/> </g> <g transform="matrix(.11052 0 0 .11052 202.14 -575.32)"> <circle transform="matrix(1.355 0 0 1.355 -117.37 107.06)" cx="330.6" cy="-301.57" r="11.88" fill="#95a1ff" filter="url(#a)" style="paint-order:normal"/> <circle cx="330.6" cy="-301.57" r="8.1384" fill="#e6e5ff" style="paint-order:normal"/> </g> <g transform="matrix(.11052 0 0 .11052 329.36 -484.02)"> <circle transform="matrix(1.355 0 0 1.355 -117.37 107.06)" cx="330.6" cy="-301.57" r="11.88" fill="#95a1ff" filter="url(#a)" style="paint-order:normal"/> <circle cx="330.6" cy="-301.57" r="8.1384" fill="#e6e5ff" style="paint-order:normal"/> </g> <g transform="matrix(.11052 0 0 .11052 609.99 -347.07)"> <circle transform="matrix(1.355 0 0 1.355 -117.37 107.06)" cx="330.6" cy="-301.57" r="11.88" fill="#95a1ff" filter="url(#a)" style="paint-order:normal"/> <circle cx="330.6" cy="-301.57" r="8.1384" fill="#e6e5ff" style="paint-order:normal"/> </g> <g transform="matrix(.11052 0 0 .11052 529.17 -454.09)"> <circle transform="matrix(1.355 0 0 1.355 -117.37 107.06)" cx="330.6" cy="-301.57" r="11.88" fill="#95a1ff" filter="url(#a)" style="paint-order:normal"/> <circle cx="330.6" cy="-301.57" r="8.1384" fill="#e6e5ff" style="paint-order:normal"/> </g> <g transform="matrix(.11052 0 0 .11052 596.52 -411.43)"> <circle transform="matrix(1.355 0 0 1.355 -117.37 107.06)" cx="330.6" cy="-301.57" r="11.88" fill="#95a1ff" filter="url(#a)" style="paint-order:normal"/> <circle cx="330.6" cy="-301.57" r="8.1384" fill="#e6e5ff" style="paint-order:normal"/> </g> <g transform="matrix(.11052 0 0 .11052 568.83 -199.65)"> <circle transform="matrix(1.355 0 0 1.355 -117.37 107.06)" cx="330.6" cy="-301.57" r="11.88" fill="#95a1ff" filter="url(#a)" style="paint-order:normal"/> <circle cx="330.6" cy="-301.57" r="8.1384" fill="#e6e5ff" style="paint-order:normal"/> </g> <g transform="matrix(.11052 0 0 .11052 499.98 -173.45)"> <circle transform="matrix(1.355 0 0 1.355 -117.37 107.06)" cx="330.6" cy="-301.57" r="11.88" fill="#95a1ff" filter="url(#a)" style="paint-order:normal"/> <circle cx="330.6" cy="-301.57" r="8.1384" fill="#e6e5ff" style="paint-order:normal"/> </g> <g transform="matrix(.11052 0 0 .11052 407.94 -237.06)"> <circle transform="matrix(1.355 0 0 1.355 -117.37 107.06)" cx="330.6" cy="-301.57" r="11.88" fill="#95a1ff" filter="url(#a)" style="paint-order:normal"/> <circle cx="330.6" cy="-301.57" r="8.1384" fill="#e6e5ff" style="paint-order:normal"/> </g> <g transform="matrix(.11052 0 0 .11052 366.78 -186.18)"> <circle transform="matrix(1.355 0 0 1.355 -117.37 107.06)" cx="330.6" cy="-301.57" r="11.88" fill="#95a1ff" filter="url(#a)" style="paint-order:normal"/> <circle cx="330.6" cy="-301.57" r="8.1384" fill="#e6e5ff" style="paint-order:normal"/> </g> <circle transform="matrix(.14976 0 0 .14976 207.13 -228.97)" cx="330.6" cy="-301.57" r="11.88" fill="#95a1ff" filter="url(#a)" style="paint-order:normal"/> <circle cx="256.64" cy="-274.14" r=".89947" fill="#e6e5ff" style="paint-order:normal"/> <g transform="matrix(.11052 0 0 .11052 201.39 -151.75)"> <circle transform="matrix(1.355 0 0 1.355 -117.37 107.06)" cx="330.6" cy="-301.57" r="11.88" fill="#95a1ff" filter="url(#a)" style="paint-order:normal"/> <circle cx="330.6" cy="-301.57" r="8.1384" fill="#e6e5ff" style="paint-order:normal"/> </g> <g transform="matrix(.11052 0 0 .11052 128.8 -245.3)"> <circle transform="matrix(1.355 0 0 1.355 -117.37 107.06)" cx="330.6" cy="-301.57" r="11.88" fill="#95a1ff" filter="url(#a)" style="paint-order:normal"/> <circle cx="330.6" cy="-301.57" r="8.1384" fill="#e6e5ff" style="paint-order:normal"/> </g> <g transform="matrix(.11052 0 0 .11052 107.85 -199.65)"> <circle transform="matrix(1.355 0 0 1.355 -117.37 107.06)" cx="330.6" cy="-301.57" r="11.88" fill="#95a1ff" filter="url(#a)" style="paint-order:normal"/> <circle cx="330.6" cy="-301.57" r="8.1384" fill="#e6e5ff" style="paint-order:normal"/> </g> <g transform="matrix(.11052 0 0 .11052 192.41 -337.34)"> <circle transform="matrix(1.355 0 0 1.355 -117.37 107.06)" cx="330.6" cy="-301.57" r="11.88" fill="#95a1ff" filter="url(#a)" style="paint-order:normal"/> <circle cx="330.6" cy="-301.57" r="8.1384" fill="#e6e5ff" style="paint-order:normal"/> </g> <g transform="matrix(.11052 0 0 .11052 502.23 -350.06)"> <circle transform="matrix(1.355 0 0 1.355 -117.37 107.06)" cx="330.6" cy="-301.57" r="11.88" fill="#95a1ff" filter="url(#a)" style="paint-order:normal"/> <circle cx="330.6" cy="-301.57" r="8.1384" fill="#e6e5ff" style="paint-order:normal"/> </g> <g transform="matrix(.22696 0 0 .22696 443.13 -455.41)"> <circle transform="matrix(1.355 0 0 1.355 -117.37 107.06)" cx="330.6" cy="-301.57" r="11.88" fill="#95a1ff" filter="url(#a)" style="paint-order:normal"/> <circle cx="330.6" cy="-301.57" r="8.1384" fill="#e6e5ff" style="paint-order:normal"/> </g> <circle transform="matrix(.30753 0 0 .30753 461.39 -374.99)" cx="330.6" cy="-301.57" r="11.88" fill="#95a1ff" filter="url(#a)" style="paint-order:normal"/> <circle cx="563.06" cy="-467.73" r="1.8471" fill="#e6e5ff" style="paint-order:normal"/> <g transform="matrix(.22696 0 0 .22696 372.78 -375.34)"> <circle transform="matrix(1.355 0 0 1.355 -117.37 107.06)" cx="330.6" cy="-301.57" r="11.88" fill="#95a1ff" filter="url(#a)" style="paint-order:normal"/> <circle cx="330.6" cy="-301.57" r="8.1384" fill="#e6e5ff" style="paint-order:normal"/> </g> <g transform="matrix(.22696 0 0 .22696 262.03 -411.26)"> <circle transform="matrix(1.355 0 0 1.355 -117.37 107.06)" cx="330.6" cy="-301.57" r="11.88" fill="#95a1ff" filter="url(#a)" style="paint-order:normal"/> <circle cx="330.6" cy="-301.57" r="8.1384" fill="#e6e5ff" style="paint-order:normal"/> </g> <g transform="matrix(.22696 0 0 .22696 146.78 -222.67)"> <circle transform="matrix(1.355 0 0 1.355 -117.37 107.06)" cx="330.6" cy="-301.57" r="11.88" fill="#95a1ff" filter="url(#a)" style="paint-order:normal"/> <circle cx="330.6" cy="-301.57" r="8.1384" fill="#e6e5ff" style="paint-order:normal"/> </g> <g transform="matrix(.22696 0 0 .22696 119.09 -361.12)"> <circle transform="matrix(1.355 0 0 1.355 -117.37 107.06)" cx="330.6" cy="-301.57" r="11.88" fill="#95a1ff" filter="url(#a)" style="paint-order:normal"/> <circle cx="330.6" cy="-301.57" r="8.1384" fill="#e6e5ff" style="paint-order:normal"/> </g> <g transform="matrix(.22696 0 0 .22696 39.765 -346.15)"> <circle transform="matrix(1.355 0 0 1.355 -117.37 107.06)" cx="330.6" cy="-301.57" r="11.88" fill="#95a1ff" filter="url(#a)" style="paint-order:normal"/> <circle cx="330.6" cy="-301.57" r="8.1384" fill="#e6e5ff" style="paint-order:normal"/> </g> <g transform="matrix(.22696 0 0 .22696 1.5994 -412.75)"> <circle transform="matrix(1.355 0 0 1.355 -117.37 107.06)" cx="330.6" cy="-301.57" r="11.88" fill="#95a1ff" filter="url(#a)" style="paint-order:normal"/> <circle cx="330.6" cy="-301.57" r="8.1384" fill="#e6e5ff" style="paint-order:normal"/> </g> <g transform="matrix(.22696 0 0 .22696 80.177 -446.43)"> <circle transform="matrix(1.355 0 0 1.355 -117.37 107.06)" cx="330.6" cy="-301.57" r="11.88" fill="#95a1ff" filter="url(#a)" style="paint-order:normal"/> <circle cx="330.6" cy="-301.57" r="8.1384" fill="#e6e5ff" style="paint-order:normal"/> </g> <g transform="matrix(.22696 0 0 .22696 4.5928 -530.25)"> <circle transform="matrix(1.355 0 0 1.355 -117.37 107.06)" cx="330.6" cy="-301.57" r="11.88" fill="#95a1ff" filter="url(#a)" style="paint-order:normal"/> <circle cx="330.6" cy="-301.57" r="8.1384" fill="#e6e5ff" style="paint-order:normal"/> </g> <g transform="matrix(.22696 0 0 .22696 130.32 -540.72)"> <circle transform="matrix(1.355 0 0 1.355 -117.37 107.06)" cx="330.6" cy="-301.57" r="11.88" fill="#95a1ff" filter="url(#a)" style="paint-order:normal"/> <circle cx="330.6" cy="-301.57" r="8.1384" fill="#e6e5ff" style="paint-order:normal"/> </g> <g transform="matrix(.22696 0 0 .22696 271.01 -527.25)"> <circle transform="matrix(1.355 0 0 1.355 -117.37 107.06)" cx="330.6" cy="-301.57" r="11.88" fill="#95a1ff" filter="url(#a)" style="paint-order:normal"/> <circle cx="330.6" cy="-301.57" r="8.1384" fill="#e6e5ff" style="paint-order:normal"/> </g> <g transform="matrix(.22696 0 0 .22696 434.9 -442.69)"> <circle transform="matrix(1.355 0 0 1.355 -117.37 107.06)" cx="330.6" cy="-301.57" r="11.88" fill="#95a1ff" filter="url(#a)" style="paint-order:normal"/> <circle cx="330.6" cy="-301.57" r="8.1384" fill="#e6e5ff" style="paint-order:normal"/> </g> <g transform="matrix(.22696 0 0 .22696 458.1 -421.73)"> <circle transform="matrix(1.355 0 0 1.355 -117.37 107.06)" cx="330.6" cy="-301.57" r="11.88" fill="#95a1ff" filter="url(#a)" style="paint-order:normal"/> <circle cx="330.6" cy="-301.57" r="8.1384" fill="#e6e5ff" style="paint-order:normal"/> </g> <g transform="matrix(.22696 0 0 .22696 473.06 -415.75)"> <circle transform="matrix(1.355 0 0 1.355 -117.37 107.06)" cx="330.6" cy="-301.57" r="11.88" fill="#95a1ff" filter="url(#a)" style="paint-order:normal"/> <circle cx="330.6" cy="-301.57" r="8.1384" fill="#e6e5ff" style="paint-order:normal"/> <circle transform="matrix(1.355 0 0 1.355 -117.37 107.06)" cx="330.6" cy="-301.57" r="11.88" fill="#95a1ff" filter="url(#a)" style="paint-order:normal"/> <circle cx="330.6" cy="-301.57" r="8.1384" fill="#e6e5ff" style="paint-order:normal"/> </g> <g transform="matrix(.11052 0 0 .11052 517.2 -443.61)"> <circle transform="matrix(1.355 0 0 1.355 -117.37 107.06)" cx="330.6" cy="-301.57" r="11.88" fill="#95a1ff" filter="url(#a)" style="paint-order:normal"/> <circle cx="330.6" cy="-301.57" r="8.1384" fill="#e6e5ff" style="paint-order:normal"/> </g> <g transform="matrix(.11052 0 0 .11052 496.99 -442.11)"> <circle transform="matrix(1.355 0 0 1.355 -117.37 107.06)" cx="330.6" cy="-301.57" r="11.88" fill="#95a1ff" filter="url(#a)" style="paint-order:normal"/> <circle cx="330.6" cy="-301.57" r="8.1384" fill="#e6e5ff" style="paint-order:normal"/> </g> <g transform="matrix(.11052 0 0 .11052 479.78 -457.83)"> <circle transform="matrix(1.355 0 0 1.355 -117.37 107.06)" cx="330.6" cy="-301.57" r="11.88" fill="#95a1ff" filter="url(#a)" style="paint-order:normal"/> <circle cx="330.6" cy="-301.57" r="8.1384" fill="#e6e5ff" style="paint-order:normal"/> </g> <g transform="matrix(.11052 0 0 .11052 486.51 -475.79)"> <circle transform="matrix(1.355 0 0 1.355 -117.37 107.06)" cx="330.6" cy="-301.57" r="11.88" fill="#95a1ff" filter="url(#a)" style="paint-order:normal"/> <circle cx="330.6" cy="-301.57" r="8.1384" fill="#e6e5ff" style="paint-order:normal"/> </g> <g transform="matrix(.11052 0 0 .11052 492.5 -487.01)"> <circle transform="matrix(1.355 0 0 1.355 -117.37 107.06)" cx="330.6" cy="-301.57" r="11.88" fill="#95a1ff" filter="url(#a)" style="paint-order:normal"/> <circle cx="330.6" cy="-301.57" r="8.1384" fill="#e6e5ff" style="paint-order:normal"/> </g> <g transform="matrix(.11052 0 0 .11052 511.96 -493.75)"> <circle transform="matrix(1.355 0 0 1.355 -117.37 107.06)" cx="330.6" cy="-301.57" r="11.88" fill="#95a1ff" filter="url(#a)" style="paint-order:normal"/> <circle cx="330.6" cy="-301.57" r="8.1384" fill="#e6e5ff" style="paint-order:normal"/> </g> <g transform="matrix(.11052 0 0 .11052 538.9 -480.28)"> <circle transform="matrix(1.355 0 0 1.355 -117.37 107.06)" cx="330.6" cy="-301.57" r="11.88" fill="#95a1ff" filter="url(#a)" style="paint-order:normal"/> <circle cx="330.6" cy="-301.57" r="8.1384" fill="#e6e5ff" style="paint-order:normal"/> </g> <g transform="matrix(.11052 0 0 .11052 518.69 -475.79)"> <circle transform="matrix(1.355 0 0 1.355 -117.37 107.06)" cx="330.6" cy="-301.57" r="11.88" fill="#95a1ff" filter="url(#a)" style="paint-order:normal"/> <circle cx="330.6" cy="-301.57" r="8.1384" fill="#e6e5ff" style="paint-order:normal"/> </g> <g transform="matrix(.11052 0 0 .11052 505.22 -472.8)"> <circle transform="matrix(1.355 0 0 1.355 -117.37 107.06)" cx="330.6" cy="-301.57" r="11.88" fill="#95a1ff" filter="url(#a)" style="paint-order:normal"/> <circle cx="330.6" cy="-301.57" r="8.1384" fill="#e6e5ff" style="paint-order:normal"/> </g> <g transform="matrix(.11052 0 0 .11052 495.49 -461.57)"> <circle transform="matrix(1.355 0 0 1.355 -117.37 107.06)" cx="330.6" cy="-301.57" r="11.88" fill="#95a1ff" filter="url(#a)" style="paint-order:normal"/> <circle cx="330.6" cy="-301.57" r="8.1384" fill="#e6e5ff" style="paint-order:normal"/> </g> <g transform="matrix(.11052 0 0 .11052 476.04 -466.81)"> <circle transform="matrix(1.355 0 0 1.355 -117.37 107.06)" cx="330.6" cy="-301.57" r="11.88" fill="#95a1ff" filter="url(#a)" style="paint-order:normal"/> <circle cx="330.6" cy="-301.57" r="8.1384" fill="#e6e5ff" style="paint-order:normal"/> </g> <g transform="matrix(.11052 0 0 .11052 436.37 -495.99)"> <circle transform="matrix(1.355 0 0 1.355 -117.37 107.06)" cx="330.6" cy="-301.57" r="11.88" fill="#95a1ff" filter="url(#a)" style="paint-order:normal"/> <circle cx="330.6" cy="-301.57" r="8.1384" fill="#e6e5ff" style="paint-order:normal"/> </g> <g transform="matrix(.11052 0 0 .11052 496.99 -525.18)"> <circle transform="matrix(1.355 0 0 1.355 -117.37 107.06)" cx="330.6" cy="-301.57" r="11.88" fill="#95a1ff" filter="url(#a)" style="paint-order:normal"/> <circle cx="330.6" cy="-301.57" r="8.1384" fill="#e6e5ff" style="paint-order:normal"/> </g> <g transform="matrix(.11052 0 0 .11052 535.16 -561.85)"> <circle transform="matrix(1.355 0 0 1.355 -117.37 107.06)" cx="330.6" cy="-301.57" r="11.88" fill="#95a1ff" filter="url(#a)" style="paint-order:normal"/> <circle cx="330.6" cy="-301.57" r="8.1384" fill="#e6e5ff" style="paint-order:normal"/> </g> <g transform="matrix(.11052 0 0 .11052 461.82 -559.6)"> <circle transform="matrix(1.355 0 0 1.355 -117.37 107.06)" cx="330.6" cy="-301.57" r="11.88" fill="#95a1ff" filter="url(#a)" style="paint-order:normal"/> <circle cx="330.6" cy="-301.57" r="8.1384" fill="#e6e5ff" style="paint-order:normal"/> </g> <g transform="matrix(.11052 0 0 .11052 559.85 -491.5)"> <circle transform="matrix(1.355 0 0 1.355 -117.37 107.06)" cx="330.6" cy="-301.57" r="11.88" fill="#95a1ff" filter="url(#a)" style="paint-order:normal"/> <circle cx="330.6" cy="-301.57" r="8.1384" fill="#e6e5ff" style="paint-order:normal"/> </g> <g transform="matrix(.11052 0 0 .11052 559.1 -379.25)"> <circle transform="matrix(1.355 0 0 1.355 -117.37 107.06)" cx="330.6" cy="-301.57" r="11.88" fill="#95a1ff" filter="url(#a)" style="paint-order:normal"/> <circle cx="330.6" cy="-301.57" r="8.1384" fill="#e6e5ff" style="paint-order:normal"/> </g> <g transform="matrix(.11052 0 0 .11052 561.35 -287.95)"> <circle transform="matrix(1.355 0 0 1.355 -117.37 107.06)" cx="330.6" cy="-301.57" r="11.88" fill="#95a1ff" filter="url(#a)" style="paint-order:normal"/> <circle cx="330.6" cy="-301.57" r="8.1384" fill="#e6e5ff" style="paint-order:normal"/> </g> <g transform="matrix(.11052 0 0 .11052 453.59 -305.16)"> <circle transform="matrix(1.355 0 0 1.355 -117.37 107.06)" cx="330.6" cy="-301.57" r="11.88" fill="#95a1ff" filter="url(#a)" style="paint-order:normal"/> <circle cx="330.6" cy="-301.57" r="8.1384" fill="#e6e5ff" style="paint-order:normal"/> </g> <g transform="matrix(.11052 0 0 .11052 333.1 -365.78)"> <circle transform="matrix(1.355 0 0 1.355 -117.37 107.06)" cx="330.6" cy="-301.57" r="11.88" fill="#95a1ff" filter="url(#a)" style="paint-order:normal"/> <circle cx="330.6" cy="-301.57" r="8.1384" fill="#e6e5ff" style="paint-order:normal"/> </g> <g transform="matrix(.11052 0 0 .11052 290.44 -359.79)"> <circle transform="matrix(1.355 0 0 1.355 -117.37 107.06)" cx="330.6" cy="-301.57" r="11.88" fill="#95a1ff" filter="url(#a)" style="paint-order:normal"/> <circle cx="330.6" cy="-301.57" r="8.1384" fill="#e6e5ff" style="paint-order:normal"/> </g> <g transform="matrix(.11052 0 0 .11052 209.62 -433.88)"> <circle transform="matrix(1.355 0 0 1.355 -117.37 107.06)" cx="330.6" cy="-301.57" r="11.88" fill="#95a1ff" filter="url(#a)" style="paint-order:normal"/> <circle cx="330.6" cy="-301.57" r="8.1384" fill="#e6e5ff" style="paint-order:normal"/> </g> <g transform="matrix(.11052 0 0 .11052 244.79 -354.56)"> <circle transform="matrix(1.355 0 0 1.355 -117.37 107.06)" cx="330.6" cy="-301.57" r="11.88" fill="#95a1ff" filter="url(#a)" style="paint-order:normal"/> <circle cx="330.6" cy="-301.57" r="8.1384" fill="#e6e5ff" style="paint-order:normal"/> </g> <g transform="matrix(.11052 0 0 .11052 303.17 -231.08)"> <circle transform="matrix(1.355 0 0 1.355 -117.37 107.06)" cx="330.6" cy="-301.57" r="11.88" fill="#95a1ff" filter="url(#a)" style="paint-order:normal"/> <circle cx="330.6" cy="-301.57" r="8.1384" fill="#e6e5ff" style="paint-order:normal"/> </g> <g transform="matrix(.11052 0 0 .11052 295.68 -348.57)"> <circle transform="matrix(1.355 0 0 1.355 -117.37 107.06)" cx="330.6" cy="-301.57" r="11.88" fill="#95a1ff" filter="url(#a)" style="paint-order:normal"/> <circle cx="330.6" cy="-301.57" r="8.1384" fill="#e6e5ff" style="paint-order:normal"/> </g> <g transform="matrix(.11052 0 0 .11052 306.91 -374.01)"> <circle transform="matrix(1.355 0 0 1.355 -117.37 107.06)" cx="330.6" cy="-301.57" r="11.88" fill="#95a1ff" filter="url(#a)" style="paint-order:normal"/> <circle cx="330.6" cy="-301.57" r="8.1384" fill="#e6e5ff" style="paint-order:normal"/> </g> <g transform="matrix(.11052 0 0 .11052 324.87 -349.32)"> <circle transform="matrix(1.355 0 0 1.355 -117.37 107.06)" cx="330.6" cy="-301.57" r="11.88" fill="#95a1ff" filter="url(#a)" style="paint-order:normal"/> <circle cx="330.6" cy="-301.57" r="8.1384" fill="#e6e5ff" style="paint-order:normal"/> </g> <g transform="matrix(.11052 0 0 .11052 121.32 -356.05)"> <circle transform="matrix(1.355 0 0 1.355 -117.37 107.06)" cx="330.6" cy="-301.57" r="11.88" fill="#95a1ff" filter="url(#a)" style="paint-order:normal"/> <circle cx="330.6" cy="-301.57" r="8.1384" fill="#e6e5ff" style="paint-order:normal"/> </g> <g transform="matrix(.11052 0 0 .11052 96.621 -371.77)"> <circle transform="matrix(1.355 0 0 1.355 -117.37 107.06)" cx="330.6" cy="-301.57" r="11.88" fill="#95a1ff" filter="url(#a)" style="paint-order:normal"/> <circle cx="330.6" cy="-301.57" r="8.1384" fill="#e6e5ff" style="paint-order:normal"/> </g> <g transform="matrix(.11052 0 0 .11052 109.34 -350.06)"> <circle transform="matrix(1.355 0 0 1.355 -117.37 107.06)" cx="330.6" cy="-301.57" r="11.88" fill="#95a1ff" filter="url(#a)" style="paint-order:normal"/> <circle cx="330.6" cy="-301.57" r="8.1384" fill="#e6e5ff" style="paint-order:normal"/> </g> <g transform="matrix(.11052 0 0 .11052 163.97 -518.44)"> <circle transform="matrix(1.355 0 0 1.355 -117.37 107.06)" cx="330.6" cy="-301.57" r="11.88" fill="#95a1ff" filter="url(#a)" style="paint-order:normal"/> <circle cx="330.6" cy="-301.57" r="8.1384" fill="#e6e5ff" style="paint-order:normal"/> </g> <g transform="matrix(.11052 0 0 .11052 202.89 -441.36)"> <circle transform="matrix(1.355 0 0 1.355 -117.37 107.06)" cx="330.6" cy="-301.57" r="11.88" fill="#95a1ff" filter="url(#a)" style="paint-order:normal"/> <circle cx="330.6" cy="-301.57" r="8.1384" fill="#e6e5ff" style="paint-order:normal"/> </g> <g transform="matrix(.11052 0 0 .11052 126.55 -471.3)"> <circle transform="matrix(1.355 0 0 1.355 -117.37 107.06)" cx="330.6" cy="-301.57" r="11.88" fill="#95a1ff" filter="url(#a)" style="paint-order:normal"/> <circle cx="330.6" cy="-301.57" r="8.1384" fill="#e6e5ff" style="paint-order:normal"/> </g> <g transform="matrix(.11052 0 0 .11052 105.6 -484.02)"> <circle transform="matrix(1.355 0 0 1.355 -117.37 107.06)" cx="330.6" cy="-301.57" r="11.88" fill="#95a1ff" filter="url(#a)" style="paint-order:normal"/> <circle cx="330.6" cy="-301.57" r="8.1384" fill="#e6e5ff" style="paint-order:normal"/> </g> <g transform="matrix(.11052 0 0 .11052 114.58 -504.97)"> <circle transform="matrix(1.355 0 0 1.355 -117.37 107.06)" cx="330.6" cy="-301.57" r="11.88" fill="#95a1ff" filter="url(#a)" style="paint-order:normal"/> <circle cx="330.6" cy="-301.57" r="8.1384" fill="#e6e5ff" style="paint-order:normal"/> </g> <g transform="matrix(.11052 0 0 .11052 66.686 -464.56)"> <circle transform="matrix(1.355 0 0 1.355 -117.37 107.06)" cx="330.6" cy="-301.57" r="11.88" fill="#95a1ff" filter="url(#a)" style="paint-order:normal"/> <circle cx="330.6" cy="-301.57" r="8.1384" fill="#e6e5ff" style="paint-order:normal"/> </g> <g transform="matrix(.11052 0 0 .11052 92.879 -416.67)"> <circle transform="matrix(1.355 0 0 1.355 -117.37 107.06)" cx="330.6" cy="-301.57" r="11.88" fill="#95a1ff" filter="url(#a)" style="paint-order:normal"/> <circle cx="330.6" cy="-301.57" r="8.1384" fill="#e6e5ff" style="paint-order:normal"/> </g> <g transform="matrix(.11052 0 0 .11052 322.62 -534.16)"> <circle transform="matrix(1.355 0 0 1.355 -117.37 107.06)" cx="330.6" cy="-301.57" r="11.88" fill="#95a1ff" filter="url(#a)" style="paint-order:normal"/> <circle cx="330.6" cy="-301.57" r="8.1384" fill="#e6e5ff" style="paint-order:normal"/> </g> <g transform="matrix(.11052 0 0 .11052 -16.381 -361.29)"> <circle transform="matrix(1.355 0 0 1.355 -117.37 107.06)" cx="330.6" cy="-301.57" r="11.88" fill="#95a1ff" filter="url(#a)" style="paint-order:normal"/> <circle cx="330.6" cy="-301.57" r="8.1384" fill="#e6e5ff" style="paint-order:normal"/> </g> </g> </svg>