<?xml version='1.0' encoding='utf-8'?>
<svg xmlns="http://www.w3.org/2000/svg" width="275mm" height="488.95mm" version="1.1" viewBox="0 0 275 488.95"> <defs> <linearGradient id="e" x1="1082.7" x2="1082.7" y1="-93.701" y2="244.52" gradientUnits="userSpaceOnUse"> <stop stop-color="#2e251e" offset="0"/> <stop stop-color="#744227" offset=".675"/> <stop stop-color="#a75b31" offset=".8375"/> <stop stop-color="#c3763c" offset=".91875"/> <stop stop-color="#e09148" offset="1"/> </linearGradient> <linearGradient id="d" x1="1251.2" x2="1251.2" y1="337.6" y2="158.25" gradientUnits="userSpaceOnUse"> <stop stop-color="#d4a280" offset="0"/> <stop stop-color="#a97761" offset=".5"/> <stop stop-color="#ca7c3f" offset="1"/> </linearGradient> <filter id="f" x="-.023682" y="-.0314" width="1.0474" height="1.0628" color-interpolation-filters="sRGB"> <feGaussianBlur stdDeviation="3.9425297"/> </filter> <linearGradient id="c" x1="1119.9" x2="1107.3" y1="17.068" y2="122.59" gradientUnits="userSpaceOnUse"> <stop stop-color="#503023" offset="0"/> <stop stop-color="#a15931" offset="1"/> </linearGradient> <linearGradient id="b" x1="1168" x2="1168" y1="93.127" y2="156.05" gradientUnits="userSpaceOnUse"> <stop stop-color="#603a25" offset="0"/> <stop stop-color="#99552e" offset="1"/> </linearGradient> <linearGradient id="a" x1="1277.7" x2="1277.7" y1="206.5" y2="302.79" gradientUnits="userSpaceOnUse"> <stop stop-color="#985439" offset="0"/> <stop stop-color="#8f573d" offset="1"/> </linearGradient> <clipPath id="g"> <rect x="1081.8" y="-92.72" width="214.32" height="381.63" rx="0" ry="0" fill="#faa" fill-rule="evenodd" style="paint-order:stroke fill markers"/> </clipPath> </defs> <g transform="translate(-645.58 86.715)"> <g transform="matrix(1.2831 0 0 1.2812 -742.58 32.078)" clip-path="url(#g)" stroke-width=".77993"> <g fill-rule="evenodd" stroke-width=".77993"> <g clip-path="none"> <path d="m1082.7-93.701c-0.376 0-0.7153 0.15153-0.9606 0.39688-0.2454 0.24535-0.3969 0.58467-0.3969 0.96066v476.45c0 0.376 0.1515 0.71531 0.3969 0.96066 0.2453 0.24535 0.5846 0.39636 0.9606 0.39636h261.87c0.376 0 0.7153-0.15101 0.9607-0.39636 0.2453-0.24535 0.3963-0.58466 0.3963-0.96066v-476.45c0-0.376-0.151-0.71531-0.3963-0.96066-0.2454-0.24535-0.5847-0.39688-0.9607-0.39688zm153.92 339.46c-2.7251 1.0275-4.7579 1.6754-6.5784 2.1668 1.8205-0.49143 3.8533-1.1393 6.5784-2.1668zm-113.03 16.083c-4.5568 0.49143-10.409 0.87123-16.675 1.2733 6.2656-0.40208 12.118-0.78188 16.675-1.2733z" fill="url(#e)" style="paint-order:stroke fill markers"/> <path d="m1070.5 81.436c-6.9498 8.087-13.9 16.174-20.849 24.261 13.978 9.842 29.311 17.132 46.066 20.715 13.788 5.5961 28.172 9.6441 43.192 9.256 29.104 1.7993 58.441 8.3416 87.52 2.7559 15.414-0.24346 32.238 0.12149 44.732-10.551 8.1638-3.5915 19.943-5.2652 26.22-9.7296-15.685 0.76536-32.75 0.0784-45.774 10.338-14.188 1.6337-27.641-10-42.635-8.4729-13.508-7.0205-27.455 3.515-41.431-0.35863-12.546-5.413-19.96-22.904-36.929-17.53-15.648 6.7884-29.156-2.3602-42.832-7.2706-8.8026-0.33073-15.549-4.1923-17.279-13.413zm257.22 41.383c-15.542 0.14908-26.55 14.618-42.353 14.158-7.4665 0.40161-30.331 3.8193-12.172 9.2875 15.611 2.4956 31.623-1.8543 47.06-4.0881 18.231 1.2618 34.99-10.701 53.129-8.0482-10.132-3.2187-18.915-8.9988-29.722-9.6748-5.2789-0.78963-10.589-1.6508-15.941-1.6346zm34.67 22.303c-18.016-0.23022-31.961 14.374-49.793 13.441-7.9017-5.2262-29.679 4.924-12.076 9.1562 20.663 5.7612 43.828 5.2796 63.581-3.3357 10.358-5.1404 6.3919-11.795-0.2433-17.557-0.4895-0.56788-0.9791-1.1358-1.4686-1.7036z" fill="url(#b)" style="paint-order:stroke fill markers"/> <path d="m1345.9 194.21c-0.4118 0.35499-0.879 0.71005-1.2847 1.065-2.1444 1.8764-4.1997 3.7525-6.4223 5.5842-1.1113 0.91584-2.2646 1.8204-3.4918 2.7084-1.2271 0.88791-2.528 1.7593-3.9352 2.6081-1.4073 0.84881-2.9209 1.6756-4.4943 2.4825s-3.2065 1.5941-4.8539 2.3647c-3.2948 1.5413-6.6458 3.0156-9.6837 4.4452-6.0758 2.8592-10.9 5.5398-15.279 7.5055-2.1891 0.98285-4.2667 1.7871-6.2994 2.5466-2.0328 0.75948-4.0209 1.4743-6.0311 2.2784-2.0104 0.80413-4.043 1.6974-6.1092 2.5797s-4.1658 1.7536-6.3102 2.513c-2.1444 0.75947-4.3336 1.4071-6.7795 2.1554-2.446 0.74831-5.1489 1.5974-8.3209 2.759-6.3438 2.3231-14.564 5.8969-20.014 7.952-2.7251 1.0275-4.7579 1.6754-6.5784 2.1668-1.8205 0.49142-3.4287 0.82679-5.3051 1.2289-1.8763 0.40208-4.021 0.8707-6.4446 1.3286s-5.1266 0.90505-8.1199 1.2624c-2.9932 0.3574-6.2767 0.62539-9.3369 0.80409-3.0603 0.17871-5.8972 0.2682-7.9969 0.2682s-3.4623-0.0897-4.8137-0.22376c-1.3515-0.13403-2.692-0.31274-4.747-0.49145-2.0551-0.1787-4.8248-0.35721-7.7287-0.48007-2.9038-0.12286-5.9416-0.18989-8.5328-0.14521-2.5911 0.0447-4.7354 0.20089-6.5335 0.42426-1.7982 0.22338-3.2503 0.5141-4.4565 0.82683-2.4125 0.62545-3.8419 1.3402-5.0928 1.6976s-2.3232 0.35739-4.0209 0.89348c-1.6976 0.5361-4.0207 1.6084-7.1479 2.8593-1.5637 0.62545-3.3286 1.2956-5.8415 1.9322-1.2565 0.31831-2.7001 0.62806-4.3992 0.91984-1.699 0.29178-3.6535 0.56561-5.9319 0.81132-4.5568 0.49143-10.409 0.87123-16.675 1.2733-6.2657 0.40207-12.945 0.82637-19.154 1.4072-2.3364 0.21851-4.2219 0.50447-6.4166 0.75654v2.0691h-40.456c-0.752 0-1.357 0.60502-1.357 1.357v225.49c0 0.752 0.605 1.357 1.357 1.357h396.84c0.752 0 1.3575-0.60502 1.3575-1.357v-225.49c0-0.752-0.6055-1.357-1.3575-1.357h-6.8425v-56.776c0-0.752-0.6055-1.3575-1.3575-1.3575z" fill="url(#d)" filter="url(#f)" style="paint-order:stroke fill markers"/> <path d="m1316.5 189.68c-5.7133 0.98072-28.873 10.011-11.194 8.0729 4.4669 7e-3 21.511-3.8727 18.976-3.5962-6.1467-1.5231 11.13-5.0334-0.4413-3.845-2.5186 0.37666-4.8528-0.45829-7.3412-0.6318zm-43.949 12.385c-13.463 5.7858-28.172 8.1813-40.384 17.292-7.8736 4.153-32.557 4.3025-30.832 12.667 6.9189 1.2449 23.88 3.8702 8.6129 5.3557-13.479 4.1584 12.307 2.1632 16.418 3.406 11.988 1.0954 8.7278-4.4849-1.5333-4.5677 14.765 0.40281 27.795-6.6458 42.163-8.7466 4.1831-4.7116 25.252-0.62854 9.5759 1.6543-7.0146 3.6411-24.978 13.204-6.1801 10.322 13.844 2.8887 27.977 5.9028 41.932 0.20648 14.332-6.2006 1.4828 2.2675 1.9781 3.8765 10.774-1.6943 25.607-6.7213 32.153-8.4393 10.371 4.6728 25.037-14.67 6.5448-10.744-15.873 2.2961-31.033-1.2716-46.252-4.9318-6.8959-1.8797-25.988 6.0211-11.211-4.1658 7.3528-0.6466 22.172-3.9478 7.55-9.4139-10.399-0.30894-20.131-4.2988-30.536-3.7715zm-184.04 15.224c-9.3709-1.2267-12.634 6.7341-14.68 14.006-2.0819 5.1784-3.7757 10.565-6.1707 15.579 13.928 3.0398 27.694-0.74284 38.656-9.4632 1.973-6.9134 19.684-9.0068 4.0873-13.094 7.5883-11.977-16.083-4.8813-21.892-7.0272zm244.6 16.259c2.6146 0.29363-15.711 2.4699-2.1006 0.0414l2.1006-0.0415zm22.074 7.0998c-16.429 0.29328-30.844 9.4708-45.841 15.213-12.333 4.1784 14.865-0.37863 18.421-2.2615 7.3205-7.3968 28.989 5.4735 27.703-7.7758-0.094-1.7253-0.1883-3.4506-0.2825-5.1759zm-50.73 17.209-0.5091 0.13384zm-7.3732-13.677c-7.852 1.1306-13.512 5.6953-1.7756 5.5025 9.106 0.55242 14.931-4.0093 1.7756-5.5025zm-68.992 0.23306c-7.398-0.4376-21.406 3.0871-6.5232 5.0537 3.341 3.2422 17.057-4.2784 6.5232-5.0537zm-56.476 3.4272c-7.6801 1.2375-19.293-0.44767-23.982 5.1305 7.9283-2.1992 30.45 1.6368 30.948-3.7528-2.2614-0.6938-4.5744-1.4121-6.9665-1.3777zm-81.912 1.6376c-11.468-1.936-14.23 7.2745-15.612 16.009 3.0366 8.9275 26.015 3.8318 36.202 4.5677-12.416 15.154 30.044 5.6928 17.57 16.084-12.249 16.072 4.5016 30.661 21.272 27.806 26.612 1.1761 52.964-3.7632 79.374-5.7249 30.146 0.36509 60.988 7.1459 90.494-2.1996 11.378-7.3506 28.869-1.4165 37.204-11.801-6.3582-1.8878-31.6-3.861-11.327-5.3175 10.567 1.4066 13.72-5.7612 1.5638-3.7827-7.8392 0.49051-30.515 4.9765-29.087 0.039 5.8986 0.27886-3.0727-7.2363 7.7396-3.7119 8.4823-2.2971 29.563 3.8075 31.089-2.2295-5.139-10.958-19.921-3.5802-29.257-3.9304-6.6695 0.87544-23.951 2.8143-15.812-2.0774-7.6481 1.0104-14.876-0.91121-3.3568-1.7089 16.079-3.4687-18.973-3.2175-23.79-6.7908-25.19-1.9432 26.213 7.0402 6.1319 7.8853-13.03-0.37683-3.4552 3.2108 3.1843 4.0726-12.164 8.1373-27.985 5.406-41.937 6.9-15.488-0.11735-30.994 0.87202-46.453 1.0031-8.8289 4.7002-22.698-2.722-27.372-2.6341 13.268-2.9104 26.936-0.0356 38.929-5.3962 15.443-5.564 29.743 8.1786 45.81 4.0579 10.906 0.28154 9.7148-4.997-0.1406-6.2431-8.0181 0.41408-23.732-1.7173-7.3603-4.5806 6.2354-0.035 14.421-2.7008 2.5585-3.0959-15.785-0.84406-31.321 4.5723-47.29 3.1275 2.7722-4.6342 36.219-9.617 13.911-8.4197-12.617 1.873-29.427-2.9348-39.499 2.4495 8.4612 3.2864 16.566 4.6188 3.8899 3.5617-11.144 1.1535-33.969 2.9745-37.446-1.2829 5.8814-1.5203 26.87-2.1007 24.149-6.3075-13.713-3.1355-27.694 1.2205-41.51-1.7138-10.35 2.3827-5.0127-0.89701-2.7322-6.6854-13.476-3.1108-27.43 1.3557-41.088-1.9289zm182.86 0.55294c-4.9313 1.1596-33.881-0.72602-16.303 5.18 4.0646 1.8839 32.918 3.4731 18.542 0.0433-14.163 0.59986-0.7698-2.9647 2.3868-4.8606l-3.0168-0.34778-1.6082-0.015zm-63.629 0.14572c-9.4923-0.19928-30.112 1.7707-13.815 6.0886 7.8906 1.1434 24.741 3.9279 28.002-1.5442-6.9362-1.1279-11.299-1.5088-14.188-4.5444z" fill="url(#a)" style="paint-order:stroke fill markers"/> <path d="m1073.4 19.077c-2.2744 8.024-4.5489 16.048-6.8233 24.072 15.278 8.0442 31.57 19.745 49.806 14.97 14.666-3.2335 22.793-16.55 37.635-20.403 6.2381-4.4344 4.4277-16.763-3.1905-7.5184-12.322 4.9192-25.866 3.9983-35.949 12.573-14.364-1.1508-30.61-13.53-41.478-23.693zm1.7865 44.853c-1.8493 4.3674-13.58 11.704-3.2978 12.542 17.108 0.60589 30.875 15.438 48.486 10.689 12.314-2.6836 7.3526-6.531-2.4345-4.7578-16.357 2.1171-26.582-11.332-40.029-17.241l-2.7248-1.232zm65.97 23.895c0.456 1.2835 1.0503-0.2457 0 0zm0.5261 0.44855c-0.8847 9.6831 6.9877 15.803 13.492 21.66 13.33 8.6679 30.765-1.8889 43.922 8.0199 15.774-0.0105 33.491-1.6117 46.911-9.9823-7.4186-2.771-24.946-3.7644-35.823-0.82166-14.862-2.1873-30.396-1.5507-44.636-6.8549-7.8856-4.1984-15.314-8.9838-23.866-12.021zm212.95 7.6884c-15.598 1.0442-30.056 9.1713-45.764 5.3136-15.288 1.878-31.267-6.8923-45.641 1.3655-12.724 5.7493 11.831-0.0395 15.257 6.6564 13.827 0.55115 28.489 4.7418 41.905-0.045 10.146-0.39412 33.382-3.604 34.715-6.9271-0.1572-2.1212-0.3144-4.2423-0.4716-6.3635zm2.7203 7.0657c2.2837-0.43427 2.1382-0.47836 0 0zm-238.29-3.4468c-15.299-0.1178-29.065 5.4906-42.542 8.3234-12.21 9.9273 7.0689 7.7242 14.598 6.1289 15.008-0.0238 24.171 14.064 38.264 17.423 9.1835 1.9235 31.622 1.2144 33.596-1.1167-10.704-3.4862-34.565-8.3054-38.016-12.571 3.906-2.73 24.382-3.2841 8.8933-4.5847-8.4513-0.27855-20.327-5.3068-25.85-7.1259 2.3055-3.6212 9.6037-4.7 11.057-6.4777zm165.57 22.879c-9.3598-0.8428-12.89 4.8172-0.9745 3.5061 7.561-0.26414 13.668-3.1745 1.9037-3.3681l-0.9292-0.13798zm-63.803 1.849c-14.101-1.0506-26.561 6.8255-40.431 6.7681-1.4269 10.107 21.757 6.0076 28.101 1.2061 8.6031-5.221 36.33-0.97068 34.177-5.4948-7.3497-0.54453-14.385-2.9881-21.846-2.4795zm107.26 8.4124c-14.121 3.1167-29.474-1.7599-43.085 4.0612-7.5082-0.27182-12.551 4.4946-1.6513 4.422 15.143 2.0229 30.915 0.8463 44.211-7.4553 0.05 0.51954 1.1874-1.1495 0.5256-1.0279z" fill="url(#c)" style="paint-order:stroke fill markers"/> </g> <path d="m1327.7-87.773c-0.029 0-0.051 0.02238-0.051 0.04994v0.40579c-2e-4 0.11212-0.091 0.20295-0.2032 0.20318h-0.4058c-0.027 0-0.049 0.02238-0.049 0.04994s0.022 0.04995 0.049 0.04995h0.4058c0.1121 2.32e-4 0.203 0.09106 0.2032 0.20318v0.40579c0 0.02756 0.023 0.04994 0.051 0.04994 0.027 0 0.049-0.02239 0.049-0.04994v-0.40579c2e-4 -0.11212 0.091-0.20295 0.2032-0.20318h0.4057c0.027 0 0.049-0.02239 0.049-0.04995s-0.022-0.04994-0.049-0.04994h-0.4057c-0.1121-2.32e-4 -0.203-0.09106-0.2032-0.20318v-0.40579c0-0.02754-0.022-0.04994-0.049-0.04994zm-210.67 0.58116c-0.029 0-0.051 0.02239-0.051 0.04995v0.40579c-2e-4 0.11208-0.091 0.20289-0.2031 0.20318h-0.4058c-0.027 0-0.05 0.02239-0.05 0.04995s0.022 0.04994 0.05 0.04994h0.4058c0.1121 2.87e-4 0.2029 0.0911 0.2031 0.20318v0.40579c0 0.02756 0.023 0.04995 0.051 0.04995 0.027 0 0.049-0.02239 0.049-0.04995v-0.40579c2e-4 -0.11212 0.091-0.20295 0.2032-0.20318h0.4058c0.027 0 0.049-0.02239 0.049-0.04994 0-0.02756-0.022-0.04995-0.049-0.04995h-0.4058c-0.1121-2.32e-4 -0.203-0.09106-0.2032-0.20318v-0.40579c0-0.02754-0.022-0.04995-0.049-0.04995zm163.02 2.6152c-0.029 0-0.051 0.02239-0.051 0.04995v0.40579c-2e-4 0.11212-0.091 0.20295-0.2032 0.20318h-0.4057c-0.027 0-0.049 0.02239-0.049 0.04994 0 0.02756 0.022 0.04994 0.049 0.04994h0.4057c0.1121 2.32e-4 0.203 0.09106 0.2032 0.20318v0.40579c0 0.02756 0.023 0.04995 0.051 0.04995 0.027 0 0.049-0.02239 0.049-0.04995v-0.40579c2e-4 -0.11208 0.091-0.20289 0.2031-0.20318h0.4058c0.027 0 0.049-0.02238 0.049-0.04994s-0.022-0.04994-0.049-0.04994h-0.4058c-0.1121-2.87e-4 -0.2029-0.0911-0.2031-0.20318v-0.40579c0-0.02755-0.022-0.04995-0.049-0.04995zm-172.63 1.2997c-0.027 0-0.049 0.02238-0.049 0.04994v0.40579c-2e-4 0.11212-0.091 0.20295-0.2032 0.20318h-0.4058c-0.029 0-0.051 0.02238-0.051 0.04994 0 0.02757 0.023 0.04995 0.051 0.04995h0.4058c0.1121 2.32e-4 0.203 0.09106 0.2032 0.20318v0.40579c0 0.02757 0.022 0.04994 0.049 0.04994s0.049-0.02238 0.049-0.04994v-0.40579c2e-4 -0.11212 0.091-0.20295 0.2032-0.20318h0.4058c0.029 0 0.051-0.02238 0.051-0.04995s-0.023-0.04994-0.051-0.04994h-0.4058c-0.1121-2.32e-4 -0.203-0.09106-0.2032-0.20318v-0.40579c0-0.02757-0.022-0.04994-0.049-0.04994zm140.93 9.8798c-0.027 0-0.049 0.02237-0.049 0.04994v0.40579c-2e-4 0.11212-0.091 0.20295-0.2032 0.20318h-0.4058c-0.027 0-0.049 0.02238-0.049 0.04995s0.022 0.04994 0.049 0.04994h0.4058c0.1121 2.32e-4 0.203 0.09106 0.2032 0.20318v0.40579c0 0.02757 0.022 0.04994 0.049 0.04994 0.029 0 0.051-0.02238 0.051-0.04994v-0.40579c2e-4 -0.11208 0.091-0.20289 0.2031-0.20318h0.4058c0.027 0 0.05-0.02238 0.05-0.04994 0-0.02757-0.022-0.04995-0.05-0.04995h-0.4058c-0.1121-2.87e-4 -0.2029-0.0911-0.2031-0.20318v-0.40579c0-0.02757-0.023-0.04994-0.051-0.04994zm72.354 2.0341c-0.027 0-0.049 0.02238-0.049 0.04995v0.40579c-2e-4 0.11212-0.091 0.20295-0.2032 0.20318h-0.4058c-0.027 0-0.049 0.02238-0.049 0.04994 0 0.02757 0.022 0.04995 0.049 0.04995h0.4058c0.1121 2.32e-4 0.203 0.09106 0.2032 0.20318v0.40579c0 0.02757 0.022 0.04995 0.049 0.04995 0.029 0 0.051-0.02238 0.051-0.04995v-0.40579c2e-4 -0.11208 0.091-0.20289 0.2031-0.20318h0.4058c0.027 0 0.049-0.02238 0.049-0.04995s-0.022-0.04994-0.049-0.04994h-0.4058c-0.1121-2.87e-4 -0.2029-0.0911-0.2031-0.20318v-0.40579c0-0.02757-0.023-0.04995-0.051-0.04995zm-140.72 3.1964c-0.054 0-0.097 0.04311-0.097 0.09648v0.78548c-2e-4 0.21742-0.1764 0.39365-0.3938 0.39387h-0.786c-0.053 0-0.096 0.04311-0.096 0.09648 0 0.05338 0.042 0.09705 0.096 0.09705h0.786c0.2174 2.27e-4 0.3936 0.17645 0.3938 0.39387v0.78604c0 0.05338 0.043 0.09535 0.097 0.09535s0.097-0.04198 0.097-0.09535v-0.78604c2e-4 -0.2175 0.1765-0.39376 0.394-0.39387h0.7855c0.054 0 0.097-0.04368 0.097-0.09705 0-0.05338-0.043-0.09648-0.097-0.09648h-0.7855c-0.2175-1.17e-4 -0.3938-0.17637-0.394-0.39387v-0.78548c0-0.05338-0.043-0.09648-0.097-0.09648zm-48.415 3.3496c-0.028 0-0.051 0.02239-0.051 0.04995v0.40579c-2e-4 0.11212-0.091 0.20295-0.2032 0.20318h-0.4058c-0.027 0-0.049 0.02239-0.049 0.04995s0.022 0.04994 0.049 0.04994h0.4058c0.1121 2.32e-4 0.203 0.09106 0.2032 0.20318v0.40579c0 0.02755 0.023 0.04995 0.051 0.04995 0.027 0 0.05-0.02239 0.05-0.04995v-0.40579c2e-4 -0.11208 0.091-0.20289 0.2031-0.20318h0.4058c0.027 0 0.05-0.02239 0.05-0.04994 0-0.02756-0.022-0.04995-0.05-0.04995h-0.4058c-0.1121-2.87e-4 -0.2029-0.0911-0.2031-0.20318v-0.40579c0-0.02754-0.022-0.04995-0.05-0.04995zm130.76 15.982c-0.029 0-0.051 0.02239-0.051 0.04995v0.40579c-2e-4 0.11208-0.091 0.20289-0.2031 0.20318h-0.4058c-0.028 0-0.05 0.02239-0.05 0.04995 0 0.02755 0.022 0.04994 0.05 0.04994h0.4058c0.1121 2.87e-4 0.2029 0.0911 0.2031 0.20318v0.40579c0 0.02756 0.023 0.04995 0.051 0.04995 0.027 0 0.049-0.02239 0.049-0.04995v-0.40579c2e-4 -0.11212 0.091-0.20295 0.2032-0.20318h0.4058c0.027 0 0.049-0.02238 0.049-0.04994s-0.022-0.04995-0.049-0.04995h-0.4058c-0.1121-2.32e-4 -0.203-0.09106-0.2032-0.20318v-0.40579c0-0.02754-0.022-0.04995-0.049-0.04995zm-78.747 6.9739c-0.029 0-0.051 0.02239-0.051 0.04995v0.40579c-2e-4 0.11208-0.091 0.20289-0.2031 0.20318h-0.4058c-0.028 0-0.05 0.02239-0.05 0.04995 0 0.02755 0.022 0.04994 0.05 0.04994h0.4058c0.1121 2.87e-4 0.2029 0.0911 0.2031 0.20318v0.40579c0 0.02756 0.023 0.04995 0.051 0.04995 0.027 0 0.049-0.02239 0.049-0.04995v-0.40579c2e-4 -0.11212 0.091-0.20295 0.2032-0.20318h0.4058c0.027 0 0.049-0.02238 0.049-0.04994s-0.022-0.04995-0.049-0.04995h-0.4058c-0.1121-2.32e-4 -0.203-0.09106-0.2032-0.20318v-0.40579c0-0.02754-0.022-0.04995-0.049-0.04995zm123.5 0.87174c-0.028 0-0.05 0.02239-0.05 0.04995v0.40579c-2e-4 0.11212-0.091 0.20295-0.2032 0.20318h-0.4058c-0.027 0-0.049 0.02238-0.049 0.04994 0 0.02755 0.022 0.04995 0.049 0.04995h0.4058c0.1121 2.32e-4 0.203 0.09106 0.2032 0.20318v0.40579c0 0.02755 0.023 0.04995 0.05 0.04995 0.028 0 0.05-0.02239 0.05-0.04995v-0.40579c2e-4 -0.11208 0.091-0.20289 0.2031-0.20318h0.4058c0.028 0 0.05-0.02239 0.05-0.04995s-0.022-0.04994-0.05-0.04994h-0.4058c-0.1121-2.87e-4 -0.2029-0.0911-0.2031-0.20318v-0.40579c0-0.02755-0.022-0.04995-0.05-0.04995zm-81.973 1.8808c-0.028 0-0.049 0.02238-0.049 0.04995v0.40579c-2e-4 0.11212-0.091 0.20295-0.2032 0.20318h-0.4058c-0.028 0-0.049 0.02238-0.049 0.04995s0.022 0.04994 0.049 0.04994h0.4058c0.1121 2.32e-4 0.203 0.09106 0.2032 0.20318v0.40579c0 0.02757 0.022 0.04995 0.049 0.04995 0.029 0 0.05-0.02238 0.05-0.04995v-0.40579c2e-4 -0.11212 0.091-0.20295 0.2032-0.20318h0.4058c0.027 0 0.049-0.02238 0.049-0.04994 0-0.02757-0.022-0.04995-0.049-0.04995h-0.4058c-0.1121-2.32e-4 -0.203-0.09106-0.2032-0.20318v-0.40579c0-0.02757-0.023-0.04995-0.05-0.04995zm-80.782 1.4529c-0.029 0-0.051 0.02237-0.051 0.04994v0.40579c-2e-4 0.11216-0.091 0.203-0.2033 0.20318h-0.4057c-0.028 0-0.049 0.02238-0.049 0.04995s0.022 0.04995 0.049 0.04995h0.4057c0.1122 1.77e-4 0.2031 0.09102 0.2033 0.20318v0.40579c0 0.02757 0.023 0.04994 0.051 0.04994 0.027 0 0.049-0.02237 0.049-0.04994v-0.40579c2e-4 -0.11212 0.091-0.20295 0.2032-0.20318h0.4053c0.027 0 0.049-0.02238 0.049-0.04995s-0.022-0.04995-0.049-0.04995h-0.4053c-0.1121-2.32e-4 -0.203-0.09106-0.2032-0.20318v-0.40579c0-0.02757-0.023-0.04994-0.049-0.04994zm141.72 13.948c-0.054 0-0.097 0.04311-0.097 0.09648v0.78548c-2e-4 0.21762-0.1767 0.39392-0.3943 0.39387h-0.7855c-0.053 0-0.096 0.04311-0.096 0.09648 0 0.05327 0.043 0.09648 0.096 0.09648h0.7855c0.2176-4.9e-5 0.3941 0.17625 0.3943 0.39387v0.78548c0 0.05338 0.043 0.09648 0.097 0.09648s0.097-0.04311 0.097-0.09648v-0.78548c2e-4 -0.2175 0.1765-0.39376 0.394-0.39387h0.7855c0.054 0 0.097-0.04311 0.097-0.09648s-0.043-0.09648-0.097-0.09648h-0.7855c-0.2175-1.17e-4 -0.3938-0.17637-0.394-0.39387v-0.78548c0-0.05338-0.043-0.09648-0.097-0.09648zm-82.331 9.4518c-0.054-1e-6 -0.097 0.04313-0.097 0.09648v0.78548c-2e-4 0.2177-0.1768 0.39403-0.3945 0.39387h-0.7855c-0.053 0-0.095 0.04313-0.095 0.09648s0.042 0.09648 0.095 0.09648h0.7855c0.2177-1.59e-4 0.3943 0.17618 0.3945 0.39387v0.78548c0 0.05335 0.043 0.09648 0.097 0.09648s0.097-0.04313 0.097-0.09648v-0.78548c2e-4 -0.21742 0.1764-0.39365 0.3938-0.39387h0.7855c0.054 0 0.097-0.04313 0.097-0.09648s-0.043-0.09648-0.097-0.09648h-0.7855c-0.2174-2.27e-4 -0.3936-0.17645-0.3938-0.39387v-0.78548c0-0.05335-0.043-0.09648-0.097-0.09648zm-87.607 10.06c-0.054 3.032e-4 -0.097 0.043315-0.097 0.096482v0.78548c1e-4 0.21768-0.1762 0.39427-0.3939 0.39444h-0.7854c-0.054 0-0.097 0.042558-0.097 0.095911s0.044 0.096482 0.097 0.096482h0.7854c0.2177 1.723e-4 0.394 0.17676 0.3939 0.39444v0.78548c0 0.053353 0.043 0.096482 0.097 0.096482s0.097-0.043129 0.097-0.096482v-0.78548c-1e-4 -0.21769 0.1762-0.39427 0.3939-0.39444h0.786c0.053 0 0.096-0.043129 0.096-0.096482s-0.042-0.095911-0.096-0.095911h-0.786c-0.2177-1.723e-4 -0.394-0.17676-0.3939-0.39444v-0.78548c0-0.053167-0.043-0.096175-0.097-0.096482zm51.783 8.2464c-0.029 0-0.05 0.022388-0.05 0.049943v0.40579c-2e-4 0.11212-0.091 0.20295-0.2032 0.20318h-0.4058c-0.027 0-0.049 0.022388-0.049 0.049943s0.022 0.049943 0.049 0.049943h0.4058c0.1121 2.316e-4 0.203 0.09106 0.2032 0.20318v0.40579c0 0.027555 0.023 0.049943 0.05 0.049943s0.049-0.022388 0.049-0.049943v-0.40579c2e-4 -0.11212 0.091-0.20295 0.2032-0.20318h0.4058c0.027 0 0.049-0.022388 0.049-0.049943s-0.022-0.049943-0.049-0.049943h-0.4058c-0.1121-2.316e-4 -0.203-0.09106-0.2032-0.20318v-0.40579c0-0.027544-0.022-0.049943-0.049-0.049943zm136.09 9.6005c-0.027 0-0.049 0.02239-0.049 0.04994v0.40579c1e-4 0.11262-0.091 0.2039-0.2039 0.20375h-0.4057c-0.027 0-0.049 0.02182-0.049 0.04937 0 0.02754 0.022 0.04994 0.049 0.04994h0.4057c0.1126-1.54e-4 0.204 0.09113 0.2039 0.20375v0.40579c0 0.02755 0.022 0.04938 0.049 0.04938s0.049-0.02182 0.049-0.04938v-0.40579c-1e-4 -0.11277 0.091-0.20412 0.2043-0.20375h0.4052c0.028 0 0.05-0.02239 0.05-0.04994s-0.023-0.04937-0.05-0.04937h-0.4052c-0.1128 3.76e-4 -0.2044-0.09098-0.2043-0.20375v-0.40579c0-0.02756-0.022-0.04994-0.049-0.04994zm-49.495 4.6379c-0.028 0-0.051 0.02239-0.051 0.04994v0.40579c-2e-4 0.11212-0.091 0.20295-0.2032 0.20318h-0.4058c-0.027 0-0.049 0.02239-0.049 0.04994s0.022 0.04994 0.049 0.04994h0.4058c0.1121 2.32e-4 0.203 0.09106 0.2032 0.20318v0.40579c0 0.02755 0.023 0.04995 0.051 0.04995s0.049-0.02239 0.049-0.04995v-0.40578c2e-4 -0.11212 0.091-0.20295 0.2032-0.20318h0.4057c0.027 0 0.049-0.02239 0.049-0.04994s-0.022-0.04994-0.049-0.04994h-0.4057c-0.1121-2.32e-4 -0.203-0.09106-0.2032-0.20318v-0.40579c0-0.02754-0.022-0.04994-0.049-0.04994zm-123.24 7.4019c-0.027 0-0.049 0.02238-0.049 0.04994v0.40579c-2e-4 0.11228-0.091 0.20317-0.2036 0.20318h-0.4058c-0.029 0-0.051 0.02238-0.051 0.04994 0 0.02754 0.023 0.04995 0.051 0.04995h0.4058c0.1121 2.32e-4 0.203 0.09106 0.2032 0.20318v0.40579c0 0.02755 0.022 0.04994 0.049 0.04994s0.049-0.02239 0.049-0.04994v-0.40579c2e-4 -0.11212 0.091-0.20295 0.2032-0.20318h0.4064c0.029 0 0.051-0.02239 0.051-0.04995 0-0.02754-0.023-0.04994-0.051-0.04994h-0.4064c-0.1121-2.32e-4 -0.203-0.09106-0.2032-0.20318v-0.40579c0-0.02756-0.022-0.04994-0.049-0.04994zm68.287 4.0681c-0.029 0-0.051 0.02239-0.051 0.04995v0.40579c-2e-4 0.11212-0.091 0.20295-0.2032 0.20318h-0.4058c-0.027 0-0.049 0.02239-0.049 0.04994s0.022 0.04994 0.049 0.04994h0.4058c0.1121 2.32e-4 0.203 0.09106 0.2032 0.20318v0.40579c0 0.02756 0.023 0.04995 0.051 0.04995s0.049-0.02239 0.049-0.04995v-0.40579c2e-4 -0.11212 0.091-0.20295 0.2032-0.20318h0.4057c0.027 0 0.049-0.02238 0.049-0.04994 0-0.02755-0.022-0.04994-0.049-0.04994h-0.4057c-0.1121-2.32e-4 -0.203-0.09106-0.2032-0.20318v-0.40579c0-0.02754-0.023-0.04995-0.049-0.04995zm43.796 25.214c-0.054 0-0.097 0.04256-0.097 0.09591v0.78604c-2e-4 0.21746-0.1764 0.3937-0.3939 0.39387h-0.7861c-0.053 0-0.095 0.04313-0.095 0.09648s0.042 0.09648 0.095 0.09648h0.7861c0.2175 1.72e-4 0.3937 0.17641 0.3939 0.39388v0.78548c0 0.05335 0.043 0.09648 0.097 0.09648s0.097-0.04313 0.097-0.09648v-0.78548c2e-4 -0.21742 0.1764-0.39365 0.3938-0.39388h0.7855c0.054 0 0.097-0.04313 0.097-0.09648s-0.043-0.09648-0.097-0.09648h-0.7855c-0.2174-2.27e-4 -0.3936-0.17645-0.3938-0.39387v-0.78604c0-0.05335-0.043-0.09591-0.097-0.09591zm55.985 1.9637c-0.054 0-0.097 0.04313-0.097 0.09648v0.78548c-2e-4 0.2177-0.1768 0.39403-0.3945 0.39387h-0.7855c-0.053 0-0.095 0.04313-0.095 0.09648s0.042 0.09648 0.095 0.09648h0.7855c0.2177-1.59e-4 0.3943 0.17618 0.3945 0.39387v0.78548c0 0.05335 0.043 0.09648 0.097 0.09648s0.097-0.04313 0.097-0.09648v-0.78547c2e-4 -0.21742 0.1764-0.39365 0.3938-0.39387h0.7855c0.054 0 0.097-0.04313 0.097-0.09648s-0.043-0.09648-0.097-0.09648h-0.7855c-0.2174-2.27e-4 -0.3936-0.17645-0.3938-0.39387v-0.78548c0-0.05335-0.043-0.09648-0.097-0.09648zm-134.73 18.444c-0.054 0-0.097 0.04313-0.097 0.09648v0.78548c-2e-4 0.2177-0.1768 0.39403-0.3945 0.39387h-0.7854c-0.053 0-0.096 0.04313-0.096 0.09648s0.042 0.09648 0.096 0.09648h0.7854c0.2177-1.59e-4 0.3943 0.17618 0.3945 0.39387v0.78548c0 0.05335 0.043 0.09648 0.097 0.09648s0.097-0.04313 0.097-0.09648v-0.78548c2e-4 -0.21746 0.1764-0.3937 0.3939-0.39387h0.7854c0.054 0 0.097-0.04313 0.097-0.09648s-0.043-0.09648-0.097-0.09648h-0.7854c-0.2175-1.72e-4 -0.3937-0.17641-0.3939-0.39387v-0.78548c0-0.05335-0.043-0.09648-0.097-0.09648z" fill="#fff" stroke-linecap="round" stroke-linejoin="round" style="paint-order:stroke fill markers"/> </g> </g> </g> </svg>