<?xml version='1.0' encoding='utf-8'?>
<svg xmlns="http://www.w3.org/2000/svg" clip-rule="evenodd" fill-rule="evenodd" image-rendering="optimizeQuality" shape-rendering="geometricPrecision" text-rendering="geometricPrecision" version="1.1" viewBox="0 0 3e3 3e3"> <defs> <style type="text/css">.str0 {stroke:white;stroke-width:2.3622} .fil0 {fill:none} .fil1 {fill:#373435} .fil4 {fill:#6D2B2C} .fil11 {fill:#2B2E3C} .fil9 {fill:#3E4095} .fil12 {fill:white} .fil6 {fill:white} .fil8 {fill:white;fill-opacity:0.141176} .fil7 {fill:white;fill-opacity:0.501961} .fil5 {fill:url(#k)} .fil3 {fill:url(#j)} .fil10 {fill:url(#i)} .fil2 {fill:url(#h)}</style> <clipPath id="y"> <path d="m393 2861c158-72 323 118 450 28 3-2 392 36 443 0 57-41 261 21 308 54 8 6 670-25 831 15 26 6 35-95 219-58 164 34 15-56 178-137 31-15-31-127 49-195s-118-244-118-406c0-198-141-333-141-468 0-368-163-270-154-513 3-84-168-110-154-276 1-16-72-154-64-334 4-96-194-468-288-487-120-25-178-103-372-64-242 49-466-25-637 68-50 27-47 97-151 151-299 156-173 214-327 469-90 148 41 108-199 289-119 89 37 202-148 461-92 129 87 182-39 353-163 222 72 336-15 433-69 76-56 418 55 512 2 2 50 191 261 118 9-3 7-10 13-13z"/> </clipPath> <mask id="x"> <linearGradient id="m" x1="934.36" x2="1203.3" y1="1178.4" y2="909.14" gradientUnits="userSpaceOnUse"> <stop stop-color="#fff" offset="0"/> </linearGradient> <rect x="549" y="976" width="1039" height="136" fill="url(#m)"/> </mask> <mask id="g"> <radialGradient id="f" cx="1847.2" cy="666.68" r="0" gradientUnits="userSpaceOnUse"> <stop stop-color="#fff" offset="0"/> </radialGradient> <rect x="1846" y="666" width="22.629" height="327.21" fill="url(#f)"/> </mask> <mask id="e"> <radialGradient id="d" cx="1692.6" cy="817.01" r="0" gradientUnits="userSpaceOnUse"> <stop stop-color="#fff" offset="0"/> </radialGradient> <rect x="1692" y="816" width="327.2" height="24.999" fill="url(#d)"/> </mask> <mask id="c"> <radialGradient id="b" cx="1789.6" cy="763.67" r="0" gradientUnits="userSpaceOnUse"> <stop stop-color="#fff" offset="0"/> </radialGradient> <rect x="1788" y="762" width="131" height="131" fill="url(#b)"/> </mask> <mask id="a"> <radialGradient id="w" cx="1333" cy="166.45" r="0" gradientUnits="userSpaceOnUse"> <stop stop-color="#fff" offset="0"/> </radialGradient> <rect x="1332" y="165" width="14.277" height="195.05" fill="url(#w)"/> </mask> <mask id="v"> <radialGradient id="u" cx="1241.2" cy="255.68" r="0" gradientUnits="userSpaceOnUse"> <stop stop-color="#fff" offset="0"/> </radialGradient> <rect x="1240" y="255" width="195.05" height="15.684" fill="url(#u)"/> </mask> <mask id="t"> <radialGradient id="s" cx="1298.8" cy="224.02" r="0" gradientUnits="userSpaceOnUse"> <stop stop-color="#fff" offset="0"/> </radialGradient> <rect x="1298" y="223" width="78.983" height="78.983" fill="url(#s)"/> </mask> <mask id="r"> <radialGradient id="q" cx="1001.5" cy="775.75" r="0" gradientUnits="userSpaceOnUse"> <stop stop-color="#fff" offset="0"/> </radialGradient> <rect x="1e3" y="775" width="10.711" height="138.63" fill="url(#q)"/> </mask> <mask id="p"> <radialGradient id="o" cx="936.57" cy="838.89" r="0" gradientUnits="userSpaceOnUse"> <stop stop-color="#fff" offset="0"/> </radialGradient> <rect x="936" y="838" width="138.63" height="11.708" fill="url(#o)"/> </mask> <mask id="n"> <radialGradient id="l" cx="977.34" cy="816.48" r="0" gradientUnits="userSpaceOnUse"> <stop stop-color="#fff" offset="0"/> </radialGradient> <rect x="976" y="815" width="56.582" height="56.582" fill="url(#l)"/> </mask> <linearGradient id="k" x1="1422" x2="1422" y1="2540.9" y2="2701.2" gradientUnits="userSpaceOnUse"> <stop stop-color="#ED3237" offset="0"/> <stop stop-color="#2B2E3C" offset="1"/> </linearGradient> <linearGradient id="j" x1="1442.9" x2="1442.9" y1="2186.1" y2="2677.1" gradientUnits="userSpaceOnUse"> <stop stop-color="#C13438" offset="0"/> <stop stop-color="#7A4488" offset=".36078"/> <stop stop-color="#3254D9" offset="1"/> </linearGradient> <linearGradient id="i" x1="2021.7" x2="2021.7" y1="2492.8" y2="2920.3" gradientUnits="userSpaceOnUse"> <stop stop-color="#293055" offset="0"/> <stop stop-color="#636A94" offset=".67059"/> <stop stop-color="#9EA5D3" offset="1"/> </linearGradient> <linearGradient id="h" x1="1437.5" x2="1437.5" y1="400.46" y2="2595" gradientUnits="userSpaceOnUse"> <stop stop-color="#2A2F52" offset="0"/> <stop stop-color="#843445" offset=".56863"/> <stop stop-color="#DF3A38" offset="1"/> </linearGradient> </defs> <rect class="fil0" width="3e3" height="3e3"/> <path class="fil1" d="m393 2861c158-72 323 118 450 28 3-2 392 36 443 0 57-41 261 21 308 54 8 6 670-25 831 15 26 6 35-95 219-58 164 34 15-56 178-137 31-15-31-127 49-195s-118-244-118-406c0-198-141-333-141-468 0-368-163-270-154-513 3-84-168-110-154-276 1-16-72-154-64-334 4-96-194-468-288-487-120-25-178-103-372-64-242 49-466-25-637 68-50 27-47 97-151 151-299 156-173 214-327 469-90 148 41 108-199 289-119 89 37 202-148 461-92 129 87 182-39 353-163 222 72 336-15 433-69 76-56 418 55 512 2 2 50 191 261 118 9-3 7-10 13-13z"/> <g clip-path="url(#y)"> <rect class="fil2" x="-224" y="-26" width="3322" height="3048"/> <polygon class="fil3" points="-23 2418 180 2273 302 2196 447 2074 569 2196 633 2187 764 2300 877 2278 990 2278 1099 2160 1171 2174 1357 2070 1570 2305 1696 2223 1760 2264 1900 2128 2009 2083 2221 1920 2547 2219 2638 2350 2801 2223 3045 2599 2402 2943 -159 2893"/> <polygon class="fil4" points="-23 2418 23 2477 82 2369 177 2320 243 2336 270 2402 265 2319 216 2278 306 2231 314 2275 380 2210 505 2264 447 2074 569 2196 649 2298 625 2229 633 2187 764 2300 861 2362 875 2316 940 2306 877 2278 990 2278 1066 2195 1032 2272 1102 2190 1139 2181 1110 2247 1231 2170 1357 2070 1372 2115 1352 2234 1431 2199 1505 2262 1493 2380 1570 2303 1696 2223 1715 2300 1900 2128 2009 2083 2221 1920 2217 1982 2171 2118 2255 2031 2315 2037 2248 2096 2320 2061 2389 2149 2424 2129 2562 2293 2600 2373 2689 2293 2735 2305 2801 2223 3045 2599 2402 2943 -159 2893"/> <path class="fil5" d="m908 2514-19 38-15-29-15 31-7-13c4 0 7 1 11 2l-16-30c3 0 5 1 7 2l-25-52-26 52 2-1-7 14-25-51-30 59c6-2 11-3 17-4l-13 26-10-19c2 1 5 1 7 2l-25-51-26 51 12-3-12 23-14-29-16 31-6-13c3 0 7 1 10 2l-15-31c2 1 5 2 7 2l-25-51-26 52c4-2 8-3 12-3l-16 32c3-1 7-2 10-2l-9 19-15-29c6 0 11 2 17 4l-30-59-29 59c5-2 11-3 17-4l-14 26-9-19c2 0 4 1 7 2l-26-51-25 51 12-3-17 33c4-1 7-2 11-3l-15 30c3-1 6-2 10-3l-15 29-28-57c6 1 13 3 19 5l-36-73-37 73c7-2 14-4 21-5l-21 41-7-14-14 30-21-41c7 1 13 3 20 5l-37-73-19 38-15-29-15 31-7-13c4 0 7 1 11 2l-15-31c2 1 4 2 7 3l-26-52-25 52 1-1-7 14-25-51-30 59c6-2 12-3 17-4l-13 26-10-19c3 1 5 1 7 2l-25-51-26 51 12-3-11 23-15-29-15 31-7-13c4 0 7 1 11 2l-16-31c3 1 5 2 8 2l-26-51-26 52c4-2 8-3 12-3l-16 32c3-1 7-2 10-2l-9 19-15-29c6 0 11 2 17 4l-29-59-30 59c6-2 11-3 17-4l-13 26-10-19c2 0 5 1 7 2l-25-51-26 51 12-3-16 33c3-1 7-2 10-3l-15 30c3-1 7-2 10-3l-19 39c2-1 4-1 6-2l-10 20c6-2 12-4 18-5l-14 29c3-1 5-2 8-2l-25 50c20-7 39-10 59-11v60h12v-60c14 1 27 3 40 6v35h12v-31h1l-1-1v-27c13 0 25 2 38 5l-9 17c6-2 11-3 17-4v33h12s0-12 1-29c4-1 9-2 14-2h4c3 0 6 1 9 2l-1-2h5v36h16v-33c1 0 2 1 3 1l-3-5v-1c5-1 9-2 13-2 2 0 3 1 4 1v50h8v2h12v-25h7l-3 5c6-2 12-3 18-4v1-1h2c2 1 5 1 7 2l-1-2c1 0 3 1 4 1v27h12v-23h6v-7h4c4 0 7 1 10 2l-1-3c4 1 7 1 11 2v7h12v-40c4-1 7-1 11-2v34h12v-30c5-1 11-2 16-2h3c3 0 6 1 9 2l-2-2h5v36h16s0-15 1-33c1 1 1 1 2 1l-2-5v-1c4-1 8-1 13-2 1 0 2 1 4 1v50h12v-21c5-1 9-2 14-2l-3 5c6-2 12-3 18-3h1c0-1 1-1 1-1 3 1 5 2 7 2l-1-2c1 1 3 1 4 1v27h12v-25c1 0 2 1 3 1l-2-4v-1c3 0 6-1 10-1 3 0 6 1 9 2l-1-2c4 0 8 0 11 1v7h12s1-29 1-60c10 1 21 2 31 4l-16 33c20-7 39-10 59-11v60h12v-60c13 1 26 3 40 6v35h12v-59c12 0 25 2 37 5l-9 17c6-2 12-3 18-4v33h12v-29c5-1 10-2 14-2h5c3 0 6 1 9 2l-1-2h5v36h16v-33c1 0 2 1 3 1l-3-5v-1c4-1 9-2 13-2 1 0 3 1 4 1v50h8v2h12v-25h7l-3 5c6-2 12-3 18-4v1-1h2c2 1 4 1 6 2v-2c1 0 2 1 4 1v27h12v-23h6v-7h4c3 0 7 1 10 2l-1-3c3 1 7 1 11 2v7h12v-40c3-1 7-1 10-2v34h12v-29c6-2 11-3 17-3h2c3 0 6 1 9 2l-1-2h5v36h16v-6c6-2 11-3 17-5v22h12v-21c5-1 10-2 15-2l-3 5c5-1 9-2 14-3v54h12v-53h1-1v-2c2 1 3 1 4 1v27h12v-25c1 0 2 1 2 1l-2-4v-1c3 0 5-1 8-1 5 1 11 2 16 3v36h12v-31h6v-29h3l1 1h8l1 1h4l2 1h4l1 1h4l1 1h3l-9 18c6-2 12-4 17-4v33h13v-29c4-1 9-2 14-3h5c3 1 5 1 8 2l-1-2h5v36h16s0-15 1-32h2l-2-5c4-2 8-2 13-3 1 1 2 1 3 1v50h8v2h12s0-10 1-24c2-1 4-1 6-1l-3 5c6-2 12-3 18-3h2c2 0 5 1 7 2l-1-2h4v27h12v-22h6v-8h4c4 1 7 1 10 3l-1-3c4 0 8 0 11 1v7h12s0-17 1-39c3-1 6-2 10-2v33h12v-29c5-2 11-2 16-3h3c3 1 6 1 9 2l-2-2h6v36h15s1-15 1-32c1 0 2 0 2 1l-2-6c4-1 9-2 13-2h4v50h12v-21c5-1 10-2 14-2l-2 6c6-2 12-4 18-4h-1 2c3 0 5 1 7 2l-1-2h4v27h12s1-11 1-24h2l-2-4c3-1 6-2 10-2 3 1 6 2 10 3l-2-3c3 0 5 0 8 1v23h12v-16h4v-43c12 0 24 2 36 6v35h12v-32h1l-1-1 1-16c1 0 2 1 3 1l-3-7v-5c12 1 24 2 37 5l-9 18c6-2 12-4 18-4v33h12v-29c4-1 9-2 14-3h5c3 1 6 1 8 2l-1-2h5v36h16s0-15 1-32h2l-2-5c4-1 8-2 13-3 1 1 2 1 4 1v50h7v2h12s1-10 1-24c2-1 4-1 6-1l-3 6c6-2 12-4 18-4h2c2 0 5 1 7 2l-1-2h4v27h12v-22h6v-7h1c1-1 2-1 3-1 4 1 7 2 10 3l-1-3c4 0 8 1 11 1v7h12s1-17 1-39c3-1 6-2 10-2v33h12v-29c5-2 11-2 16-3h3c3 1 6 2 9 3l-2-3h6v36h15s1-15 1-32c1 0 2 0 3 1l-3-6c4-1 9-2 13-2h4v50h12v-21c5-1 10-2 14-2l-2 6c6-2 12-4 18-4h1c3 0 5 1 7 2l-1-2h4v27h12s1-11 1-24h2l-2-4c3-1 6-2 10-2 3 1 6 2 10 3l-2-3c4 0 8 1 12 1v7h12v-59c10 0 21 1 31 4l-16 32c20-6 39-10 59-10v59h12v-59c13 0 27 2 40 6v35h12v-32h1l-1-1v-27c13 1 25 2 37 5l-8 18c6-2 11-4 17-4v33h12v-29l15-3h-1 5c3 1 6 1 9 2l-1-2h5v36h16v-32h3l-3-5c5-1 9-2 13-3 2 1 3 1 4 1v50h8v2h12v-24c2-1 5-1 7-1l-3 6c6-2 12-4 18-4h2c2 0 4 1 7 2l-1-2h4v27h12v-22h6v-7c1-1 3-1 4-1 3 1 7 2 10 3l-1-3c3 0 7 1 11 1v7h12v-39c4-1 7-2 10-2v33h13v-29c5-2 11-2 16-3h2c3 1 6 2 9 3l-1-3h5v36h16v-6c6-1 12-3 17-4v21h12l1-21c4-1 9-2 14-2l-3 6c5-2 10-3 14-4v55h12s1-25 1-53v-2h3v27h12v-24h2l-2-4c3-1 6-1 8-2 6 1 11 2 16 4v35h12v-18l1-1v-12h5v-28h9v1h7l1 1h5v1h5v1h4l1 1-9 17c6-2 12-3 18-4v33h12v-29c5-1 9-2 14-2 1 0 2-1 2-1h3c3 1 6 2 9 3l-2-3c2 0 4 0 6 1v35h15s1-14 1-32c1 0 2 1 2 1l-2-6c4-1 8-2 13-2 1 0 2 0 4 1v50h7v2h13v-25c2 0 4 0 6-1l-2 6c6-2 12-3 17-4h2c3 1 5 1 7 2l-1-2h4v28h12s0-10 1-23h6v-7c1 0 2 0 4-1 3 1 6 2 10 3l-2-3c4 0 8 1 11 2v7h13v-40c3-1 7-1 10-2v33h12v-29c6-1 11-2 17-2 1-1 1-1 2-1 3 1 6 2 9 3l-1-3c1 0 3 1 5 1v35h16v-32c1 0 2 1 3 1l-3-5v-1c4-1 9-2 13-2 1 0 3 0 4 1v50h12v-21c5-2 10-2 14-2l-2 5c6-2 12-3 18-4h2c2 1 4 1 6 2l-1-2h4v28h13v-25c1 0 1 0 2 1l-2-4v-1c3-1 7-1 10-1s7 1 10 2l-2-3c4 0 8 1 12 2v7h12v-60c18 1 35 4 53 10l-38-77c7 2 15 3 23 6l-30-59c7 1 13 2 20 4l-37-72-36 73c7-2 13-4 20-5l-20 41-7-14-15 30-20-41c6 1 12 2 19 4l-36-72-20 38-14-29-16 31-6-13c3 0 7 1 10 2l-15-31c2 1 5 1 7 2l-25-51-26 52 1-1-6 13-26-51-29 60c5-2 11-3 16-4l-13 26-9-19c2 0 4 1 7 2l-26-51-25 51c4-1 7-2 11-3l-11 23-14-29-16 31-7-14c4 1 8 2 11 3l-15-31c2 1 5 1 7 2l-26-51-25 52c4-2 8-3 12-4l-10 19-27-55-3 7-3-6-29 60v-1h3v-1h3l-8 15c4-2 8-3 11-4l-6 13-10-19c3 0 5 1 8 2l-26-51-18 37-18-36-19 39-15-30-15 32-7-14c4 1 7 2 11 3l-16-31c3 0 5 1 8 2l-26-51-25 51h1l-7 13-25-51-30 59c6-1 11-3 17-4l-13 27-10-20c2 1 5 2 7 2l-25-51-26 52c4-2 8-3 12-3l-11 23-15-30-15 31-7-13c4 1 7 2 11 3l-16-31c3 0 5 1 7 2l-25-51-26 51 12-3-16 33c3-1 7-2 10-3l-9 19-15-29c6 1 11 2 17 4l-29-59-30 59c6-2 11-3 17-4l-13 27-10-20c2 1 5 2 7 2l-25-51-26 52c4-2 8-3 12-3l-17 32c4-1 7-2 11-2l-15 30c3-2 7-2 10-3l-14 28-29-57c7 1 13 3 20 5l-37-73-36 74c6-3 13-4 20-5l-21 41-6-14-15 29-21-40c7 0 13 2 20 4l-37-73-19 39-14-30-16 32-6-14c3 1 7 2 10 3l-15-31c2 0 5 1 7 2l-25-51-26 51h1l-6 13-26-51-29 59c5-1 11-3 16-4l-13 27-10-20c3 1 5 2 8 2l-26-51-26 52c4-2 8-3 12-3l-11 22-15-29-15 31-7-13c4 1 7 2 11 3l-15-31c2 0 4 1 7 2l-26-51-25 51c4-1 8-2 11-3l-16 33c4-1 7-2 11-3l-10 19-15-29c6 1 12 2 17 4l-29-59-30 59c6-2 12-3 17-4l-12 25-9-17c2 0 4 1 5 1l-25-51-26 52c4-2 8-3 12-3l-16 32c2 0 3-1 5-1l-6 13c1-1 3-2 5-2l-9 18c4-2 7-2 10-3l-9 18-4-9-15 29-21-41c7 1 13 3 20 5l-37-73-19 39-14-30-16 31-7-13c4 1 8 2 11 3l-15-31c2 0 5 1 7 2l-26-51-25 51h1l-6 13-26-51-29 59c5-2 11-3 16-4l-13 27-10-20c3 1 5 2 8 2l-26-51-26 52c4-2 8-3 12-3l-11 22-15-29-15 31-7-13c4 1 7 1 11 3l-15-31c2 0 4 1 7 2l-26-51-25 51c4-1 7-2 11-3l-9 19-27-55-3 6-3-5-30 59h3v-1h3v-1h1l-8 15c4-1 7-2 11-3l-6 13-10-20c3 1 5 1 7 2l-25-51-19 37-17-35zm539 67c3 0 5 1 7 1l-3 6-4-7zm-48 16m1112 95-1 1v-1h1zm44-109m-1030 106m45-109m520 99m45-109m563 129v-3 1h1l-1 2zm99 9h2l-2 4v-4zm-46-134h-1 1zm-1038 122v-3h1l-1 3zm99 9h2l-2 4v-4zm-47-134m512 115v-3h2l-2 3zm84 9-14 28v-21c1 0 2 0 3 1l-2-6c4-1 8-2 13-2zm-31-134m349 132h4v1h2v12l-6-13zm6 27v6l-3-6h3zm-991-30h6v13l-6-13zm6 27v6l-3-7c1 0 2 1 3 1zm559-37h5v1h1v12l-6-13zm6 27v6l-3-7c1 0 2 1 3 1zm532 21v-14c3-1 5-1 8-2l-8 16zm77-45h7v14l-7-14zm7 29v5l-4-6c1 0 3 0 4 1zm-26-94c2 0 3-1 5-1l-3 6-2-5zm-37 28-6-14c2 1 5 1 7 2l-1 2c1-1 3-1 4-2l2 1-6 11zm19-14m-967-17c1-1 3-1 5-1l-3 6-2-5zm-37 28-6-14c2 0 4 1 7 1l-1 2c1 0 3-1 4-1h2l-6 12zm-21 81v-13c3-1 5-2 8-2l-8 15zm77-44h7v14l-7-14zm7 28v6l-4-7c1 1 2 1 4 1zm-44-80v1-1zm635-66-6-12h3c3 1 6 1 9 2l-6 10zm8 12v-1h1l-1 1zm36-2h1l-1 1v-1zm-1027-1h1l-1 1v-1zm-3 8-5 9-6-11c4 1 7 1 11 2zm-5 51m14-59v-1 1zm36-2m523-8v1-1zm-4 8-4 9-6-11c4 1 7 1 10 2zm-4 51m-27 69v1l-2-3h2v2zm41-128-1-1h1v1zm36-2m581-50h4l-2 4-2-4zm34 54h1v1l-1-1zm-1019-57c1 0 2-1 4-1l-2 4-2-3zm34 54h1-1zm532-61-1-3c1 0 2-1 3-1l-2 4zm33 51m122 23-1 1v-1h1zm-484 45-4 8c2 0 4-1 6-1l-9 17-15-29c8 1 15 3 22 5zm-6 26c5-2 11-4 16-5l-9 19-7-14zm78-66-5-9c4-1 7-1 10-2l-5 11zm-9-18m-43 27 1-1-1 1zm36-2h1l-1 1v-1zm631-3-4-9h4v-1h5l1-1-6 11zm-8-17-1-1h1v1zm-7 25m-970-11-4-9h2v-1h5l1-1h2l-6 11zm-9-18h1-1zm-6 25v1-1zm571-35m9 18-5-9h3v-1h5v-1h2l-5 11zm-16 7h1v1l-1-1zm477-2-1-2h2l-1 2zm-1-35-5-11v1h6v1h4l-5 9zm-984 31-1-1h2l-1 1zm-1-34-5-11h2v1h5l1 1h2l-5 9zm569-19-4 9-6-11h3v1h5v1h2zm-4 42h1l-1 1v-1zm-1201 150m45-110v1-1zm-1030 107m45-110m520 100m45-110h-1 1zm563 130v-3h1l-1 3zm99 9h2l-2 4v-4zm-47-134m-1037 122v-3h1l-1 3zm99 8c1 0 1 0 2 1l-2 4v-5zm-47-134v1-1zm512 116v-3h1l-1 3zm84 8-14 28v-21c1 1 2 1 3 1l-3-5v-1c5-1 9-1 13-2h1zm-31-134v1-1zm349 133h6v12l-6-12zm6 27v6l-3-7c1 0 2 1 3 1zm-991-31h1l1 1h4v12l-6-13zm6 28v6l-3-7c1 0 2 0 3 1zm558-38h2v1h5v12l-7-13zm7 28v6l-4-7c2 0 3 0 4 1zm532 20v-13c3-1 5-2 8-2l-8 15zm21-81-6-14c2 0 4 1 7 1l-1 2c1 0 2-1 4-1h2l-6 12zm-949-32c2 0 4 0 6-1l-3 6-3-5zm-36 28-7-13c3 0 5 0 8 1l-1 2c1-1 2-1 4-1h2l-6 11zm-21 82v-13c2-1 5-2 8-3l-8 16zm76-45h7v14l-7-14zm7 29v6l-3-7c1 0 2 0 3 1zm-43-80m635-66-6-13c1 0 2 0 3 1 3 0 6 1 8 1l-5 11zm8 12v-1 1zm36-2m-1027-1v1-1zm-3 8-5 9-6-11c4 0 7 1 11 2zm-5 51m-27 69-1-2 1-1v3zm41-129v-1 1zm36-2v1-1zm522-7h1v1l-1-1zm-3 8-4 9-6-11c3 0 7 1 10 2zm-4 51h-1 1zm-27 69-2-2h2v2zm41-129h-1l1-1v1zm35-2h1v1l-1-1zm582-49c1 0 2-1 4-1l-2 4-2-3zm34 54h1-1zm-1019-57c1-1 2-1 3-1l-2 4-1-3zm34 53v1-1zm532-60-2-3c2-1 3-1 4-1l-2 4zm33 50v1-1zm121 24m-976 15-5-9c4-1 7-2 10-2l-5 11zm-9-18v-1 1zm-42 27-1-1h1v1zm35-2h1-1zm509 23-5 8c2-1 4-1 6-2l-8 18-15-29c7 1 14 2 22 5zm-7 25c6-2 11-3 17-4l-9 19-8-15zm79-65-5-9c3-1 7-2 10-2l-5 11zm-9-18-1-1h1v1zm-43 27v-1h1l-1 1zm36-2h1-1zm631-3-4-9h2v-1h5v-1h3l-6 11zm-9-18h1-1zm-6 25v1-1zm-970-10-4-9 1-1h4v-1h5l-6 11zm-9-18v-1 1zm-7 25h1v1l-1-1zm572-36v1-1zm9 19-5-9h1v-1h5v-1h4l-5 11zm-16 7h1l-1 1v-1zm477-3-1-1 2-1-1 2zm-1-34-5-11h3v1h4l1 1h2l-5 9zm-984 31-1-2h2l-1 2zm-1-34-6-11h5v1h5v1l-4 9zm569-19-4 9-6-11h5v1h5v1zm-4 41h1l-1 2v-2z"/> <circle class="fil6" cx="877" cy="573" r="192"/> <path class="fil7" d="m877 365c114 0 207 93 207 208 0 114-93 207-207 207-115 0-208-93-208-207 0-115 93-208 208-208z"/> <path class="fil8" d="m877 321c139 0 252 112 252 252 0 139-113 252-252 252s-252-113-252-252c0-140 113-252 252-252z"/> <path class="fil9" d="m1272 2689-4 4c8-1 16-1 23-1h3c3 0 5 1 8 2l-1-2c2 0 4 0 5 1l-1 23 15 1s1-10 2-21h3l-3-3v-1h13c4 1 8 1 13 3l-2-3c8 1 16 2 24 5l-7-10c1 0 3 0 4 1l-10-16c5 2 10 3 15 4l-28-43c3 0 6 1 9 2l-20-31c3 1 6 2 10 3l-26-41-32 37c3 0 6 0 9-1l-25 30c3-1 7-1 10-1l-2 3c2-1 5-1 8-2l-32 38c4-1 8-1 12-2l-19 23c9-2 17-2 26-2z"/> <path class="fil10" d="m2744 2402-14 19c3 0 6-1 10-2l-19 26c2-1 4-1 6-1l-10 12-19-27c6 1 12 2 18 4l-35-49-36 49c7-2 13-3 20-3l-20 27-7-9-15 19-20-27c7 1 13 2 19 3l-35-48-36 48c7-1 13-2 20-3l-29 40c7-2 14-3 21-4l-27 36-8-12c3 1 7 2 10 2l-17-22c4 0 8 1 12 2l-17-23c3 1 6 1 8 2l-27-37-28 37c4-1 8-2 13-2l-18 24c4-1 8-2 11-2l-16 22c4-1 8-2 11-3l-20 28c-17 0-31 0-43 3-116 23-314-2-345 17-121 73-239 45-242 48-67 47-142-13-202 20-61 33-78 49-134 51-144 6-157 33-270 66l-7 11c-8 77-289 240-45 240 219 0 1163 103 1234 73 124-53 414 15 510-113 99-132 85-211 41-380-10-36-108-41-173-38v-29c17 0 34 2 51 6l-23-31c4 0 8 1 12 2l-14-20c2 1 5 1 8 2l-14-18c4 0 9 1 13 2l-16-21c3 1 7 1 10 2l-15-20c3 0 7 1 10 2l-15-20c3 0 5 0 7 1l-25-34-24 34c3-1 7-1 11-2l-16 21c4 0 7-1 10-1zm-291 126c1 0 2 0 3-1l-1 1h-2zm90 9-9-12c3-1 7-1 11-2 12-2 25-3 38-3v22c-13-1-27-3-40-5zm58 8c3-1 5-1 8-1l-1 1h-7zm13 1c3 0 7-1 10-1h2c2 0 5 1 7 1l-1-1h4v3c-7 0-14-1-22-2zm34 3v-2h2l-2-2v-1c3 0 6 0 10-1 3 1 6 1 9 2l-1-2c4 0 8 1 11 1v5h11c-11 1-25 1-40 0zm41 0v-40c18 1 35 3 52 7l-12-17c11-1 22-2 33-2v30c-24 1-42 3-47 5-2 9-11 14-26 17zm-37-83c2 0 3 0 5-1l-3 5-2-4zm-36 19-7-9h8l-1 2c1-1 2-1 3-1h3l-6 8zm-21 54v-9c3-1 5-1 8-2l-8 11zm0-10v-9h7l-7 9zm75-20h7v9l-7-9zm7 19v4l-3-5c1 1 2 1 3 1zm-42-53m82-19 18-3-10 14-8-11zm7 12-3 4c3 0 5-1 8-1l-10 14-15-20c6 1 13 2 20 3z"/> <path class="fil11" d="m-33 2522c3 0 227 57 230 60 61 72 443-18 498 46 25 29 151-12 265 56 32 19 153-44 244 13 7 5 88 38 125 62 100 66 319 8 490 79 52 21 259-21 353 18 88 36 223-57 394 45 73 43 205 47-68 134-105 33-564 1-755 15-425 33-766-5-1180-83-202-39-427-41-632-33-75 3 28-255 27-268-1-31 11-117 9-144z"/> <path class="fil11" d="m845 2378-62 84c12-3 23-4 35-6l-51 69c13-3 25-5 37-7l-64 88c33-8 66-12 99-12v68h20s1-32 1-68c30 1 59 4 89 11l-65-88c14 2 27 4 40 7l-50-68c11 1 22 3 33 5l-62-83z"/> <path class="fil11" d="m302 2241-60 81c14-3 27-6 41-8l-78 104c8-1 16-3 24-4l-38 52c24-5 48-10 73-13l-59 79c11-2 23-5 35-6l-100 135c78-18 156-27 234-29v162h48s1-77 2-161c70 1 140 10 209 26l-95-129c17 1 34 4 51 8l-59-80 33 6-55-74c17 1 34 4 51 8l-63-85c13 2 25 5 38 7l-61-82c14 2 29 4 43 7l-62-83c10 1 19 3 29 5l-102-138-103 139c16-4 32-6 48-8l-66 88c14-3 28-6 42-7zm2 71-1-1 3-1-2 2zm143-5h3l-2 2-1-2z"/> <path class="fil11" d="m1057 2652-8 10c18-4 35-6 52-7h5c7 1 13 2 20 4l-3-4c4 0 8 0 11 1v53h35s1-22 1-49c2 1 4 1 6 2l-6-8v-1c10-2 19-3 29-3 9 1 19 3 28 5l-4-6c18 1 36 3 54 7l-16-22c3 1 6 2 9 2l-24-32c11 1 23 4 34 6l-69-94c6 1 13 2 20 3l-49-66c8 1 16 3 23 4l-64-87-65 88c6-2 12-3 19-4l-52 70c7-2 15-3 22-4l-5 7c6-2 12-3 18-4l-65 88c8-2 17-3 25-5l-39 53c19-4 39-7 58-7zm75-202-1 1v-1h1z"/> <path class="fil11" d="m1499 2563-44 59c12-3 25-5 37-6l-55 74c14-3 27-5 41-7l-70 95c36-8 72-12 107-13v75h23v-75c33 1 65 5 97 12l-70-95c14 2 29 4 44 8l-54-74c11 1 23 3 34 6l-44-59c11 1 21 2 31 4l-54-73-54 74c10-2 21-4 31-5z"/> <path class="fil11" d="m1499 2563-44 59c12-3 25-5 37-6l-55 74c14-3 27-5 41-7l-70 95c36-8 72-12 107-13v75h23v-75c33 1 65 5 97 12l-70-95c14 2 29 4 44 8l-54-74c11 1 23 3 34 6l-44-59c11 1 21 2 31 4l-54-73-54 74c10-2 21-4 31-5z"/> <path class="fil11" d="m1387 2608-28 37c6-1 12-2 19-3l-36 48c4-1 7-2 11-2l-18 24c12-3 23-5 34-6l-27 36c5-1 10-2 16-3l-46 63c36-9 72-13 108-14v75h22v-75c33 1 65 5 97 13l-44-60c8 1 16 2 23 4l-27-37c5 1 11 2 16 3l-26-34c8 0 16 2 24 3l-29-39c6 1 11 3 17 4l-28-38c7 1 13 2 20 3l-28-38c4 0 8 1 13 2l-47-63-47 64c7-2 14-3 21-4l-30 40c7-1 13-2 20-3zm1 33-1-1h1v1zm65-2h1-1z"/> <path class="fil11" d="m1590 2575-28 37c7-1 13-2 19-3l-36 48c4-1 8-2 11-2l-17 24c11-3 22-5 33-6l-27 36c5-1 11-2 16-3l-46 63c36-9 72-13 108-14v75h22s1-36 1-75c32 1 64 5 96 13l-43-60c7 1 15 2 23 4l-27-37 15 3-25-34c8 1 15 2 23 3l-29-39c6 1 12 3 18 4l-28-38c6 1 13 2 19 3l-28-38c4 0 9 1 13 2l-47-63-47 64c7-2 14-3 22-4l-30 41c6-2 13-3 19-4zm1 33-1-1h2l-1 1zm66-2h1-1z"/> <path class="fil11" d="m1639 2788-6 8c14-3 28-5 43-6h4c6 1 11 2 17 3l-3-3c3 0 7 0 10 1v44h29s0-18 1-40c1 0 3 0 5 1l-5-7v-1c8-1 16-2 24-2 8 1 16 2 23 4l-3-5c15 1 30 3 45 6l-13-18c2 0 5 1 7 1l-20-27c10 2 19 4 29 6l-59-79 18 3-41-56c6 1 13 2 19 4l-54-73-54 73c5-1 10-2 16-3l-44 59c7-2 13-3 19-4l-4 6 15-3-55 74c7-2 14-3 21-5l-32 45c16-4 32-6 48-6zm62-169v1-1z"/> <circle class="fil6" cx="1310" cy="503" r="20"/> <circle class="fil6" cx="2291" cy="650" r="20"/> <circle class="fil6" cx="348" cy="927" r="15"/> <circle class="fil6" cx="1142" cy="45" r="15"/> <circle class="fil6" cx="2031" cy="192" r="15"/> <circle class="fil6" transform="matrix(.061344 -.084599 .084599 .061344 1450.6 450.08)" r="190"/> <circle class="fil6" transform="matrix(-.061344 -.084599 -.084599 .061344 2149.6 597.09)" r="190"/> <circle class="fil6" transform="matrix(.046854 -.064617 .064617 .046854 455.55 886.42)" r="190"/> <circle class="fil6" transform="matrix(.046854 -.064617 .064617 .046854 1249.4 4.3583)" r="190"/> <circle class="fil6" transform="matrix(-.046854 -.064617 -.064617 .046854 1923.8 151.37)" r="190"/> <circle class="fil6" cx="1437" cy="768" r="20"/> <circle class="fil6" cx="996" cy="1142" r="20"/> <circle class="fil6" cx="445" cy="1129" r="15"/> <circle class="fil6" cx="1239" cy="247" r="15"/> <circle class="fil6" cx="1934" cy="394" r="15"/> <circle class="fil6" transform="matrix(-.061344 .084599 .084599 .061344 1739.6 502.26)" r="190"/> <circle class="fil6" transform="matrix(.061344 .084599 -.084599 .061344 1860.5 649.28)" r="190"/> <circle class="fil6" transform="matrix(.061344 -.084599 -.084599 -.061344 1419.5 1260.4)" r="190"/> <circle class="fil6" transform="matrix(-.046854 .064617 .064617 .046854 676.31 926.28)" r="190"/> <circle class="fil6" transform="matrix(-.046854 .064617 .064617 .046854 1470.2 44.215)" r="190"/> <circle class="fil6" transform="matrix(.046854 .064617 -.064617 .046854 1703 191.22)" r="190"/> <circle class="fil6" cx="1232" cy="642" r="11"/> <circle class="fil6" cx="791" cy="1267" r="11"/> <circle class="fil6" cx="2368" cy="789" r="11"/> <circle class="fil6" cx="1927" cy="1120" r="11"/> <circle class="fil6" cx="289" cy="1033" r="8"/> <circle class="fil6" cx="1082" cy="151" r="8"/> <circle class="fil6" cx="2091" cy="298" r="8"/> <circle class="fil6" transform="matrix(.033473 -.046163 .046163 .033473 1517.6 594.51)" r="190"/> <circle class="fil6" transform="matrix(-.033473 -.046163 -.046163 .033473 2082.6 741.52)" r="190"/> <circle class="fil6" transform="matrix(-.033473 .046163 -.046163 -.033473 1641.6 1168.2)" r="190"/> <circle class="fil6" transform="matrix(.025567 -.035259 .035259 .025567 506.7 996.74)" r="190"/> <circle class="fil6" transform="matrix(.025567 -.035259 .035259 .025567 1300.6 114.67)" r="190"/> <circle class="fil6" transform="matrix(-.025567 -.035259 -.035259 .025567 1872.6 261.68)" r="190"/> <circle class="fil6" cx="1515" cy="907" r="11"/> <circle class="fil6" cx="1074" cy="1003" r="11"/> <circle class="fil6" cx="2086" cy="1054" r="11"/> <circle class="fil6" cx="1644" cy="856" r="11"/> <circle class="fil6" cx="504" cy="1235" r="8"/> <circle class="fil6" cx="1298" cy="353" r="8"/> <circle class="fil6" cx="1875" cy="500" r="8"/> <circle class="fil6" cx="1725" cy="647" r="8"/> <circle class="fil6" cx="1284" cy="1262" r="8"/> <circle class="fil6" transform="matrix(-.033473 .046163 .046163 .033473 1897.7 521.02)" r="190"/> <circle class="fil6" transform="matrix(.033473 .046163 -.046163 .033473 1702.4 668.03)" r="190"/> <circle class="fil6" transform="matrix(.033473 -.046163 -.046163 -.033473 1261.4 1241.7)" r="190"/> <circle class="fil6" transform="matrix(-.025567 .035259 .035259 .025567 797.06 940.6)" r="190"/> <circle class="fil6" transform="matrix(-.025567 .035259 .035259 .025567 1590.9 58.539)" r="190"/> <circle class="fil6" transform="matrix(.025567 .035259 -.035259 .025567 1582.3 205.55)" r="190"/> <path class="fil6" d="m577 1094 1010-117-1008 133c-36 3-40-10-2-16z" mask="url(#x)"/> <polygon class="fil12" points="1847 667 1868 667 1868 992 1847 992" mask="url(#g)"/> <polygon class="fil12" points="1693 840 1693 817 2018 817 2018 840" mask="url(#e)"/> <path class="fil12 str0" d="m1854 764c36 0 65 29 65 64 0 36-29 65-65 65-35 0-64-29-64-65 0-35 29-64 64-64z" mask="url(#c)"/> <polygon class="fil12" points="1333 166 1345 166 1345 359 1333 359" mask="url(#a)"/> <polygon class="fil12" points="1241 269 1241 256 1434 256 1434 269" mask="url(#v)"/> <path class="fil12 str0" d="m1337 224c21 0 38 17 38 38s-17 39-38 39-38-18-38-39 17-38 38-38z" mask="url(#t)"/> <polygon class="fil12" points="1002 776 1010 776 1010 912 1002 912" mask="url(#r)"/> <polygon class="fil12" points="937 849 937 839 1073 839 1073 849" mask="url(#p)"/> <path class="fil12 str0" d="m1004 816c15 0 28 13 28 28s-13 27-28 27-27-12-27-27 12-28 27-28z" mask="url(#n)"/> </g> <path class="fil0" d="m393 2861c158-72 323 118 450 28 3-2 392 36 443 0 57-41 261 21 308 54 8 6 670-25 831 15 26 6 35-95 219-58 164 34 15-56 178-137 31-15-31-127 49-195s-118-244-118-406c0-198-141-333-141-468 0-368-163-270-154-513 3-84-168-110-154-276 1-16-72-154-64-334 4-96-194-468-288-487-120-25-178-103-372-64-242 49-466-25-637 68-50 27-47 97-151 151-299 156-173 214-327 469-90 148 41 108-199 289-119 89 37 202-148 461-92 129 87 182-39 353-163 222 72 336-15 433-69 76-56 418 55 512 2 2 50 191 261 118 9-3 7-10 13-13z"/> <path class="fil11" d="m2010 1371 8 10c29 17 37 12 51 51 6 15 67-1 73 14 69 40 169 28 208 167 0 1 2 1 3 1 58 25 118 63 176 110 23 18 28 41 50 62 9 9 35 15 44 24 14 15 28 31 42 47 59 70 108 146 131 210 17 29 130 230-22 259l36 30c-2 4 73 121 73 121 85 146 112 324 4 449-1 0-4 0-4 2-2 6-4 1-8 3-41 14-82 6-107 12-38 8-78 18-119 26-43 10-74 23-124 22l-90-6-8-21c-52 2-76 11-121 21-108 25-23-63-110-25-12 6-28 10-39 14-66 27-22 16-69 18-16 0-22 8-35 5-11-2-12 2-24-1-291-86-438-235-188-536-9-37-16-132 20-147 50-14 33-91 37-123 7-61 28-62 41-124l-58-66c-41-57-171-19-224-46-2-9 1-15 5-26 0-1 28-4 28-6l-30-2-79-69c-18-31 34-39 48-58 37-46 82-30 107-88 16-37 105-137 136-153 21-12 25-6 32-29 17-58 2-39 62-58-1-36 5-56 29-77l3-3c1 0 11-13 12-14z"/> </svg>