<?xml version='1.0' encoding='utf-8'?>
<svg xmlns="http://www.w3.org/2000/svg" clip-rule="evenodd" fill-rule="evenodd" stroke-linejoin="round" stroke-miterlimit="2" version="1.1" viewBox="0 0 3508 2481"> <g transform="matrix(1.0252 0 0 1.0335 -47.357 -24.706)"> <rect x="3.344" y="3.462" width="3500.8" height="2471.2" fill="#3c3c3c"/> </g> <g transform="translate(1456.2 819.2)"> <g transform="matrix(2.8532e-16 4.6596 -4.6596 2.8532e-16 4145.9 -904.61)"> <path d="m264.93 636.01s-12.615 6.279-26.164 0.106c3.289-1.655 5.209-2.409 5.209-2.409s-7.259 1.236-11.345-3.208c1.477-1.548 2.02-2.047 4.389-2.624-3.806-0.55-5.896 4e-3 -9.04-4.718 3.176-1.581 3.463-1.191 3.463-1.191s-5.167-1.937-6.429-8.565c4.332-1.151 5.99-1.351 8.684 0.239-1.592-3.2-0.942-4.228-0.942-4.228s6.492 0.631 8.877 3.042c-2.461-4.409-0.92-4.125-0.92-4.125s10.641 0.732 13.448 6.434c-1.809-4.4 0.955-3.671 0.955-3.671s13.962 10.339 10.542 23.104c-8.042-2.321-15.48-7.107-22.716-12.718 5.472 5.137 11.313 9.771 21.989 14.532z" fill="#919e5e"/> </g> <g transform="matrix(2.8532e-16 4.6596 -4.6596 2.8532e-16 3205.2 -904.61)"> <path d="m389.47 506.64s14.033-1.29 24.43 9.367c-3.664 0.352-5.727 0.361-5.727 0.361s7.214 1.474 9.415 7.095c-1.936 0.909-2.624 1.178-5.04 0.858 3.349 1.89 5.498 2.13 6.72 7.669-3.533 0.325-3.659-0.142-3.659-0.142s4.116 3.675 2.895 10.311c-4.456-0.495-6.073-0.908-8.01-3.365 0.326 3.559-0.652 4.282-0.652 4.282s-5.823-2.937-7.174-6.047c0.698 5.001-0.635 4.178-0.635 4.178s-9.655-4.532-10.21-10.863c0.096 4.757-2.218 3.077-2.218 3.077s-9.276-14.69-1.468-25.354c6.656 5.074 11.859 12.226 16.575 20.076-3.243-6.769-7.011-13.202-15.242-21.503z" fill="#919e5e"/> </g> <g transform="matrix(2.8532e-16 4.6596 -4.6596 2.8532e-16 4021 -904.61)"> <path d="m335.86 622.88s-1.679-13.991 8.686-24.68c0.454 3.653 0.52 5.715 0.52 5.715s1.273-7.252 6.831-9.609c0.962 1.911 1.25 2.591 0.998 5.015 1.796-3.4 1.976-5.555 7.48-6.93 0.423 3.523-0.041 3.662-0.041 3.662s3.56-4.217 10.226-3.18c-0.371 4.467-0.739 6.096-3.141 8.1 3.548-0.425 4.299 0.533 4.299 0.533s-2.775 5.902-5.846 7.339c4.979-0.837 4.194 0.519 4.194 0.519s-4.263 9.777-10.576 10.507c4.752-0.227 3.137 2.132 3.137 2.132s-14.427 9.679-25.303 2.17c4.887-6.794 11.892-12.194 19.608-17.125-6.677 3.429-13.002 7.374-21.072 15.832z" fill="#919e5e"/> </g> <g transform="matrix(2.8532e-16 4.6596 -4.6596 2.8532e-16 4667.7 -904.61)"> <path d="m384.36 695.47s-3.949-13.527 4.524-25.77c1.047 3.529 1.45 5.552 1.45 5.552s0.067-7.362 5.164-10.598c1.262 1.727 1.657 2.351 1.806 4.783 1.214-3.648 1.039-5.803 6.243-8.062 0.994 3.406 0.559 3.619 0.559 3.619s2.821-4.743 9.568-4.812c0.366 4.467 0.269 6.134-1.772 8.505 3.431-1.001 4.328-0.179 4.328-0.179s-1.769 6.277-4.564 8.198c4.775-1.642 4.222-0.175 4.222-0.175s-2.603 10.343-8.711 12.097c4.651-1.002 3.444 1.59 3.444 1.59s-12.645 11.912-24.605 6.288c3.708-7.504 9.734-13.978 16.537-20.107-6.025 4.476-11.618 9.405-18.193 19.071z" fill="#919e5e"/> </g> <g transform="matrix(2.8532e-16 4.6596 -4.6596 2.8532e-16 3543.4 -904.61)"> <path d="m308.82 562.7s-8.022 11.586-22.867 12.713c2.082-3.035 3.4-4.623 3.4-4.623s-5.762 4.585-11.485 2.663c0.547-2.068 0.782-2.768 2.579-4.415-3.6 1.354-5.163 2.847-10.195 0.227 2.02-2.917 2.459-2.714 2.459-2.714s-5.46 0.796-9.763-4.401c3.24-3.098 4.595-4.073 7.722-3.98-2.937-2.035-2.864-3.249-2.864-3.249s5.991-2.578 9.243-1.617c-4.282-2.676-2.795-3.17-2.795-3.17s9.673-4.491 14.883-0.851c-3.708-2.981-0.934-3.676-0.934-3.676s17.217 2.321 20.379 15.154c-8.164 1.845-16.988 1.241-26.033-0.184 7.271 1.861 14.622 3.102 26.271 2.123z" fill="#919e5e"/> </g> <g transform="matrix(2.8532e-16 4.6596 -4.6596 2.8532e-16 351.79 -904.61)"> <path d="m251.89 200.15s6.277 12.616 0.102 26.163c-1.654-3.288-2.409-5.208-2.409-5.208s1.236 7.258-3.209 11.344c-1.548-1.477-2.047-2.021-2.623-4.389-0.551 3.805 3e-3 5.896-4.72 9.039-1.58-3.177-1.19-3.464-1.19-3.464s-1.938 5.167-8.566 6.428c-1.15-4.332-1.35-5.99 0.24-8.684-3.2 1.591-4.228 0.941-4.228 0.941s0.632-6.491 3.043-8.876c-4.409 2.46-4.125 0.919-4.125 0.919s0.734-10.64 6.436-13.447c-4.4 1.809-3.671-0.955-3.671-0.955s10.341-13.961 23.106-10.538c-2.322 8.041-7.109 15.478-12.722 22.713 5.139-5.471 9.773-11.311 14.536-21.986z" fill="#919e5e"/> </g> <g transform="matrix(2.8532e-16 4.6596 -4.6596 2.8532e-16 2212.7 -904.61)"> <path d="m203.88 420.46s-8.293 11.393-23.161 12.17c2.153-2.985 3.508-4.541 3.508-4.541s-5.868 4.447-11.544 2.391c0.595-2.055 0.847-2.749 2.682-4.353-3.63 1.269-5.229 2.725-10.197-0.013 2.088-2.869 2.522-2.655 2.522-2.655s-5.478 0.666-9.656-4.631c3.312-3.02 4.69-3.963 7.814-3.796-2.889-2.104-2.787-3.316-2.787-3.316s6.049-2.436 9.278-1.399c-4.218-2.776-2.719-3.235-2.719-3.235s9.776-4.261 14.899-0.5c-3.636-3.067-0.848-3.697-0.848-3.697s17.158 2.728 20.016 15.631c-8.205 1.652-17.012 0.84-26.021-0.798 7.225 2.032 14.545 3.446 26.214 2.742z" fill="#919e5e"/> </g> <g transform="matrix(2.8532e-16 4.6596 -4.6596 2.8532e-16 3805.5 -904.61)"> <path d="m268.78 582.91s-2.133 13.929-14.983 21.449c0.542-3.641 1.031-5.645 1.031-5.645s-3.17 6.646-9.156 7.427c-0.415-2.099-0.51-2.831 0.383-5.099-2.642 2.794-3.394 4.822-9.064 4.672 0.537-3.507 1.021-3.517 1.021-3.517s-4.56 3.108-10.705 0.323c1.555-4.204 2.346-5.674 5.197-6.962-3.532-0.541-3.999-1.665-3.999-1.665s4.255-4.943 7.6-5.504c-5.022-0.528-3.902-1.624-3.902-1.624s6.727-8.277 13.005-7.288c-4.639-1.055-2.451-2.895-2.451-2.895s16.493-5.459 24.959 4.69c-6.529 5.236-14.725 8.56-23.48 11.244 7.351-1.515 14.503-3.62 24.544-9.606z" fill="#919e5e"/> </g> <g transform="matrix(2.8532e-16 4.6596 -4.6596 2.8532e-16 4600.8 -904.61)"> <path d="m238.94 695.73s9.368-11.423 6.615-26.306c-2.46 2.974-3.686 4.753-3.686 4.753s3.032-7.053-0.359-12.064c-1.903 1.172-2.534 1.618-3.694 3.884 0.401-3.941 1.47-5.932-2.432-10.051-2.359 2.876-2.043 3.244-2.043 3.244s-0.636-5.592-6.896-8.203c-2.22 4.126-2.831 5.753-1.924 8.786-2.778-2.249-3.96-1.803-3.96-1.803s-0.989 6.66 0.809 9.548c-3.761-3.369-3.863-1.76-3.863-1.76s-1.921 10.854 3.036 14.834c-3.914-2.712-3.878 0.218-3.878 0.218s6.781 16.142 20.295 15.284c-0.302-8.561-3.198-17.015-6.964-25.432 3.734 6.546 6.877 13.361 8.944 25.068z" fill="#919e5e"/> </g> <g transform="matrix(2.8532e-16 4.6596 -4.6596 2.8532e-16 4562.5 -904.61)"> <path d="m165.7 691.63s9.367-11.423 6.614-26.306c-2.459 2.974-3.685 4.753-3.685 4.753s3.032-7.053-0.359-12.065c-1.903 1.173-2.534 1.619-3.695 3.885 0.401-3.941 1.47-5.932-2.431-10.051-2.359 2.876-2.043 3.243-2.043 3.243s-0.637-5.591-6.897-8.203c-2.219 4.127-2.83 5.754-1.923 8.787-2.778-2.249-3.96-1.804-3.96-1.804s-0.989 6.66 0.809 9.549c-3.762-3.369-3.863-1.761-3.863-1.761s-1.921 10.855 3.036 14.835c-3.914-2.712-3.879 0.217-3.879 0.217s6.782 16.143 20.296 15.285c-0.302-8.562-3.198-17.015-6.965-25.432 3.735 6.546 6.878 13.361 8.945 25.068z" fill="#919e5e"/> </g> <g transform="matrix(2.8532e-16 4.6596 -4.6596 2.8532e-16 3943.6 -904.61)"> <path d="m150.56 615.31s2.086-14.625-7.986-25.922c-0.56 3.818-0.686 5.975-0.686 5.975s-1.065-7.604-6.564-10.13c-1.019 1.99-1.327 2.698-1.144 5.238-1.701-3.578-1.819-5.835-7.291-7.334-0.526 3.683-0.065 3.833-0.065 3.833s-3.444-4.451-10.151-3.437c0.243 4.679 0.564 6.387 2.912 8.51-3.542-0.483-4.321 0.511-4.321 0.511s2.608 6.208 5.643 7.745c-4.963-0.93-4.215 0.498-4.215 0.498s3.986 10.277 10.288 11.109c-4.753-0.288-3.204 2.198-3.204 2.198s14.17 10.285 25.28 2.544c-4.698-7.164-11.558-12.89-19.143-18.134 6.588 3.661 12.809 7.858 20.647 16.796z" fill="#919e5e"/> </g> <g transform="matrix(2.8532e-16 4.6596 -4.6596 2.8532e-16 2054 -904.61)"> <path d="m153.18 412.54s2.085-14.624-7.986-25.922c-0.561 3.818-0.687 5.975-0.687 5.975s-1.065-7.603-6.563-10.129c-1.019 1.989-1.327 2.698-1.145 5.237-1.7-3.578-1.819-5.835-7.291-7.333-0.525 3.682-0.065 3.833-0.065 3.833s-3.443-4.451-10.15-3.438c0.242 4.679 0.564 6.387 2.911 8.511-3.541-0.483-4.32 0.511-4.32 0.511s2.608 6.207 5.643 7.745c-4.964-0.93-4.216 0.497-4.216 0.497s3.987 10.278 10.288 11.11c-4.753-0.289-3.203 2.198-3.203 2.198s14.17 10.285 25.28 2.543c-4.698-7.163-11.559-12.889-19.144-18.133 6.588 3.66 12.81 7.857 20.648 16.795z" fill="#919e5e"/> </g> <g transform="matrix(2.8532e-16 4.6596 -4.6596 2.8532e-16 953.58 -904.61)"> <path d="m151.04 283.96s-6.496-13.268-21.176-16.95c1.682 3.472 2.791 5.327 2.791 5.327s-5.155-5.69-11.123-4.688c0.276 2.218 0.419 2.977 1.998 4.975-3.418-2.003-4.784-3.803-10.153-1.967 1.636 3.341 2.101 3.207 2.101 3.207s-5.35-1.746-10.327 2.862c2.83 3.734 4.056 4.966 7.192 5.402-3.201 1.592-3.286 2.852-3.286 2.852s5.646 3.668 9.02 3.233c-4.628 2.021-3.207 2.782-3.207 2.782s9.074 6.259 14.754 3.405c-4.093 2.433-1.414 3.618-1.414 3.618s17.501 0.542 22.338-12.106c-7.912-3.284-16.805-4.164-26.026-4.237 7.506-0.676 15.011-0.702 26.518 2.285z" fill="#919e5e"/> </g> <g transform="matrix(2.8532e-16 4.6596 -4.6596 2.8532e-16 297.2 -904.61)"> <path d="m277.96 189.08s-12.933 7.14-15.889 21.984c3.386-1.852 5.184-3.05 5.184-3.05s-5.429 5.428-4.135 11.34c2.201-0.385 2.952-0.565 4.87-2.24-1.832 3.512-3.563 4.965-1.465 10.237 3.256-1.798 3.099-2.256 3.099-2.256s-1.48 5.429 3.367 10.174c3.59-3.011 4.761-4.296 5.042-7.449 1.747 3.118 3.01 3.142 3.01 3.142s3.386-5.82 2.786-9.169c2.246 4.523 2.936 3.066 2.936 3.066s5.805-9.371 2.675-14.903c2.631 3.969 3.684 1.235 3.684 1.235s-0.32-17.507-13.19-21.716c-2.891 8.064-3.332 16.989-2.952 26.202-1.044-7.463-1.439-14.958 0.978-26.597z" fill="#919e5e"/> </g> <g transform="matrix(2.8532e-16 4.6596 -4.6596 2.8532e-16 -49.884 -904.61)"> <path d="m255.75 156.6s-14.758-0.67-25.035 10.441c3.855 0.191 6.014 0.109 6.014 0.109s-7.466 1.791-9.452 7.507c2.079 0.823 2.813 1.061 5.324 0.635-3.398 2.037-5.633 2.372-6.599 7.963 3.716 0.169 3.821-0.304 3.821-0.304s-4.099 3.856-2.445 10.434c4.634-0.691 6.303-1.175 8.191-3.717-0.14 3.572 0.924 4.252 0.924 4.252s5.928-3.192 7.166-6.361c-0.448 5.029 0.901 4.148 0.901 4.148s9.847-4.956 10.069-11.309c0.17 4.759 2.496 2.977 2.496 2.977s8.875-15.093 0.101-25.407c-6.679 5.365-11.718 12.744-16.209 20.798 3.01-6.909 6.59-13.505 14.733-22.166z" fill="#919e5e"/> </g> <g transform="matrix(2.8532e-16 4.6596 -4.6596 2.8532e-16 161.15 -904.61)"> <path d="m156.87 177.43s-14.712 1.336-23.388 13.737c3.844-0.333 5.972-0.707 5.972-0.707s-7.154 2.786-8.347 8.719c2.171 0.534 2.931 0.67 5.36-0.092-3.09 2.478-5.259 3.113-5.458 8.783 3.704-0.336 3.744-0.819 3.744-0.819s-3.539 4.376-1.009 10.669c4.498-1.312 6.086-2.018 7.612-4.792 0.345 3.558 1.492 4.088 1.492 4.088s5.44-3.967 6.238-7.274c0.237 5.044 1.455 3.988 1.455 3.988s9.084-6.245 8.444-12.569c0.812 4.692 2.875 2.612 2.875 2.612s6.749-16.156-3.341-25.187c-5.891 6.22-9.884 14.214-13.242 22.803 2.046-7.254 4.699-14.274 11.593-23.959z" fill="#919e5e"/> </g> <g transform="matrix(2.8532e-16 4.6596 -4.6596 2.8532e-16 129.66 -904.61)"> <path d="m120.29 188.92s-10.329-10.562-25.424-9.454c2.687 2.77 4.322 4.183 4.322 4.183s-6.68-3.786-12.032-0.963c0.957 2.019 1.331 2.695 3.457 4.097-3.873-0.83-5.736-2.111-10.257 1.317 2.6 2.659 3 2.385 3 2.385s-5.627 0.021-8.908 5.957c3.858 2.658 5.409 3.443 8.523 2.874-2.54 2.515-2.226 3.739-2.226 3.739s6.511 1.712 9.579 0.241c-3.76 3.37-2.172 3.647-2.172 3.647s10.579 3.098 15.077-1.394c-3.124 3.594-0.208 3.879-0.208 3.879s16.787-4.974 17.414-18.501c-8.543-0.637-17.262 1.317-26.041 4.139 6.915-2.995 14.033-5.373 25.896-6.146z" fill="#919e5e"/> </g> <g transform="matrix(2.8532e-16 4.6596 -4.6596 2.8532e-16 4792.3 -904.61)"> <path d="m330.59 714.58s14.722-1.217 23.498-13.549c-3.847 0.303-5.978 0.659-5.978 0.659s7.176-2.728 8.417-8.651c-2.166-0.551-2.925-0.694-5.361 0.049 3.11-2.454 5.285-3.071 5.529-8.739-3.707 0.306-3.751 0.789-3.751 0.789s3.574-4.347 1.095-10.661c-4.508 1.276-6.102 1.97-7.65 4.731-0.317-3.561-1.459-4.099-1.459-4.099s-5.473 3.922-6.297 7.223c-0.197-5.046-1.422-3.999-1.422-3.999s-9.134 6.171-8.545 12.5c-0.775-4.698-2.855-2.635-2.855-2.635s-6.877 16.102 3.14 25.213c5.94-6.173 9.998-14.134 13.424-22.695-2.104 7.236-4.813 14.235-11.785 23.864z" fill="#919e5e"/> </g> <g transform="matrix(2.8532e-16 4.6596 -4.6596 2.8532e-16 767.71 -904.61)"> <path d="m385.17 275.55s13.914 4.964 26.995-2.649c-3.629-1.311-5.718-1.865-5.718-1.865s7.663 0.474 11.236-4.409c-1.746-1.396-2.378-1.839-4.903-2.167 3.845-0.952 6.08-0.618 8.641-5.68-3.503-1.25-3.742-0.829-3.742-0.829s5.049-2.486 5.395-9.26c-4.634-0.697-6.371-0.723-8.921 1.154 1.18-3.374 0.362-4.336 0.362-4.336s-6.603 1.316-8.715 3.983c1.902-4.678 0.353-4.23 0.353-4.23s-10.866 1.854-12.94 7.863c1.232-4.6-1.513-3.578-1.513-3.578s-12.908 11.83-7.541 24.263c7.958-3.173 14.938-8.752 21.591-15.137-4.902 5.724-10.257 10.982-20.58 16.877z" fill="#919e5e"/> </g> <g transform="matrix(2.8532e-16 4.6596 -4.6596 2.8532e-16 1417.9 -904.61)"> <path d="m393.33 321.4s-4.215 11.427 4.875 21.84c0.813-3.475 1.532-4.665 1.532-4.665s0.513 6.433 5.727 8.798c1.136-1.803 1.761-2.364 1.757-4.682 1.42 3.281 1.827 6.878 7.086 8.306 0.769-3.352 0.328-3.494 0.328-3.494s3.068 4.096 9.71 3.247c0.085-4.269-0.112-5.83-2.266-7.792 3.437 0.48 4.903-1.383 4.903-1.383s-3.642-5.103-6.51-6.538c4.799 0.903 5.175-1.959 5.175-1.959s-5.252-7.018-11.37-7.847c4.638 0.317 5.216-2.433 5.216-2.433s-13.175-9.535-24.597-2.601c8.848 4.123 20.558 8.84 22.939 22.733-4.924-10.439-14.359-16.22-24.505-21.53z" fill="#919e5e"/> </g> <g transform="matrix(2.8532e-16 4.6596 -4.6596 2.8532e-16 1115 -904.61)"> <path d="m322.14 278.6s-11.342 4.44-13.087 18.152c3.137-1.701 4.505-1.955 4.505-1.955s-4.469 4.658-2.772 10.126c2.101-0.349 2.936-0.254 4.666-1.797-1.509 3.241-3.927 5.935-1.501 10.814 3.016-1.651 2.829-2.075 2.829-2.075s-1.024 5.014 4.023 9.415c3.248-2.772 4.283-3.956 4.319-6.87 1.925 2.888 4.291 2.746 4.291 2.746s1.395-6.112 0.563-9.209c2.513 4.187 4.902 2.567 4.902 2.567s1.757-8.587-1.687-13.711c2.844 3.677 5.283 2.282 5.283 2.282s-1.624-16.182-14.395-20.114c2.796 9.353 7.049 21.239-1.755 32.247 4.532-10.614 2.587-21.507-0.184-32.618z" fill="#919e5e"/> </g> <g transform="matrix(2.8532e-16 4.6596 -4.6596 2.8532e-16 1534.9 -904.61)"> <path d="m228.97 323.64s-11.342 4.44-13.087 18.152c3.137-1.701 4.504-1.954 4.504-1.954s-4.468 4.657-2.772 10.125c2.102-0.348 2.937-0.254 4.667-1.797-1.509 3.241-3.928 5.936-1.501 10.815 3.016-1.652 2.829-2.076 2.829-2.076s-1.024 5.014 4.023 9.415c3.247-2.772 4.283-3.956 4.319-6.87 1.925 2.888 4.291 2.746 4.291 2.746s1.394-6.112 0.562-9.209c2.513 4.187 4.903 2.567 4.903 2.567s1.757-8.587-1.688-13.711c2.845 3.677 5.284 2.283 5.284 2.283s-1.625-16.183-14.395-20.114c2.795 9.352 7.048 21.239-1.755 32.247 4.532-10.615 2.586-21.508-0.184-32.619z" fill="#919e5e"/> </g> <g transform="matrix(2.8532e-16 4.6596 -4.6596 2.8532e-16 551.02 -904.61)"> <path d="m214.3 234.6s-6.509-10.295-20.303-9.409c2.265 2.758 2.773 4.052 2.773 4.052s-5.42-3.504-10.468-0.802c0.741 1.997 0.806 2.835 2.649 4.241-3.468-0.868-6.572-2.731-10.903 0.576 2.193 2.648 2.574 2.385 2.574 2.385s-5.117-0.056-8.482 5.734c3.337 2.663 4.696 3.456 7.564 2.938-2.471 2.437-1.883 4.734-1.883 4.734s6.266 0.211 9.149-1.193c-3.635 3.261-1.592 5.3-1.592 5.3s8.765 0.098 13.143-4.255c-3.071 3.489-1.239 5.62-1.239 5.62s15.581-4.662 17.021-17.946c-8.653 4.517-19.519 10.946-31.995 4.388 11.28 2.439 21.607-1.536 31.992-6.363z" fill="#919e5e"/> </g> <g transform="matrix(2.8532e-16 4.6596 -4.6596 2.8532e-16 1780.3 -904.61)"> <path d="m182.09 363.77s-9.574-9.413-24.734-5.936c3.145 2.425 4.003 3.666 4.003 3.666s-6.827-2.609-11.837 1.117c1.276 1.924 1.538 2.776 3.908 3.884-4.058-0.251-7.936-1.597-12.011 2.62 3.041 2.325 3.406 1.983 3.406 1.983s-5.711 0.893-8.149 7.492c4.318 2.128 6.01 2.693 9.086 1.627-2.2 2.974-1.026 5.234-1.026 5.234s7.024-0.947 9.918-2.931c-3.311 4.04-0.575 5.764-0.575 5.764s9.782-1.528 13.673-6.833c-2.631 4.171-0.11 6.03-0.11 6.03s16.297-7.707 14.898-21.68c-3.893 2.832-8.693 5.497-13.664 7.875-6.03 2.884-12.544 5.036-20.972 2.598 13.112 0.42 23.713-5.601 34.186-12.51z" fill="#919e5e"/> </g> <g transform="matrix(2.8532e-16 4.6596 -4.6596 2.8532e-16 3039.6 -904.61)"> <path d="m106.33 519.69s5.585-10.823-2.16-22.272c-1.233 3.349-2.092 4.442-2.092 4.442s0.28-6.448-4.605-9.434c-1.348 1.649-2.038 2.13-2.318 4.43-1.007-3.43-0.97-7.05-6.014-9.112-1.174 3.232-0.754 3.428-0.754 3.428s-2.542-4.442-9.238-4.414c-0.609 4.226-0.604 5.799 1.293 8.011-3.352-0.898-5.035 0.772-5.035 0.772s2.988 5.51 5.659 7.287c-4.653-1.485-5.377 1.309-5.377 1.309s4.351 7.609 10.321 9.182c-4.563-0.883-5.475 1.775-5.475 1.775s11.907 11.079 24.093 5.598c-8.275-5.177-19.319-11.294-19.977-25.374 3.606 10.964 12.261 17.859 21.679 24.372z" fill="#919e5e"/> </g> <g transform="matrix(2.8532e-16 4.6596 -4.6596 2.8532e-16 4215 -904.61)"> <path d="m106.06 645.81s5.585-10.824-2.159-22.273c-1.233 3.349-2.092 4.442-2.092 4.442s0.279-6.448-4.605-9.434c-1.349 1.649-2.038 2.13-2.318 4.431-1.007-3.431-0.97-7.051-6.015-9.112-1.174 3.231-0.754 3.427-0.754 3.427s-2.542-4.442-9.238-4.414c-0.608 4.226-0.604 5.8 1.294 8.011-3.353-0.898-5.036 0.772-5.036 0.772s2.989 5.51 5.659 7.287c-4.652-1.485-5.377 1.309-5.377 1.309s4.352 7.609 10.322 9.182c-4.564-0.883-5.475 1.775-5.475 1.775s11.907 11.08 24.092 5.599c-8.274-5.177-19.318-11.295-19.977-25.375 3.606 10.964 12.261 17.859 21.679 24.373z" fill="#919e5e"/> </g> <g transform="matrix(2.8532e-16 4.6596 -4.6596 2.8532e-16 4158.3 -904.61)"> <path d="m380.55 614.46s-4.837 11.178 3.668 22.075c1.002-3.425 1.785-4.574 1.785-4.574s0.159 6.452 5.236 9.099c1.233-1.737 1.888-2.264 2.011-4.578 1.238 3.354 1.447 6.968 6.62 8.683 0.952-3.305 0.519-3.471 0.519-3.471s2.838 4.259 9.517 3.776c0.319-4.258 0.208-5.827-1.835-7.905 3.406 0.668 4.971-1.112 4.971-1.112s-3.356-5.295-6.141-6.886c4.743 1.166 5.276-1.671 5.276-1.671s-4.859-7.296-10.922-8.46c4.613 0.571 5.342-2.143 5.342-2.143s-12.632-10.244-24.417-3.948c8.607 4.603 20.041 9.956 21.655 23.958-4.343-10.693-13.446-16.984-23.285-22.843z" fill="#919e5e"/> </g> <g transform="matrix(2.8532e-16 4.6596 -4.6596 2.8532e-16 2986 -904.61)"> <path d="m363.1 486.87s-5.902 10.655 1.502 22.327c1.331-3.311 2.222-4.378 2.222-4.378s-0.47 6.437 4.325 9.566c1.396-1.609 2.099-2.07 2.447-4.361 0.905 3.459 0.762 7.076 5.743 9.286 1.269-3.196 0.855-3.404 0.855-3.404s2.41 4.515 9.104 4.684c0.733-4.206 0.775-5.779-1.057-8.045 3.325 0.996 5.056-0.623 5.056-0.623s-2.825-5.596-5.441-7.451c4.606 1.622 5.413-1.15 5.413-1.15s-4.125-7.734-10.046-9.483c4.535 1.017 5.525-1.612 5.525-1.612s-11.575-11.426-23.917-6.307c8.118 5.419 18.977 11.86 19.22 25.953-3.281-11.065-11.729-18.213-20.951-25.002z" fill="#919e5e"/> </g> <g transform="matrix(2.8532e-16 4.6596 -4.6596 2.8532e-16 1267.6 -904.61)"> <path d="m305.98 308.26s-9.209-8.468-21.844-4.454c2.955 2.15 3.822 3.286 3.822 3.286s-6.132-2.15-10.034 1.619c1.298 1.763 1.613 2.558 3.763 3.497-3.508-0.046-6.976-1.138-10.025 3.053 2.854 2.059 3.131 1.717 3.131 1.717s-4.804 1.118-6.196 7.488c3.929 1.813 5.44 2.268 7.966 1.111-1.572 2.923-0.326 5.01-0.326 5.01s5.924-1.23 8.196-3.248c-2.412 3.986 0.118 5.491 0.118 5.491s8.228-1.912 11.004-7.125c-1.815 4.078 0.544 5.721 0.544 5.721s13.162-8.077 10.483-21.256c-6.725 6.35-14.941 15.056-28.599 11.569 11.291-0.224 19.746-6.433 27.997-13.479z" fill="#919e5e"/> </g> <g transform="matrix(2.8532e-16 4.6596 -4.6596 2.8532e-16 535.6 -904.61)"> <path d="m159.7 229.7s-9.209-8.468-21.844-4.454c2.955 2.15 3.822 3.286 3.822 3.286s-6.132-2.15-10.035 1.619c1.298 1.763 1.614 2.558 3.763 3.497-3.507-0.046-6.975-1.138-10.024 3.053 2.854 2.059 3.131 1.717 3.131 1.717s-4.804 1.118-6.196 7.488c3.929 1.813 5.44 2.268 7.966 1.111-1.573 2.923-0.327 5.01-0.327 5.01s5.925-1.23 8.197-3.248c-2.412 3.986 0.118 5.491 0.118 5.491s8.228-1.912 11.004-7.125c-1.815 4.078 0.544 5.721 0.544 5.721s13.162-8.077 10.483-21.256c-6.725 6.35-14.941 15.056-28.6 11.569 11.292-0.224 19.747-6.433 27.998-13.479z" fill="#919e5e"/> </g> <g transform="matrix(2.8532e-16 4.6596 -4.6596 2.8532e-16 2615.9 -904.61)"> <path d="m113.47 452.56s-8.947-9.356-21.702-5.254c2.887 2.387 3.72 3.635 3.72 3.635s-6.065-2.449-10.082 1.559c1.243 1.935 1.534 2.803 3.654 3.862-3.504-0.118-6.938-1.369-10.115 3.111 2.79 2.288 3.077 1.923 3.077 1.923s-4.837 1.117-6.424 7.992c3.872 2.04 5.369 2.564 7.93 1.36-1.662 3.136-0.481 5.421-0.481 5.421s5.962-1.217 8.295-3.359c-2.534 4.272-0.051 5.952-0.051 5.952s8.285-1.911 11.22-7.505c-1.94 4.384 0.368 6.209 0.368 6.209s13.407-8.494 11.133-22.826c-6.918 6.749-17.498 14.262-28.947 11.976 11.295-0.021 19.939-6.584 28.405-14.056z" fill="#919e5e"/> </g> <g transform="matrix(2.8532e-16 4.6596 -4.6596 2.8532e-16 868.28 -904.61)"> <path d="m193.99 257.29s-14.572-2.426-26.102 7.379c3.804 0.649 5.958 0.826 5.958 0.826s-7.627 0.887-10.28 6.325c1.965 1.065 2.666 1.39 5.209 1.266-3.617 1.617-5.876 1.683-7.502 7.118 3.669 0.611 3.831 0.155 3.831 0.155s-4.531 3.338-3.674 10.067c4.684-0.133 6.399-0.414 8.576-2.712-0.565 3.529 0.411 4.331 0.411 4.331s6.266-2.462 7.874-5.46c-1.046 4.94 0.399 4.226 0.399 4.226s10.368-3.746 11.347-10.026c-0.4 4.744 2.122 3.254 2.122 3.254s10.613-13.926 3.133-25.214c-7.271 4.529-13.156 11.254-18.575 18.715 3.813-6.501 8.154-12.622 17.273-20.25z" fill="#919e5e"/> </g> <g transform="matrix(2.8532e-16 4.6596 -4.6596 2.8532e-16 2081.8 -904.61)"> <path d="m111.6 418.22s4.131-14.183-4.244-26.791c-1.094 3.701-1.523 5.819-1.523 5.819s0.02-7.678-5.067-10.955c-1.29 1.825-1.695 2.483-1.873 5.023-1.178-3.782-0.976-6.033-6.182-8.29-1.04 3.571-0.606 3.785-0.606 3.785s-2.78-4.893-9.563-4.837c-0.421 4.667-0.344 6.403 1.681 8.837-3.438-0.978-4.35-0.104-4.35-0.104s1.705 6.513 4.492 8.464c-4.782-1.622-4.244-0.103-4.244-0.103s2.495 10.738 8.616 12.452c-4.664-0.958-3.481 1.723-3.481 1.723s12.574 12.183 24.666 6.089c-3.638-7.755-9.621-14.393-16.389-20.656 6.004 4.555 11.57 9.588 18.067 19.544z" fill="#919e5e"/> </g> <g transform="matrix(2.8532e-16 4.6596 -4.6596 2.8532e-16 4194.8 -904.61)"> <path d="m284.08 653.35s-11.796-7.708-13.321-22.518c3.09 2 4.712 3.275 4.712 3.275s-4.737-5.637-2.97-11.409c2.082 0.491 2.788 0.707 4.483 2.459-1.45-3.562-2.985-5.085-0.501-10.185 2.971 1.941 2.779 2.385 2.779 2.385s-0.941-5.437 4.138-9.877c3.184 3.156 4.195 4.484 4.186 7.613 1.955-2.991 3.171-2.951 3.171-2.951s2.738 5.92 1.864 9.197c2.56-4.353 3.094-2.879 3.094-2.879s4.749 9.549 1.25 14.855c2.881-3.786 3.649-1.033 3.649-1.033s-1.859 17.274-14.602 20.778c-2.064-8.111-1.696-16.948-0.514-26.028-1.665 7.318-2.709 14.7-1.418 26.318z" fill="#919e5e"/> </g> <g transform="matrix(2.8532e-16 4.6596 -4.6596 2.8532e-16 3582.5 -904.61)"> <path d="m369.84 559.6s9.629-10.289 24.48-9.234c-2.503 2.698-4.039 4.076-4.039 4.076s6.37-3.693 11.75-0.956c-0.843 1.966-1.178 2.624-3.196 3.991 3.759-0.813 5.524-2.062 10.118 1.265-2.424 2.591-2.829 2.325-2.829 2.325s5.518 0.012 9.015 5.781c-3.658 2.591-5.141 3.358-8.221 2.809 2.609 2.442 2.359 3.633 2.359 3.633s-6.303 1.675-9.38 0.249c3.845 3.272 2.302 3.544 2.302 3.544s-10.226 3.029-14.848-1.333c3.232 3.491 0.387 3.773 0.387 3.773s-16.693-4.813-17.945-17.97c8.345-0.632 16.986 1.255 25.726 3.987-6.921-2.903-14.012-5.206-25.679-5.94z" fill="#919e5e"/> </g> <g transform="matrix(2.8532e-16 4.6596 -4.6596 2.8532e-16 257.5 -904.61)"> <path d="m349.02 189.09s14.09-0.226 23.652 11.186c-3.68 0.075-5.738-0.072-5.738-0.072s7.082 2.014 8.853 7.785c-2 0.76-2.706 0.977-5.091 0.475 3.196 2.138 5.321 2.54 6.121 8.155-3.547 0.058-3.638-0.418-3.638-0.418s3.827 3.976 2.107 10.5c-4.405-0.83-5.986-1.364-7.732-3.96 0.057 3.573-0.973 4.221-0.973 4.221s-5.585-3.369-6.698-6.573c0.319 5.04-0.949 4.118-0.949 4.118s-9.284-5.248-9.359-11.603c-0.264 4.75-2.444 2.9-2.444 2.9s-8.139-15.348 0.452-25.392c6.254 5.562 10.901 13.087 15.01 21.271-2.722-6.995-5.993-13.694-13.573-22.593z" fill="#919e5e"/> </g> <g transform="matrix(2.8532e-16 4.6596 -4.6596 2.8532e-16 1447.4 -904.61)"> <path d="m210.44 347.29s-12.884 5.708-26.142-1.066c3.359-1.505 5.31-2.173 5.31-2.173s-7.306 0.91-11.189-3.712c1.544-1.48 2.11-1.955 4.501-2.425-3.777-0.72-5.89-0.26-8.819-5.118 3.244-1.437 3.513-1.035 3.513-1.035s-5.075-2.167-6.039-8.844c4.379-0.955 6.044-1.081 8.664 0.627-1.447-3.267-0.751-4.266-0.751-4.266s6.456 0.922 8.731 3.437c-2.261-4.515-0.734-4.162-0.734-4.162s10.597 1.208 13.147 7.029c-1.611-4.477 1.118-3.625 1.118-3.625s13.485 10.954 9.497 23.554c-7.93-2.679-15.146-7.793-22.123-13.723 5.236 5.377 10.863 10.267 21.316 15.502z" fill="#919e5e"/> </g> <g transform="matrix(2.8532e-16 4.6596 -4.6596 2.8532e-16 3137.5 -904.61)"> <path d="m163.86 536.82s-14.057-0.984-22.605-13.175c3.673 0.242 5.711 0.565 5.711 0.565s-6.883-2.615-8.152-8.517c2.058-0.586 2.78-0.74 5.113-0.036-3.001-2.404-5.084-2.987-5.399-8.651 3.539 0.248 3.589 0.73 3.589 0.73s-3.472-4.29-1.199-10.642c4.318 1.205 5.848 1.872 7.364 4.609 0.25-3.565 1.332-4.122 1.332-4.122s5.275 3.835 6.109 7.123c0.114-5.049 1.299-4.022 1.299-4.022s8.799 6.026 8.329 12.364c0.671-4.71 2.684-2.68 2.684-2.68s6.792 15.991-2.629 25.259c-5.754-6.078-9.739-13.974-13.13-22.479 2.111 7.202 4.796 14.157 11.584 23.674z" fill="#919e5e"/> </g> <g transform="matrix(2.8532e-16 4.6596 -4.6596 2.8532e-16 3093.2 -904.61)"> <path d="m227.61 501.95s1.709 14.199-9.226 24.488c-0.463-3.708-0.524-5.792-0.524-5.792s-1.366 7.257-7.217 9.369c-1.003-1.975-1.303-2.674-1.028-5.108-1.901 3.345-2.1 5.51-7.889 6.634-0.43-3.575 0.058-3.693 0.058-3.693s-3.758 4.084-10.76 2.718c0.408-4.49 0.801-6.116 3.333-8.023-3.73 0.259-4.515-0.744-4.515-0.744s2.939-5.823 6.172-7.126c-5.236 0.606-4.405-0.725-4.405-0.725s4.518-9.661 11.156-10.095c-4.995 1e-3 -3.289-2.302-3.289-2.302s15.2-9.076 26.601-0.977c-5.163 6.623-12.547 11.735-20.675 16.341 7.031-3.14 13.694-6.818 22.208-14.965z" fill="#919e5e"/> </g> <g transform="matrix(2.8532e-16 4.6596 -4.6596 2.8532e-16 4762.9 -904.61)"> <path d="m132.42 712.22s-13.904-2.289-21.279-15.223c3.635 0.582 5.633 1.094 5.633 1.094s-6.609-3.245-7.323-9.24c2.104-0.391 2.837-0.478 5.094 0.441-2.764-2.673-4.783-3.448-4.569-9.116 3.501 0.576 3.505 1.06 3.505 1.06s-3.057-4.594-0.202-10.707c4.187 1.602 5.648 2.409 6.903 5.275 0.581-3.526 1.71-3.98 1.71-3.98s4.895 4.31 5.418 7.661c0.585-5.015 1.668-3.883 1.668-3.883s8.2 6.82 7.141 13.086c1.107-4.627 2.922-2.418 2.922-2.418s5.273 16.554-4.971 24.905c-5.162-6.588-8.394-14.821-10.978-23.606 1.431 7.368 3.456 14.543 9.328 24.651z" fill="#919e5e"/> </g> <g transform="matrix(2.8532e-16 4.6596 -4.6596 2.8532e-16 4381.7 -904.61)"> <path d="m220.15 651.95s-5.575-13.059-20.19-16.646c1.441 3.418 2.424 5.243 2.424 5.243s-4.795-5.593-10.928-4.589c0.11 2.186 0.197 2.934 1.646 4.898-3.315-1.964-4.563-3.735-10.152-1.909 1.404 3.288 1.886 3.154 1.886 3.154s-5.295-1.705-10.699 2.852c2.586 3.671 3.736 4.882 6.884 5.303-3.37 1.578-3.553 2.82-3.553 2.82s5.448 3.599 8.906 3.161c-4.851 2.005-3.467 2.751-3.467 2.751s8.728 6.143 14.711 3.314c-4.34 2.409-1.713 3.57-1.713 3.57s3.869 0.106 8.591-1.055c5.383-1.324 11.874-4.293 15.006-10.942-7.778-3.214-16.735-4.055-26.086-4.101 7.669-0.687 15.286-0.734 26.734 2.176z" fill="#919e5e"/> </g> <g transform="matrix(2.8532e-16 4.6596 -4.6596 2.8532e-16 4302.6 -904.61)"> <path d="m157.24 643.46s-5.575-13.058-20.19-16.646c1.441 3.419 2.424 5.244 2.424 5.244s-4.795-5.594-10.928-4.589c0.11 2.185 0.197 2.933 1.646 4.897-3.315-1.964-4.564-3.734-10.152-1.909 1.403 3.288 1.886 3.154 1.886 3.154s-5.295-1.705-10.7 2.852c2.587 3.672 3.737 4.882 6.885 5.303-3.37 1.578-3.553 2.821-3.553 2.821s5.448 3.598 8.906 3.161c-4.851 2.005-3.468 2.75-3.468 2.75s8.729 6.143 14.712 3.314c-4.341 2.41-1.713 3.57-1.713 3.57s3.869 0.106 8.591-1.055c5.383-1.324 11.874-4.293 15.005-10.941-7.777-3.214-16.734-4.056-26.086-4.101 7.669-0.688 15.287-0.735 26.735 2.175z" fill="#919e5e"/> </g> <g transform="matrix(2.8532e-16 4.6596 -4.6596 2.8532e-16 3378.7 -904.61)"> <path d="m134.35 533.94s-11.538-8.274-25.895-3.762c3.004 2.175 4.791 3.226 4.791 3.226s-7-2.296-11.723 1.743c1.227 1.812 1.689 2.406 3.947 3.334-3.853 0.039-5.839-0.827-9.67 3.632 2.905 2.084 3.248 1.719 3.248 1.719s-5.412 1.288-7.67 7.987c4.116 1.798 5.727 2.237 8.637 0.964-2.063 3.097-1.576 4.254-1.576 4.254s6.525 0.252 9.254-1.915c-3.108 4.229-1.538 4.15-1.538 4.15s10.649 0.726 14.297-4.796c-2.461 4.311 0.387 3.941 0.387 3.941s3.363-1.916 6.798-5.357c3.917-3.923 7.927-9.829 7.157-17.137-8.317 1.285-16.411 5.211-24.431 10.021 6.2-4.565 12.689-8.555 23.987-12.004z" fill="#919e5e"/> </g> <g transform="matrix(2.8532e-16 4.6596 -4.6596 2.8532e-16 1550.7 -904.61)"> <path d="m331.87 357.13s1.414-13.719-9.818-22.876c-0.386 3.583-0.403 5.585-0.403 5.585s-1.532-6.868-7.468-8.515c-0.968 1.957-1.254 2.647-0.925 4.962-1.987-3.084-2.233-5.146-8.086-5.851-0.356 3.454 0.138 3.536 0.138 3.536s-3.872-3.673-10.892-1.913c0.507 4.277 0.938 5.81 3.529 7.475-3.762-8e-3 -4.531 1.003-4.531 1.003s3.085 5.392 6.369 6.433c-5.285-0.244-4.42 0.978-4.42 0.978s4.758 8.968 11.45 8.957c-5.029 0.32-3.261 2.418-3.261 2.418s3.384 1.686 8.143 2.615c5.426 1.059 12.638 1.135 18.66-3.39-5.341-6.015-12.885-10.44-21.168-14.331 7.146 2.557 13.934 5.653 22.683 12.914z" fill="#919e5e"/> </g> <g transform="matrix(2.8532e-16 4.6596 -4.6596 2.8532e-16 1461.8 -904.61)"> <path d="m155.96 328.25s-11.539-8.275-25.896-3.762c3.005 2.175 4.792 3.226 4.792 3.226s-7.001-2.296-11.724 1.743c1.227 1.812 1.69 2.406 3.948 3.334-3.853 0.039-5.839-0.827-9.671 3.632 2.905 2.084 3.249 1.719 3.249 1.719s-5.412 1.288-7.67 7.986c4.115 1.799 5.726 2.238 8.637 0.965-2.063 3.097-1.576 4.254-1.576 4.254s6.525 0.252 9.254-1.916c-3.108 4.23-1.538 4.15-1.538 4.15s10.649 0.726 14.297-4.795c-2.462 4.311 0.387 3.941 0.387 3.941s3.363-1.916 6.798-5.358c3.916-3.923 7.927-9.828 7.157-17.136-8.317 1.285-16.412 5.21-24.432 10.021 6.201-4.565 12.69-8.556 23.988-12.004z" fill="#919e5e"/> </g> <g transform="matrix(2.8532e-16 4.6596 -4.6596 2.8532e-16 1211.4 -904.61)"> <path d="m367.48 291.12s-6.875 12.423-0.723 26.157c1.811-3.237 2.646-5.134 2.646-5.134s-1.465 7.22 3.096 11.441c1.657-1.43 2.193-1.958 2.852-4.309 0.487 3.823-0.142 5.896 4.733 9.182 1.731-3.127 1.329-3.426 1.329-3.426s1.909 5.225 8.825 6.688c1.307-4.296 1.556-5.948-0.047-8.69 3.316 1.689 4.409 1.07 4.409 1.07s-0.51-6.51-2.98-8.968c4.563 2.594 4.301 1.045 4.301 1.045s-0.518-10.662-6.427-13.642c4.568 1.943 3.869-0.843 3.869-0.843s-2.294-3.117-6.112-6.129c-4.352-3.433-10.684-6.729-17.853-5.114 2.244 8.111 7.085 15.694 12.796 23.1-5.255-5.628-9.974-11.608-14.714-22.428z" fill="#919e5e"/> </g> <g transform="matrix(2.8532e-16 4.6596 -4.6596 2.8532e-16 476.17 -904.61)"> <path d="m296.73 221.91s0.34 14.194 12.587 22.941c-0.072-3.709-0.309-5.769-0.309-5.769s2.382 6.972 8.45 8.311c0.708-2.071 0.904-2.797 0.285-5.159 2.352 3.053 2.856 5.16 8.723 5.534-0.085-3.574-0.583-3.628-0.583-3.628s4.287 3.545 10.994 1.315c-1.042-4.369-1.661-5.92-4.43-7.477 3.715-0.217 4.346-1.303 4.346-1.303s-3.728-5.361-7.102-6.235c5.249-0.066 4.24-1.271 4.24-1.271s-5.832-8.939-12.437-8.527c4.924-0.631 2.913-2.682 2.913-2.682s-3.555-1.532-8.371-2.203c-5.49-0.764-12.619-0.411-17.991 4.604 6.034 5.867 14.042 9.966 22.711 13.473-7.378-2.202-14.471-4.98-24.026-11.924z" fill="#919e5e"/> </g> <g transform="matrix(2.8532e-16 4.6596 -4.6596 2.8532e-16 -182.91 -904.61)"> <path d="m269.59 141.18s-7.126 12.281-1.255 26.138c1.876-3.2 2.75-5.08 2.75-5.08s-1.612 7.189 2.863 11.501c1.685-1.395 2.232-1.913 2.939-4.249 0.409 3.831-0.262 5.891 4.545 9.276 1.795-3.092 1.399-3.398 1.399-3.398s1.802 5.263 8.687 6.866c1.394-4.269 1.676-5.915 0.129-8.689 3.281 1.755 4.386 1.159 4.386 1.159s-0.377-6.519-2.796-9.027c4.509 2.687 4.278 1.132 4.278 1.132s-0.301-10.669-6.148-13.77c4.528 2.036 3.885-0.764 3.885-0.764s-2.23-3.163-5.986-6.251c-4.281-3.521-10.544-6.945-17.745-5.476 2.079 8.155 6.765 15.834 12.324 23.354-5.14-5.733-9.736-11.808-14.255-22.722z" fill="#919e5e"/> </g> <g transform="matrix(2.8532e-16 4.6596 -4.6596 2.8532e-16 -208.47 -904.61)"> <path d="m191.28 136.8s-8.472 11.395-4.207 25.827c2.226-2.967 3.308-4.735 3.308-4.735s-2.416 6.96 1.541 11.751c1.833-1.195 2.435-1.648 3.402-3.889-0.027 3.853-0.927 5.824 3.465 9.731 2.133-2.869 1.775-3.218 1.775-3.218s1.195 5.433 7.853 7.806c1.869-4.084 2.336-5.687 1.113-8.619 3.061 2.116 4.226 1.648 4.226 1.648s0.364-6.519-1.756-9.285c4.176 3.18 4.123 1.609 4.123 1.609s0.909-10.635-4.55-14.377c4.269 2.535 3.947-0.32 3.947-0.32s-1.858-3.395-5.239-6.889c-3.855-3.983-9.691-8.094-17.011-7.45 1.142 8.338 4.927 16.499 9.599 24.6-4.457-6.278-8.336-12.834-11.589-24.19z" fill="#919e5e"/> </g> <g transform="matrix(2.8532e-16 4.6596 -4.6596 2.8532e-16 -290.44 -904.61)"> <path d="m131.83 135.54s-13.274-5.04-25.995 3.001c3.462 1.332 5.459 1.89 5.459 1.89s-7.355-0.425-10.885 4.69c1.65 1.437 2.25 1.892 4.67 2.211-3.714 1.025-5.856 0.697-8.417 5.989 3.343 1.27 3.581 0.829 3.581 0.829s-4.901 2.633-5.367 9.686c4.439 0.683 6.109 0.695 8.596-1.281-1.201 3.522-0.433 4.515-0.433 4.515s6.371-1.429 8.454-4.223c-1.92 4.885-0.423 4.405-0.423 4.405s10.479-2.027 12.59-8.3c-1.274 4.798 1.385 3.71 1.385 3.71s2.759-2.714 5.197-6.92c2.78-4.796 5.143-11.532 2.525-18.399-7.709 3.374-14.527 9.243-21.046 15.948 4.823-6.001 10.073-11.522 20.109-17.751z" fill="#919e5e"/> </g> <g transform="matrix(2.8532e-16 4.6596 -4.6596 2.8532e-16 4774.5 -904.61)"> <path d="m299.37 715.59s13.109-5.455 16.83-20.037c-3.431 1.41-5.265 2.376-5.265 2.376s5.637-4.744 4.688-10.885c-2.186 0.089-2.934 0.17-4.912 1.601 1.995-3.297 3.776-4.529 2.002-10.134-3.301 1.373-3.171 1.857-3.171 1.857s1.753-5.28-2.754-10.725c-3.695 2.552-4.916 3.691-5.366 6.835-1.547-3.384-2.788-3.579-2.788-3.579s-3.648 5.415-3.242 8.877c-1.961-4.869-2.719-3.492-2.719-3.492s-6.223 8.672-3.448 14.68c-2.37-4.362-3.555-1.745-3.555-1.745s-0.141 3.868 0.977 8.6c1.274 5.395 4.184 11.913 10.803 15.105 3.286-7.748 4.209-16.697 4.34-26.048 0.617 7.675 0.595 15.293-2.42 26.714z" fill="#919e5e"/> </g> <g transform="matrix(2.8532e-16 4.6596 -4.6596 2.8532e-16 765.84 -904.61)"> <path d="m358.71 284.2s13.945-2.675 20.553-16.196c-3.646 0.683-5.638 1.256-5.638 1.256s6.484-3.499 6.804-9.705c-2.159-0.357-2.908-0.43-5.135 0.569 2.623-2.822 4.618-3.667 4.021-9.515-3.511 0.673-3.483 1.173-3.483 1.173s2.79-4.813-0.515-11.061c-4.137 1.748-5.564 2.614-6.644 5.601-0.827-3.628-2.002-4.071-2.002-4.071s-4.673 4.56-4.979 8.032c-0.93-5.166-1.952-3.972-1.952-3.972s-7.856 7.225-6.362 13.672c-1.433-4.753-3.125-2.431-3.125-2.431s-0.925 3.758-0.793 8.619c0.151 5.541 1.674 12.515 7.506 16.986 4.792-6.918 7.516-15.492 9.546-24.621-0.956 7.641-2.527 15.095-7.802 25.664z" fill="#919e5e"/> </g> <g transform="matrix(2.8532e-16 4.6596 -4.6596 2.8532e-16 793.1 -904.61)"> <path d="m214.21 244.2s-8.542 11.342-4.366 25.801c2.245-2.954 3.337-4.715 3.337-4.715s-2.459 6.945 1.469 11.76c1.84-1.184 2.445-1.632 3.425-3.868-0.05 3.853-0.962 5.818 3.406 9.753 2.151-2.856 1.794-3.208 1.794-3.208s1.162 5.441 7.806 7.854c1.893-4.072 2.37-5.672 1.166-8.611 3.047 2.134 4.216 1.674 4.216 1.674s0.404-6.517-1.7-9.296c4.157 3.206 4.113 1.635 4.113 1.635s0.975-10.63-4.46-14.406c4.252 2.562 3.949-0.295 3.949-0.295s-1.837-3.406-5.198-6.921c-3.83-4.007-9.64-8.154-16.964-7.555 1.09 8.345 4.826 16.529 9.448 24.659-4.419-6.306-8.257-12.886-11.441-24.261z" fill="#919e5e"/> </g> <g transform="matrix(2.8532e-16 4.6596 -4.6596 2.8532e-16 4697.6 -904.61)"> <path d="m274.53 702.54s-14.284-0.427-24.832-11.527c3.73 0.096 5.829 0.327 5.829 0.327s-7.337-2.204-9.56-7.679c1.973-0.619 2.674-0.79 5.132-0.213-3.403-2.143-5.589-2.614-6.816-7.9 3.597 0.107 3.724 0.556 3.724 0.556s-4.178-3.89-2.915-9.91c4.533 0.975 6.177 1.546 8.141 4.052-0.321-3.343 0.676-3.901 0.676-3.901s5.917 3.401 7.283 6.446c-0.696-4.725 0.659-3.806 0.659-3.806s9.811 5.326 10.357 11.269c-0.083-4.428 2.266-2.6 2.266-2.6s9.395 14.715 1.417 23.714c-6.758-5.482-12.031-12.726-16.806-20.561 3.279 6.661 7.094 13.071 15.445 21.733z" fill="#919e5e"/> </g> <g transform="matrix(2.8532e-16 4.6596 -4.6596 2.8532e-16 4515.4 -904.61)"> <path d="m349.78 683.18s-6.61-12.445-0.796-26.151c1.741 3.243 2.546 5.143 2.546 5.143s-1.428-7.223 2.907-11.426c1.586 1.436 2.1 1.966 2.738 4.318 0.45-3.819-0.159-5.894 4.479-9.161 1.664 3.133 1.282 3.43 1.282 3.43s1.8-5.216 8.392-6.652c1.264 4.3 1.508 5.952-0.01 8.687 3.157-1.675 4.202-1.053 4.202-1.053s-0.46 6.506-2.807 8.954c4.343-2.576 4.099-1.028 4.099-1.028s-0.451 10.656-6.076 13.613c4.351-1.925 3.695 0.857 3.695 0.857s-9.967 14.23-22.819 11.148c2.109-8.1 6.696-15.661 12.115-23.043-4.991 5.606-9.469 11.566-13.947 22.364z" fill="#919e5e"/> </g> <g transform="matrix(2.8532e-16 4.6596 -4.6596 2.8532e-16 356.01 -904.61)"> <path d="m376.26 223.52s2.71-13.829 15.862-20.807c-0.692 3.615-1.264 5.597-1.264 5.597s3.443-6.508 9.457-7.039c0.327 2.114 0.392 2.849-0.595 5.078 2.756-2.682 3.591-4.677 9.25-4.291-0.682 3.482-1.166 3.471-1.166 3.471s4.685-2.915 10.709 0.123c-1.729 4.136-2.58 5.572-5.482 6.74 3.506 0.688 3.926 1.83 3.926 1.83s-4.457 4.762-7.822 5.184c4.995 0.736 3.83 1.784 3.83 1.784s-7.065 7.99-13.296 6.741c4.591 1.247 2.328 2.994 2.328 2.994s-16.706 4.768-24.742-5.724c6.741-4.96 15.069-7.941 23.928-10.257-7.408 1.207-14.641 3.013-24.923 8.576z" fill="#919e5e"/> </g> <g transform="matrix(2.8532e-16 4.6596 -4.6596 2.8532e-16 1181.6 -904.61)"> <path d="m188.27 307.2s-6.937 12.266-21.619 14.736c1.798-3.212 2.966-4.912 2.966-4.912s-5.321 5.088-11.195 3.694c0.357-2.109 0.528-2.827 2.167-4.631-3.461 1.675-4.883 3.304-10.132 1.152 1.747-3.089 2.203-2.926 2.203-2.926s-5.366 1.288-10.122-3.497c2.945-3.379 4.206-4.473 7.329-4.664-3.111-1.76-3.148-2.976-3.148-2.976s5.732-3.111 9.058-2.45c-4.508-2.275-3.071-2.902-3.071-2.902s9.226-5.351 14.744-2.199c-3.963-2.633-1.264-3.576-1.264-3.576s17.357 0.749 21.67 13.241c-7.962 2.579-16.804 2.778-25.942 2.18 7.411 1.193 14.844 1.762 26.356-0.27z" fill="#919e5e"/> </g> <g transform="matrix(2.8532e-16 4.6596 -4.6596 2.8532e-16 2839.5 -904.61)"> <path d="m156.09 495.78s-12.601 6.307-26.163 0.164c3.285-1.662 5.203-2.421 5.203-2.421s-7.255 1.253-11.352-3.182c1.474-1.551 2.016-2.052 4.383-2.633-3.807-0.542-5.896 0.016-9.05-4.699 3.173-1.588 3.46-1.199 3.46-1.199s-5.171-1.926-6.447-8.55c4.329-1.16 5.986-1.364 8.684 0.219-1.599-3.196-0.951-4.226-0.951-4.226s6.493 0.617 8.883 3.023c-2.47-4.404-0.928-4.123-0.928-4.123s10.641 0.709 13.462 6.404c-1.82-4.396 0.946-3.673 0.946-3.673s13.985 10.308 10.593 23.081c-8.046-2.304-15.495-7.073-22.743-12.668 5.483 5.125 11.334 9.745 22.02 14.483z" fill="#919e5e"/> </g> <g transform="matrix(2.8532e-16 4.6596 -4.6596 2.8532e-16 4730.7 -904.61)"> <path d="m206.38 700.62s3.286-14.222-6.041-25.845c-0.875 3.712-1.175 5.82-1.175 5.82s-0.474-7.512-5.857-10.287c-1.194 1.894-1.564 2.572-1.581 5.071-1.441-3.599-1.382-5.818-6.82-7.585-0.827 3.581-0.372 3.753-0.372 3.753s-3.142-4.55-10.035-3.922c-0.127 4.6 0.063 6.292 2.278 8.501-3.559-0.666-4.43 0.266-4.43 0.266s2.154 6.227 5.114 7.899c-4.967-1.181-4.322 0.259-4.322 0.259s3.229 10.292 9.563 11.45c-4.805-0.541-3.429 1.98-3.429 1.98s13.57 10.854 25.473 3.87c-4.2-7.278-10.711-13.264-17.996-18.818 6.399 3.947 12.383 8.4 19.63 17.588z" fill="#919e5e"/> </g> <g transform="matrix(2.8532e-16 4.6596 -4.6596 2.8532e-16 4627.2 -904.61)"> <path d="m110.84 689.51s3.286-14.222-6.041-25.845c-0.875 3.712-1.175 5.82-1.175 5.82s-0.474-7.512-5.857-10.288c-1.194 1.895-1.564 2.573-1.581 5.072-1.441-3.599-1.382-5.818-6.82-7.585-0.827 3.581-0.372 3.753-0.372 3.753s-3.142-4.55-10.035-3.922c-0.127 4.6 0.063 6.292 2.278 8.501-3.559-0.666-4.43 0.266-4.43 0.266s2.154 6.227 5.114 7.899c-4.967-1.182-4.322 0.259-4.322 0.259s3.229 10.292 9.563 11.45c-4.805-0.541-3.429 1.98-3.429 1.98s13.57 10.854 25.473 3.87c-4.2-7.278-10.711-13.265-17.996-18.818 6.399 3.947 12.383 8.4 19.63 17.588z" fill="#919e5e"/> </g> <g transform="matrix(2.8532e-16 4.6596 -4.6596 2.8532e-16 2472.3 -904.61)"> <path d="m137.88 429.12s-12.837-1.128-21.215 8.855c3.353 0.31 5.223 0.307 5.223 0.307s-6.391 1.411-7.837 6.659c1.843 0.837 2.492 1.084 4.65 0.773-2.849 1.779-4.773 2.014-5.339 7.181 3.232 0.284 3.301-0.152 3.301-0.152s-3.37 3.445-1.616 9.62c3.987-0.484 5.412-0.877 6.927-3.176 0.052 3.317 1.008 3.986 1.008 3.986s4.988-2.767 5.909-5.672c-0.145 4.663 0.983 3.889 0.983 3.889s8.303-4.273 8.188-10.174c0.378 4.432 2.31 2.854 2.31 2.854s6.968-13.734-1.145-23.627c-5.535 4.762-9.549 11.452-13.055 18.79 2.277-6.323 5.062-12.336 11.708-20.113z" fill="#919e5e"/> </g> <g transform="matrix(2.8532e-16 4.6596 -4.6596 2.8532e-16 3721.9 -904.61)"> <path d="m120.32 582.42s-4.566-13.865-18.569-18.966c1.178 3.627 2.014 5.585 2.014 5.585s-4.301-6.176-10.343-5.758c-0.038 2.239-3e-3 3.01 1.279 5.156-3.1-2.33-4.199-4.258-9.765-2.949 1.149 3.491 1.628 3.402 1.628 3.402s-5.046-2.261-10.614 1.851c2.276 3.999 3.316 5.347 6.356 6.087-3.388 1.276-3.65 2.525-3.65 2.525s5.071 4.207 8.469 4.102c-4.86 1.565-3.561 2.462-3.561 2.462s8.097 7.126 14.114 4.832c-4.389 2.028-1.905 3.471-1.905 3.471s17.232 2.243 23.787-9.901c-7.365-4.045-16.036-5.788-25.145-6.758 7.518 0.056 14.943 0.761 25.905 4.859z" fill="#919e5e"/> </g> <g transform="matrix(2.8532e-16 4.6596 -4.6596 2.8532e-16 1909.2 -904.61)"> <path d="m263.34 367.65s-14.508-1.611-24.969 9.004c3.789 0.437 5.917 0.49 5.917 0.49s-7.405 1.344-9.536 7.014c2.02 0.965 2.736 1.253 5.221 0.98-3.408 1.85-5.619 2.049-6.742 7.655 3.653 0.406 3.772-0.066 3.772-0.066s-4.155 3.649-2.73 10.423c4.584-0.408 6.242-0.794 8.179-3.251-0.248 3.612 0.779 4.369 0.779 4.369s5.934-2.863 7.251-5.997c-0.596 5.071 0.759 4.262 0.759 4.262s9.847-4.402 10.262-10.828c0.02 4.835 2.365 3.176 2.365 3.176s9.203-14.74 0.883-25.751c-6.74 5.017-11.93 12.18-16.599 20.061 3.177-6.814 6.904-13.275 15.188-21.541z" fill="#919e5e"/> </g> <g transform="matrix(2.8532e-16 4.6596 -4.6596 2.8532e-16 1671 -904.61)"> <path d="m121.53 362.35s-4.566-13.865-18.569-18.965c1.178 3.627 2.015 5.585 2.015 5.585s-4.301-6.177-10.344-5.758c-0.038 2.239-2e-3 3.01 1.279 5.156-3.099-2.331-4.199-4.259-9.765-2.949 1.149 3.491 1.629 3.402 1.629 3.402s-5.047-2.262-10.615 1.85c2.277 3.999 3.317 5.348 6.356 6.088-3.388 1.276-3.649 2.524-3.649 2.524s5.07 4.208 8.468 4.103c-4.859 1.565-3.561 2.462-3.561 2.462s8.098 7.125 14.115 4.831c-4.389 2.028-1.906 3.471-1.906 3.471s17.232 2.243 23.787-9.901c-7.365-4.045-16.036-5.787-25.145-6.757 7.518 0.056 14.943 0.76 25.905 4.858z" fill="#919e5e"/> </g> <g transform="matrix(2.8532e-16 4.6596 -4.6596 2.8532e-16 565.83 -904.61)"> <path d="m111.16 223.07s-14.543-1.25-24.737 9.622c3.798 0.343 5.927 0.343 5.927 0.343s-7.369 1.527-9.359 7.248c2.044 0.915 2.767 1.185 5.244 0.85-3.361 1.935-5.566 2.188-6.55 7.821 3.662 0.315 3.769-0.161 3.769-0.161s-4.063 3.752-2.47 10.488c4.572-0.522 6.221-0.948 8.096-3.453-0.158 3.617 0.887 4.348 0.887 4.348s5.862-3.009 7.1-6.174c-0.47 5.083 0.865 4.241 0.865 4.241s9.734-4.645 9.989-11.08c0.141 4.833 2.444 3.116 2.444 3.116s8.834-14.964 0.243-25.764c-6.614 5.183-11.624 12.472-16.096 20.467 3.007-6.891 6.572-13.442 14.648-21.912z" fill="#919e5e"/> </g> <g transform="matrix(2.8532e-16 4.6596 -4.6596 2.8532e-16 214.8 -904.61)"> <path d="m171.04 191.95s-2.327 14.41 7.759 25.383c0.623-3.763 0.781-5.886 0.781-5.886s0.977 7.463 6.534 9.872c1.064-1.97 1.387-2.671 1.237-5.166 1.68 3.495 1.768 5.713 7.313 7.112 0.586-3.629 0.12-3.77 0.12-3.77s3.439 4.33 10.275 3.241c-0.181-4.598-0.484-6.273-2.842-8.329 3.595 0.426 4.402-0.562 4.402-0.562s-2.566-6.069-5.631-7.539c5.035 0.846 4.294-0.548 4.294-0.548s-3.91-10.052-10.308-10.784c4.83 0.219 3.289-2.205 3.289-2.205s-14.267-9.921-25.675-2.156c4.678 6.981 11.575 12.518 19.216 17.571-6.649-3.51-12.918-7.552-20.764-16.234z" fill="#919e5e"/> </g> <g transform="matrix(2.8532e-16 4.6596 -4.6596 2.8532e-16 104.15 -904.61)"> <path d="m299.8 171.54s-8.321 11.994-3.963 26.245c2.187-3.124 3.247-4.971 3.247-4.971s-2.342 7.153 1.63 11.726c1.811-1.318 2.405-1.811 3.347-4.126 5e-3 3.878-0.872 5.917 3.524 9.572 2.096-3.019 1.736-3.348 1.736-3.348s1.233 5.391 7.869 7.36c1.822-4.225 2.272-5.867 1.033-8.74 3.059 1.937 4.213 1.394 4.213 1.394s0.307-6.581-1.823-9.231c4.175 2.937 4.11 1.36 4.11 1.36s0.813-10.755-4.641-14.178c4.262 2.283 3.919-0.569 3.919-0.569s-8.585-15.108-22.228-13.031c1.205 8.317 5.035 16.289 9.745 24.146-4.482-6.037-8.39-12.389-11.718-23.609z" fill="#919e5e"/> </g> <g transform="matrix(2.8532e-16 4.6596 -4.6596 2.8532e-16 -146.36 -904.61)"> <path d="m349.26 141.93s-13.362 5.877-17.093 20.306c3.498-1.521 5.366-2.542 5.366-2.542s-5.734 4.875-4.737 10.849c2.232-0.177 2.996-0.287 5.009-1.769-2.021 3.31-3.835 4.589-1.996 10.004 3.364-1.48 3.23-1.948 3.23-1.948s-1.766 5.24 2.862 10.387c3.762-2.65 5.004-3.815 5.448-6.912 1.596 3.25 2.864 3.39 2.864 3.39s3.7-5.451 3.269-8.823c2.025 4.686 2.793 3.307 2.793 3.307s6.314-8.745 3.452-14.513c2.441 4.173 3.638 1.562 3.638 1.562s0.576-17.367-12.142-22.725c-3.318 7.72-4.218 16.519-4.309 25.679-0.666-7.489-0.679-14.947 2.346-26.252z" fill="#919e5e"/> </g> <g transform="matrix(2.8532e-16 4.6596 -4.6596 2.8532e-16 -225.52 -904.61)"> <path d="m170.03 136.52s-14.593 0.376-23.513 12.314c3.812-0.082 5.928-0.319 5.928-0.319s-7.154 2.339-8.495 8.245c2.133 0.682 2.882 0.87 5.306 0.261-3.125 2.297-5.288 2.794-5.639 8.501 3.675-0.094 3.728-0.579 3.728-0.579s-3.62 4.181-1.288 10.698c4.486-1.028 6.076-1.635 7.661-4.332 0.246 3.612 1.366 4.222 1.366 4.222s5.49-3.642 6.369-6.926c0.098 5.104 1.331 4.119 1.331 4.119s9.157-5.7 8.695-12.123c0.677 4.788 2.775 2.825 2.775 2.825s7.114-15.854-2.625-25.631c-5.996 5.886-10.164 13.688-13.719 22.13 2.221-7.182 5.036-14.09 12.12-23.405z" fill="#919e5e"/> </g> <g transform="matrix(2.8532e-16 4.6596 -4.6596 2.8532e-16 1239 -904.61)"> <path d="m114.74 316.85s-3.713-14.117-17.38-20.061c0.955 3.692 1.671 5.697 1.671 5.697s-3.917-6.427-9.974-6.377c-0.174 2.233-0.186 3.004 0.963 5.225-2.952-2.515-3.932-4.507-9.568-3.539 0.935 3.555 1.419 3.495 1.419 3.495s-4.9-2.564-10.708 1.201c2.029 4.13 2.985 5.539 5.974 6.463-3.46 1.068-3.796 2.298-3.796 2.298s4.804 4.508 8.202 4.61c-4.946 1.267-3.704 2.241-3.704 2.241s7.649 7.605 13.794 5.682c-4.504 1.757-2.113 3.349-2.113 3.349s17.063 3.288 24.346-8.435c-7.105-4.486-15.654-6.753-24.688-8.276 7.501 0.514 14.87 1.669 25.562 6.427z" fill="#919e5e"/> </g> <g transform="matrix(2.8532e-16 4.6596 -4.6596 2.8532e-16 4390.5 -904.61)"> <path d="m326.21 671.46s8.417-11.927 4.172-26.213c-2.212 3.107-3.286 4.945-3.286 4.945s2.399-7.134-1.537-11.738c-1.821 1.304-2.419 1.791-3.379 4.099 0.025-3.877 0.919-5.909-3.449-9.6-2.119 3.003-1.762 3.335-1.762 3.335s-1.19-5.401-7.81-7.423c-1.856 4.21-2.319 5.849-1.103 8.731-3.043-1.961-4.201-1.427-4.201-1.427s-0.359 6.579 1.749 9.245c-4.152-2.97-4.098-1.393-4.098-1.393s-0.9 10.749 4.527 14.215c-4.244-2.317-3.923 0.537-3.923 0.537s8.464 15.177 22.123 13.208c-1.139-8.325-4.905-16.328-9.552-24.223 4.433 6.073 8.291 12.456 11.529 23.702z" fill="#919e5e"/> </g> <g transform="matrix(2.8532e-16 4.6596 -4.6596 2.8532e-16 -26.19 -904.61)"> <path d="m380.97 166.68s-1.905 14.472 8.495 25.146c0.514-3.779 0.61-5.906 0.61-5.906s1.194 7.432 6.819 9.678c1.006-2.001 1.309-2.711 1.086-5.2 1.78 3.444 1.934 5.659 7.517 6.896 0.48-3.644 9e-3 -3.772 9e-3 -3.772s3.565 4.228 10.366 2.94c-0.315-4.591-0.667-6.257-3.084-8.243 3.607 0.321 4.384-0.69 4.384-0.69s-2.741-5.991-5.848-7.372c5.057 0.7 4.277-0.672 4.277-0.672s-4.202-9.934-10.618-10.48c4.834 0.079 3.223-2.299 3.223-2.299s-14.55-9.501-25.727-1.407c4.879 6.841 11.935 12.175 19.719 17.003-6.748-3.314-13.132-7.172-21.228-15.622z" fill="#919e5e"/> </g> <g transform="matrix(2.8532e-16 4.6596 -4.6596 2.8532e-16 2738.3 -904.61)"> <path d="m248.4 473.42s-7.226-12.683-21.963-14.904c1.874 3.321 3.083 5.074 3.083 5.074s-5.442-5.2-11.281-3.591c0.407 2.202 0.595 2.951 2.277 4.8-3.5-1.669-4.961-3.341-10.156-0.953 1.819 3.194 2.271 3.012 2.271 3.012s-5.395-1.215-10.036 3.92c3.025 3.468 4.311 4.582 7.438 4.705-3.068 1.923-3.076 3.198-3.076 3.198s5.804 3.118 9.113 2.341c-4.452 2.498-3.001 3.119-3.001 3.119s9.35 5.377 14.793 1.935c-3.9 2.859-1.179 3.78-1.179 3.78s17.334-1.221 21.349-14.424c-8.021-2.503-16.866-2.49-25.986-1.634 7.38-1.436 14.797-2.219 26.354-0.378z" fill="#919e5e"/> </g> <g transform="matrix(2.8532e-16 4.6596 -4.6596 2.8532e-16 2442.6 -904.61)"> <path d="m296.4 453.38s2.044-14.453-8.253-25.227c-0.55 3.774-0.667 5.9-0.667 5.9s-1.122-7.442-6.725-9.742c-1.026 1.991-1.335 2.698-1.136 5.19-1.748-3.462-1.88-5.678-7.451-6.968-0.515 3.639-0.046 3.772-0.046 3.772s-3.524-4.262-10.336-3.04c0.27 4.593 0.606 6.262 3.004 8.272-3.603-0.356-4.39 0.648-4.39 0.648s2.684 6.017 5.777 7.427c-5.05-0.748-4.283 0.632-4.283 0.632s4.106 9.974 10.517 10.581c-4.833-0.125-3.245 2.268-3.245 2.268s14.458 9.64 25.712 1.654c-4.813-6.888-11.817-12.289-19.555-17.192 6.716 3.379 13.062 7.298 21.077 15.825z" fill="#919e5e"/> </g> <g transform="matrix(2.8532e-16 4.6596 -4.6596 2.8532e-16 3456.5 -904.61)"> <path d="m252.96 562.18s2.044-14.454-8.253-25.227c-0.55 3.774-0.667 5.9-0.667 5.9s-1.122-7.442-6.725-9.742c-1.026 1.991-1.335 2.698-1.136 5.189-1.748-3.461-1.88-5.677-7.451-6.967-0.514 3.639-0.046 3.771-0.046 3.771s-3.523-4.262-10.336-3.04c0.27 4.594 0.606 6.263 3.004 8.273-3.603-0.356-4.39 0.648-4.39 0.648s2.684 6.017 5.777 7.427c-5.05-0.748-4.283 0.631-4.283 0.631s4.106 9.974 10.517 10.581c-4.833-0.124-3.245 2.269-3.245 2.269s14.458 9.64 25.712 1.653c-4.813-6.887-11.817-12.289-19.555-17.191 6.716 3.379 13.062 7.297 21.077 15.825z" fill="#919e5e"/> </g> <g transform="matrix(2.8532e-16 4.6596 -4.6596 2.8532e-16 3578 -904.61)"> <path d="m173.2 574.04s-12.263 6.942-26.121 1.499c3.196-1.828 5.073-2.683 5.073-2.683s-7.182 1.621-11.499-2.599c1.392-1.624 1.908-2.152 4.242-2.854-3.83-0.346-5.887 0.318-9.278-4.23 3.088-1.748 3.395-1.374 3.395-1.374s-5.263-1.659-6.876-8.21c4.265-1.38 5.909-1.668 8.684-0.224-1.76-3.11-1.165-4.172-1.165-4.172s6.515 0.285 9.026 2.565c-2.692-4.272-1.138-4.07-1.138-4.07s10.664 0.164 13.771 5.708c-2.041-4.297 0.758-3.716 0.758-3.716s14.493 9.58 11.757 22.51c-8.153-1.89-15.836-6.272-23.36-11.491 5.738 4.839 11.816 9.155 22.731 13.341z" fill="#919e5e"/> </g> <g transform="matrix(2.8532e-16 4.6596 -4.6596 2.8532e-16 3958.9 -904.61)"> <path d="m209.9 628.04s-11.712-7.836-13.076-22.662c3.068 2.034 4.676 3.327 4.676 3.327s-4.675-5.688-2.845-11.441c2.077 0.514 2.78 0.738 4.456 2.508-1.411-3.577-2.929-5.117-0.39-10.19 2.949 1.973 2.753 2.416 2.753 2.416s-0.882-5.448 4.246-9.832c3.148 3.19 4.145 4.53 4.102 7.658 1.988-2.97 3.203-2.916 3.203-2.916s2.673 5.949 1.764 9.216c2.607-4.324 3.125-2.845 3.125-2.845s4.644 9.601 1.088 14.868c2.922-3.755 3.661-0.993 3.661-0.993s-2.048 17.252-14.828 20.617c-1.975-8.133-1.512-16.965-0.231-26.032-1.744 7.3-2.869 14.67-1.704 26.301z" fill="#919e5e"/> </g> <g transform="matrix(2.8532e-16 4.6596 -4.6596 2.8532e-16 4030.1 -904.61)"> <path d="m185.21 631.21s-14.082 0.53-23.888-10.674c3.678-0.154 5.738-0.051 5.738-0.051s-7.123-1.861-9.018-7.593c1.983-0.803 2.684-1.035 5.08-0.585-3.242-2.068-5.375-2.424-6.296-8.021 3.545-0.134 3.646 0.34 3.646 0.34s-3.911-3.893-2.333-10.452c4.421 0.735 6.014 1.234 7.815 3.792-0.133-3.571 0.883-4.241 0.883-4.241s5.656 3.248 6.837 6.427c-0.427-5.032 0.86-4.138 0.86-4.138s9.395 5.047 9.607 11.399c0.162-4.755 2.382-2.952 2.382-2.952s8.468 15.169 0.096 25.395c-6.373-5.425-11.182-12.849-15.466-20.941 2.872 6.934 6.287 13.561 14.057 22.295z" fill="#919e5e"/> </g> <g transform="matrix(2.8532e-16 4.6596 -4.6596 2.8532e-16 2892.4 -904.61)"> <path d="m330.64 493.42c0.124 14.531-13.257 16.7-13.257 16.7 3.244-6.358 0.274-14.667-9.877-18.579-8.994-3.466-6.421-14.518 0.181-16.078l1.798-4.272 1.407 4.074c7.647 0.482 18.614 6.16 19.655 16.289l9.563 0.09-0.306 2.215-9.164-0.439zm-22.286-13.328c0.825-3e-3 1.496 0.695 1.498 1.558 2e-3 0.862-0.665 1.564-1.489 1.566s-1.495-0.696-1.498-1.558c-2e-3 -0.862 0.665-1.564 1.489-1.566z" fill="#d2c844"/> </g> <g transform="matrix(2.8532e-16 4.6596 -4.6596 2.8532e-16 755.08 -904.61)"> <path d="m300.76 258.45c0.044-14.532-13.349-16.628-13.349-16.628 3.279 6.34 0.355 14.666-9.774 18.633-8.975 3.516-6.342 14.553 0.268 16.077l1.822 4.262 1.384-4.082c7.645-0.523 18.58-6.262 19.566-16.396l9.563-0.142-0.318-2.214-9.162 0.49zm-22.212 13.45c0.824-2e-3 1.491-0.704 1.489-1.566-3e-3 -0.862-0.674-1.561-1.498-1.558-0.824 2e-3 -1.491 0.704-1.489 1.566s0.673 1.56 1.498 1.558z" fill="#d2c844"/> </g> <g transform="matrix(2.8532e-16 4.6596 -4.6596 2.8532e-16 2549.3 -904.61)"> <path d="m181.14 450.98c0.044-14.532-13.349-16.627-13.349-16.627 3.279 6.339 0.354 14.665-9.775 18.633-8.974 3.515-6.341 14.553 0.269 16.077l1.822 4.261 1.384-4.081c7.645-0.524 18.58-6.263 19.565-16.396l9.564-0.143-0.319-2.214-9.161 0.49zm-22.213 13.45c0.825-2e-3 1.492-0.704 1.489-1.566-2e-3 -0.862-0.673-1.56-1.497-1.558s-1.492 0.704-1.489 1.566c2e-3 0.862 0.673 1.561 1.497 1.558z" fill="#d2c844"/> </g> <g transform="matrix(2.8532e-16 4.6596 -4.6596 2.8532e-16 3399.4 -904.61)"> <path d="m204.36 542.2c0.044-14.532-13.349-16.627-13.349-16.627 3.279 6.339 0.354 14.665-9.774 18.633-8.975 3.515-6.342 14.553 0.268 16.077l1.822 4.261 1.384-4.081c7.645-0.524 18.58-6.262 19.566-16.396l9.563-0.143-0.319-2.214-9.161 0.49zm-22.212 13.45c0.824-2e-3 1.491-0.704 1.489-1.566-3e-3 -0.862-0.674-1.56-1.498-1.558s-1.492 0.704-1.489 1.566c2e-3 0.863 0.673 1.561 1.498 1.558z" fill="#d2c844"/> </g> <g transform="matrix(2.8532e-16 4.6596 -4.6596 2.8532e-16 2336.2 -904.61)"> <path d="m377.26 425.11c-2.377-3.058-4.136-6.044-4.136-6.044s-3.66-8.245-9.088-14.105c-5.427-5.86-3.098-10.595-9.106-16.343-6.009-5.749-8.931-23.843-8.931-23.843s29.001 17.598 30.267 20.613 14.732 5.025 20.949 7.323c6.218 2.299 10.697-0.809 19.913-0.925s15.354-3.093 24.584 0.504c9.229 3.597 11.113-4.037 22.232-7.557 11.118-3.52 13.012-3.697 17.417-4.37 4.404-0.673 10.073-6.17 13.749-15.791s15.37-14.211 15.37-14.211 5.214 10.334 2.963 14.015c-2.25 3.681-1.921 9.086-7.414 24.28-5.492 15.193-4.374 8.31-8.905 12.378-4.531 4.069 0.099 8.693-0.309 13.496-0.408 4.802-4.736 4.517-5.761 7.597-0.567 1.705-1.859 6.944-2.898 11.28 0.195 0.908 0.365 1.643 0.495 2.12 0.894 3.272 5.231 3.155 5.437 8.207s-4.615 9.706-0.258 14.161c4.357 4.456 3.528-2.808 8.378 13.352s4.294 21.813 6.388 25.767c2.094 3.953-3.549 14.569-3.549 14.569s-11.492-5.303-14.761-15.544c-3.268-10.242-8.701-16.243-13.074-17.134s-6.257-1.155-17.218-5.313c-10.962-4.157-12.523-12.24-21.896-8.856-9.372 3.383-15.38 4e-3 -24.584-0.504-9.203-0.509-13.548-3.955-19.856-1.807-6.309 2.149-19.847 3.691-21.239 6.798-1.392 3.108-9.657 19.242-11.406 24.69s-16.683-11.186-16.683-11.186 0.662-12.011 6.906-17.786c6.245-5.774 4.117-10.837 9.786-16.752 5.669-5.916 9.672-14.406 9.672-14.406s3.061-4.969 6.566-8.673z" fill="#836d47"/> </g> <g transform="matrix(2.8532e-16 4.6596 -4.6596 2.8532e-16 3207.2 -904.61)"> <path d="m371.58 601.99-23.077-5.048s-7.136-27.64-8.714-36.913c-1.577-9.273-6.887-36.641-8.786-40.679-1.899-4.039 0.203-16.549-8.181-23.22-8.385-6.671-7.658-19.34-16.424-24.773-2.087-1.294-8.266-7.148-19.363-13.396-6.279-3.534-15.865-6.009-23.142-8.417 1.231-2.683 5.538-2.566 11.81-1.254 0 0 5.772 1.726 11.841 2.999 9.029 1.893 10.204 5.283 20.311 11.038s12.716 3.927 14.488 9.746c1.773 5.819 6.746 8.359 9.7 13.269 2.955 4.911 4.592-0.64 6.62 9.587s5.782 12.73 10.859 17.331 4.088 5.285 3.86 11.231 3.962 34.814 9.697 48.648c5.734 13.834 8.501 29.851 8.501 29.851z" fill="#836d47"/> </g> <g transform="matrix(2.8532e-16 4.6596 -4.6596 2.8532e-16 1574 -904.61)"> <path d="m382.14 280.59s-22.333 8.072-28.046 7.097-20.554-5.974-24.488 0.087-13.083 8.867-19.434 18.57c-6.351 9.704-21.301 6.168-24.043 9.053-2.742 2.884-19.33 36.448-18.363 41.275 0.966 4.828-5.612 41.068-4.484 46.689 1.128 5.62-8.312 32.801-7.318 41.724 0.994 8.922-7.234 6.575-7.234 6.575s-4.558-14.039-1.268-17.565c3.291-3.526 2.437-7.478 3.529-14.141 1.092-6.664 6.216-16.172 4.096-21.05s1.688-12.709 1.688-12.709-6.279-7.175-8.881-1.737c-2.601 5.438-6.759 10.975-11.506 9.401-4.747-1.573-7.443-5.803-13.225 1.235-5.782 7.037-9.844 1.544-17.188 8.711-7.345 7.168-7.423-5.176-7.423-5.176l5.729-4.719s2.389 3.59 8.245-1.037 5.011-9.177 10.758-8.487c5.746 0.69 1.555 3.383 9.432-1.268 7.878-4.651 6.5-8.719 11.05-8.158 4.55 0.56 10.38-0.188 11.999-4.033 1.62-3.846 1.756-12.905 4.458-18.354s3.098-8.452 4.679-14.496c1.581-6.043-0.65-12.847 3.466-16.41 4.115-3.563 1.15-12.767 7.999-14.974 6.85-2.207 4.997-0.221 12.969-9.161 7.973-8.941 1.864-11.134 7.952-14.648 6.087-3.513 4.817 0.572 10.61-5.232 5.793-5.805-4.26-11.221 5.779-12.263 10.038-1.043 10.232 3.904 17.464 1.039 7.231-2.864 3.903-11.522 13.315-9.806 9.412 1.717 8.245 4.263 17.652 0.969 9.406-3.294 12.615-12.825 18.726-13.027 6.111-0.201 1.306 36.026 1.306 36.026z" fill="#836d47"/> </g> <g transform="matrix(2.8532e-16 4.6596 -4.6596 2.8532e-16 2064.9 -904.61)"> <path d="m298.73 395s-10.55 5.909-13.858 5.831c-3.309-0.078-15.514-4.527-19.662-7.414-4.148-2.886-11.483-4.259-15.385-2.49-3.903 1.77-8.905 1.317-13.077 4.747-4.171 3.431-9.978 8.332-11.645 17.344-1.666 9.013-6.838 11.156-12.668 13.59-5.829 2.434-27.078 6.04-27.078 6.04l1.072-5.272s8.622-2.281 13.83-2.861c5.207-0.58 4.319-3.96 11.537-9.055 7.218-5.096 2.522-7.568 5.951-13.379 3.428-5.811 4.268-9.272 7.911-14.082 3.643-4.811 6.791-13.454 11.05-11.767s4.779 0.544 11.739 1.238c6.961 0.694 2.51-5.319 11.741-1.163 9.23 4.155 6.919 4.245 15.995 5.784 9.077 1.54 9.911 1.867 17.388-0.92s11.978-10.1 18.843-8.487c6.866 1.614 10.736 11.704 10.736 11.704l-24.42 10.612z" fill="#836d47"/> </g> <g transform="matrix(2.8532e-16 4.6596 -4.6596 2.8532e-16 2515.2 -904.61)"> <path d="m196.54 457.79s8.517 13.128 12.856 12.848 5.849-1.704 9.929 0.66c4.081 2.363 7.178 4.983 7.178 4.983l11.105 5.218 14.227-1.845-10.666-9.35-9.787-6.385s-4.826-3.688-8.553-2.029c-3.728 1.659-5.945-0.641-9.195-0.674-3.249-0.033-8.362-4.841-9.249-7.058-0.887-2.216-5.96-4.568-5.837-9.944 0.123-5.375-1.131-9.268-7.16-13.549-6.03-4.281-9.111-8.972-13.45-10.388s-5.211 5.481-5.211 5.481 4.323 1.93 7.747 5.207c3.423 3.276 6.247 3.881 8.394 9.706 2.146 5.825 7.672 17.119 7.672 17.119z" fill="#836d47"/> </g> <g transform="matrix(2.8532e-16 4.6596 -4.6596 2.8532e-16 2437.4 -904.61)"> <path d="m303.63 463.36s-5.187-5.751 3.509-13.534 7.656-13.73 14.589-13.276c6.933 0.455 9.567-1.837 15.342-4.737 5.776-2.899 9.603-7.051 15.918-6.01s16.594-5.495 22.24-2.686c5.646 2.81 10.397 16.01 10.397 16.01s-7.483 15.069-12.173 15.291c-4.691 0.222-28.337 1.353-28.337 1.353l-20.263 6.951-21.222 0.638z" fill="#836d47"/> </g> <g transform="matrix(2.8532e-16 4.6596 -4.6596 2.8532e-16 3138.8 -904.61)"> <path d="m339.8 543.15-6.933-16.288s-8.384-6.972-12.738-5.942c-4.355 1.031-9.881-0.491-13.925-2.943-4.045-2.452-11.436-8.657-15.817-9.604-4.382-0.948-10.512-5.524-10.512-5.524s-7.775-11.82 0.874-7.3 8.852 2.585 13.811 6.099 6.081 3.083 12.705 6.214c6.625 3.132 3.626-1.256 10.879 1.513s4.13 2.154 10.77 2.955c6.639 0.802 9.328-3.057 11.459-0.597s-0.573 31.417-0.573 31.417z" fill="#836d47"/> </g> <g transform="matrix(2.8532e-16 4.6596 -4.6596 2.8532e-16 3916.3 -904.61)"> <path d="m326.05 636.04-4.158-12.586s-0.706-7.33 2.837-10.759c3.543-3.428 3.583-6.27 3.066-11.188-0.517-4.917-1.542-8.983 1.869-12.083 3.41-3.1 4.683-10.747 4.683-10.747l1.163-7.208-2.194-6.46-4.519 8.654s-1.1 5.25-2.679 7.417c-1.58 2.167-2.681 3.496-2.795 7.432-0.115 3.937-0.208 3.167-2.552 6.348-2.343 3.181-1.813 0.779-1.973 5.874-0.161 5.096-7.992 19.66-7.992 19.66l15.244 15.646z" fill="#836d47"/> </g> <g transform="matrix(2.8532e-16 4.6596 -4.6596 2.8532e-16 1349 -904.61)"> <path d="m348.77 259.87s7.084-3.206 9.003 0.702c1.92 3.909 2.822 8.156 10.109 11.291 7.287 3.136 13.589 6.441 22.543 8.351 8.955 1.909 13.374 4.69 17.651 7.54l0.145 9.798s-1.815-3.905-11.383-8.626c-9.569-4.722-6.252-2.322-15.182-2.658-8.929-0.336-11.279-3.612-17.469-6.938s-5.637-2.614-6.04-0.948c-0.402 1.666 2.18 3.216-1.889 5.631-3.211 1.905 2.802 3.093 1.538 12.3-1.265 9.207-2.326 7.429-3.077 9.829-0.751 2.399 0.363 7.405 1.675 12.936 1.312 5.532 2.786 24.043 4.209 29.913s-2.169 9.422-4.671 13.367c-2.501 3.945-10.361-0.773-9.462 7.961 0.899 8.733-4.282 11.023-4.115 14.961 0.166 3.938-12.979 8.123-12.979 8.123l-21.299-4.078 1.191-4.282s6.686 0.09 13.165-0.424 8.511-2.131 9.743-5.065c1.231-2.933 0.889 0.9 2.286-5.98 1.397-6.879 3.992-9.188 5.477-11.63 1.485-2.443 2.736-4.697 5.151-5.861 2.416-1.165 3.947-1.977 3.731-6.015-0.216-4.039 3.321-5.143 0.784-8.674-2.537-3.532-0.196-5.104-2.169-7.726-1.973-2.621-2.489-6.352-3.672-8.136s-1.475-4.846-1.055-8.726 1.171-6.963 0.647-11.051c-0.525-4.087-1.493-5.572-2.036-8.092-0.542-2.52-4.839-13.44-4.43-16.425 0.408-2.986 0.809-12.656 0.809-12.656l11.071-8.712z" fill="#836d47"/> </g> <g transform="matrix(-3.8427 2.6354 2.6354 3.8427 655.88 -1952)"> <path d="m346.76 453.84h15.943l17.447 20.4-19.336-16.111-14.054-4.289z" fill="#3c3c3c"/> </g> <g transform="matrix(2.8532e-16 4.6596 -4.6596 2.8532e-16 2701.5 -904.61)"> <path d="m317.42 497.8s-10.904-11.422-14.104-15.393c-3.2-3.97-6.691-13.481-12.865-15.439s-8.752-3.378-17.434-1.604c-8.681 1.774-15.793-0.11-21.179-0.828-5.385-0.717-12.377-14.62-12.377-14.62l1.073-7.378s7.719 4.572 9.138 8.387-4.192 6.561 6.646 5.943 11.034 0.21 15.464-2.03 2.994-6.658 10.574-5.245c7.581 1.413 8.655-2.814 12.663 3.432s3.725 3.415 8.417 11.294c4.693 7.879 3.363 7.244 10 12.467 6.636 5.223 3.51 4.989 10.649 7.551 7.139 2.563-2.408 4.509 13.248 4.284 15.655-0.226 22.807-1.801 23.51 0.659 0.703 2.459-9.859 6.403-13.245 8.34" fill="#836d47"/> </g> <g transform="matrix(2.8532e-16 4.6596 -4.6596 2.8532e-16 3147.7 -904.61)"> <path d="m213.93 487.41s4.426 15.684 8.153 15.868c3.727 0.183 14.046 3.901 17.748 1.673s10.211-2.577 15.449-1.806c5.237 0.771 15.516 4.608 15.463 8.211s6.244 12.835 6.258 16.465c0.015 3.63 5.434 18.117 7.219 20.868l-7.215-1.198s-5.636-18.075-9.125-24.495c-3.49-6.42-5.319-7.239-9.05-8.799-3.732-1.56-4.757-2.49-9.397-2.253-4.641 0.237-6.093-0.152-11.007 0.045-4.915 0.196-3.652 0.578-11.023-1.548-7.371-2.125-12.82-7.079-12.82-7.079l-0.653-15.952z" fill="#836d47"/> </g> <g transform="matrix(2.8532e-16 4.6596 -4.6596 2.8532e-16 3552.7 -904.61)"> <path d="m353.22 596.36s-1.269-18.996 3.07-21.93 1.351-15.518 2.379-19.936c1.028-4.417 2.631-11.882 4.4-14.13 1.769-2.247 5.958-6.3 9.399-4.827 3.44 1.472 19.345 6.292 19.345 6.292s7e-3 -6.909-3.19-7.516c-3.197-0.606-6.907-3.894-11.104-3.954-4.196-0.059-6.675-3.705-11.747-2.425-5.073 1.279-8.795-0.982-9.457 4.3s2.207 6.081-3.322 12.739c-5.528 6.659-6.147 7.24-6.625 10.691s2.298 2.278 0.443 7.543-2.506 5.426-2.751 9.625c-0.246 4.199-3.269 11.815-3.269 11.815l12.429 11.713z" fill="#836d47"/> </g> </g> <g transform="matrix(2.365 4.0148 4.0148 -2.365 -852.49 1152.4)"> <path d="m357.86 425.18h14.337l29.752-12.061-26.586 17.212-17.503-5.151z" fill="#3c3c3c"/> </g> <g transform="matrix(2.8532e-16 4.6596 -4.6596 2.8532e-16 3719.4 -85.413)"> <path d="m398.2 417.35 29.933 4.349 31.339 7.233-38.421-5.114-15.625 2.379 6.251-6.889-13.477-1.958z" fill="#3c3c3c"/> </g> <g transform="matrix(2.8532e-16 4.6596 -4.6596 2.8532e-16 3674.7 -85.413)"> <path d="m319.28 425.25 16.806-8.672 14.81-0.793 10.922-4.05-26.553-0.307-15.985 13.822z" fill="#3c3c3c"/> </g> <g transform="matrix(2.8532e-16 4.6596 -4.6596 2.8532e-16 3560 -85.413)"> <path d="m398.32 407.79 13.026 1.491 14.178-2.073 14.595 2.975-13.631-8.303-9.18 3.412-18.988 2.498z" fill="#3c3c3c"/> </g> </svg>